<svg xmlns="http://www.w3.org/2000/svg" viewBox="0 0 197.12 79.64"><defs><style>.cls-1{fill:#231815;}</style></defs><title>logo</title><g id="レイヤー_2" data-name="レイヤー 2"><g id="レイヤー_1-2" data-name="レイヤー 1"><path class="cls-1" d="M34.52,77.36l-16.05.51c-16.06.35-16.23.35-17.44-3.1C-.87,69.41.16,19.17,1.72,0c3.8.35,7.42.69,11.39.86.35,13.3,0,64.93,2.42,66,2.94,1.38,14.85,0,19-.69Z"/><path class="cls-1" d="M83,9c5.18,8.29,7.6,51.11,3.11,59.57C81.32,77.87,72,81.5,60.77,78.74,48.51,75.63,44.71,65.79,44.88,36.26c0-23.83,2.59-29.87,14-33.67C66.81,0,79.42,3.28,83,9ZM66.81,11.74c-3.62-.69-5.18-.17-7.25,2.25C57.14,16.75,56.8,18.82,57,40.58c.17,21.06.35,23.65,2.59,25.38,3.11,2.42,7.25,2.59,11.74.17,2.94-1.55,3.46-3.11,4.32-10,1.21-11.74-.17-38.33-2.25-41.27A12.29,12.29,0,0,0,66.81,11.74Z"/><path class="cls-1" d="M130.7,21.58a10.71,10.71,0,0,0-3.45-8.28c-4-4-6.22-4.32-10.54-.87-3.1,2.42-3.28,3.46-3.62,23.31-.52,24.52.86,31.6,6.21,33,6.57,1.56,11.4-4.31,11.4-14.33,0-5.52,0-5.87-4.32-6.22-4-.34-4.66-.86-5-4.83l-.52-4.49h22.27V78.91c-3.8.17-8.11,0-9.32-2.24s-1.56-2.25-4.66,0c-8.12,5.69-21.59.86-26.77-9.5-3.28-6.91-4.83-36.78-2.24-47.31,2.24-9.33,7.6-16.41,13-18.13,15.37-4.49,26.76,2.59,28.32,16.92l.86,7.77H136.4C130.87,26.42,130.7,26.25,130.7,21.58Z"/><path class="cls-1" d="M191.65,9c5.18,8.29,7.6,51.11,3.11,59.57-4.83,9.32-14.16,13-25.38,10.19-12.26-3.11-16.06-12.95-15.89-42.48,0-23.83,2.59-29.87,14-33.67C175.42,0,188,3.28,191.65,9Zm-16.23,2.76c-3.62-.69-5.18-.17-7.25,2.25-2.42,2.76-2.76,4.83-2.59,26.59.17,21.06.34,23.65,2.59,25.38,3.11,2.42,7.25,2.59,11.74.17,2.94-1.55,3.45-3.11,4.32-10,1.21-11.74-.18-38.33-2.25-41.27A12.29,12.29,0,0,0,175.42,11.74Z"/></g></g></svg>