<svg xmlns="http://www.w3.org/2000/svg" viewBox="0 0 227.75 80.63"><defs><style>.cls-1{fill:#231815;}</style></defs><title>movie</title><g id="レイヤー_2" data-name="レイヤー 2"><g id="レイヤー_1-2" data-name="レイヤー 1"><path class="cls-1" d="M20.2,65.05c-2.59-11.92-5.35-20.38-7.77-30l-.69,43.69C7.94,78.34,4,78,0,77.83.35,53.31.52,21.19,2.42,2.54H15.54C18,16.18,24.86,47.09,26.59,51.93c1,2.41,2.25-1.9,6.39-20.55C35.92,18.25,38.85,6,39.54,4.27c1-2.94,2.07-3.11,6.39-2.76l5.18.34C52.49,25,53.18,52.27,53,78.69c-3.28-.35-6.73-.69-10.19-.86l-.34-17.27C42,33.45,42,33.28,36.78,54.34c-2.42,10.71-5,20.55-5.35,21.76-.35,1.73-1.9,2.42-4.32,2.42C23.31,78.52,23.14,78.34,20.2,65.05Z"/><path class="cls-1" d="M101.7,10c5.18,8.28,7.6,51.11,3.11,59.57C100,78.86,90.65,82.49,79.43,79.72c-12.26-3.1-16.06-13-15.89-42.47,0-23.83,2.59-29.87,14-33.67C85.47,1,98.08,4.27,101.7,10ZM85.47,12.73c-3.62-.69-5.18-.17-7.25,2.24-2.42,2.77-2.76,4.84-2.59,26.59C75.8,62.63,76,65.22,78.22,67c3.11,2.41,7.25,2.59,11.74.17,2.94-1.55,3.46-3.11,4.32-10,1.21-11.74-.17-38.33-2.25-41.26A12.22,12.22,0,0,0,85.47,12.73Z"/><path class="cls-1" d="M129.5,5c3.63,11.57,6.91,34.36,10.36,46.62,2.76-10.88,10.54-45.07,13.64-48,1-.87,3.63-1,5.53-.52,4.49,1,4.83,3.63,1.73,13.81-4,13.82-11.92,44.9-13.65,53.53-1.72,8.81-1.72,8.81-6.73,9.15-6.39.52-6,1.73-14.16-35.22-3.45-15.89-6.91-30.74-7.77-33.15a13.67,13.67,0,0,1-.69-6.57C118.8,1.51,127.78,1.85,129.5,5Z"/><path class="cls-1" d="M173.19,78.52c0-17.1-.35-69.42,1-76.5,1.39-1.2,7.95-.34,10.71-.17.17,25.56.52,51.11.69,76.67Z"/><path class="cls-1" d="M227.75,10.83H210.14l-.87,6.39c-1.72,12.78-1.38,14.16,4,15.19a28.7,28.7,0,0,0,7.59.18c1.9-.52,2.77-.18,2.77,1.38a35.41,35.41,0,0,0,.86,5.52c.86,3.11.52,3.11-6.91,3.11h-7.77V68l18-2.07V76.79c-6.73.52-16.06,1.55-23.14.69-6.73-.86-7.08-.86-7.77-5.7-1.21-9-.86-53.53-.86-70.45C203.4,1,216.53.47,222.57.12c5.18-.34,5.18-.34,5.18,5.18Z"/></g></g></svg>