<svg xmlns="http://www.w3.org/2000/svg" viewBox="0 0 142.26 92.68"><defs><style>.cls-1{fill:none;stroke:#ff0;stroke-miterlimit:10;stroke-width:3px;}.cls-2{fill:#fff;}</style></defs><title>photo-nav</title><g id="レイヤー_2" data-name="レイヤー 2"><g id="レイヤー_1-2" data-name="レイヤー 1"><polyline class="cls-1" points="141.31 91.52 78.31 40.52 0 40.52"/><rect x="3.25" width="71.47" height="32.87"/><path class="cls-2" d="M8.25,25.63,8.08,7,9.67,6.9c6.14-.42,7.94.71,7.94,4.78,0,4.33-2.06,5.68-6.17,5.8v8.36C10.39,25.76,9.34,25.67,8.25,25.63Zm3.19-16.3c0,1.35,0,5,.25,5.5a3.12,3.12,0,0,0,1.55-.16,2.27,2.27,0,0,0,1.6-1.22c.42-1.18,0-3.07-.8-3.61A4,4,0,0,0,11.44,9.33Z"/><path class="cls-2" d="M23.28,15h3.95a48.91,48.91,0,0,0,.42-7.72h3c0,6.17,0,12.3-.16,18.31l-1.39.08c-1.6.13-1.55.21-1.64-2.77,0-1.93,0-3.82-.17-5.58-1.3.08-2.64.08-4,.08V25.8c-1,0-3.15.21-3.06-.59-.22-.5.08-16.42,0-17,0-.8.17-.92,1.3-1a4.49,4.49,0,0,1,1.51,0C23.37,8,23.28,13.24,23.28,15Z"/><path class="cls-2" d="M42.48,8.79c1.26,2,1.84,12.43.75,14.49-1.17,2.27-3.44,3.15-6.17,2.48-3-.76-3.91-3.15-3.87-10.34,0-5.79.63-7.26,3.41-8.19C38.53,6.6,41.59,7.4,42.48,8.79Zm-3.95.67a1.53,1.53,0,0,0-1.77.54c-.58.68-.67,1.18-.63,6.47,0,5.13.09,5.76.63,6.18a2.51,2.51,0,0,0,2.86,0c.71-.38.84-.76,1.05-2.44.29-2.85,0-9.32-.55-10A3,3,0,0,0,38.53,9.46Z"/><path class="cls-2" d="M55.08,9.33H53.39c0,5.55-.12,11.09-.16,16.64-1,0-1.94.12-2.86.21-.13-3.78-.13-7.31-.13-11.81,0-5.46.26-4.87-2.64-5-1.18,0-1.26-.12-1.26-1a2.08,2.08,0,0,1,.25-1.18c.25-.29,8.36-.29,9.41,0,.55.17.76.46.76,1.18C56.76,9.29,56.67,9.33,55.08,9.33Z"/><path class="cls-2" d="M68.56,8.79c1.26,2,1.85,12.43.75,14.49-1.17,2.27-3.44,3.15-6.17,2.48-3-.76-3.91-3.15-3.87-10.34,0-5.79.63-7.26,3.41-8.19C64.61,6.6,67.68,7.4,68.56,8.79Zm-4,.67a1.53,1.53,0,0,0-1.77.54c-.58.68-.67,1.18-.63,6.47,0,5.13.09,5.76.63,6.18a2.51,2.51,0,0,0,2.86,0c.71-.38.84-.76,1-2.44.29-2.85,0-9.32-.55-10A3,3,0,0,0,64.61,9.46Z"/></g></g></svg>