<svg xmlns="http://www.w3.org/2000/svg" viewBox="0 0 198.37 68.8"><defs><style>.cls-1{fill:#7cb3d1;}.cls-2{fill:#fff;}</style></defs><title>nav-photo_sp</title><g id="レイヤー_2" data-name="レイヤー 2"><g id="レイヤー_1-2" data-name="レイヤー 1"><path class="cls-1" d="M83.39,68.12a2.32,2.32,0,0,1-1.66.68H2.34A2.32,2.32,0,0,1,0,66.47V2.34A2.32,2.32,0,0,1,2.34,0H16.18a2.35,2.35,0,0,1,1.6.63l8.47,7.94h0a10.66,10.66,0,0,0,7.27,2.87h48.2a2.33,2.33,0,0,1,1.66.69,2.28,2.28,0,0,1,.68,1.65V66.47A2.31,2.31,0,0,1,83.39,68.12Z"/><rect class="cls-2" x="97.36" y="11.2" width="100.93" height="46.41" rx="5.65" ry="5.65" transform="translate(-0.15 0.64) rotate(-0.25)"/><path d="M104.47,47.58l-.35-26.28,2.25-.19c8.66-.63,11.22,1,11.24,6.72,0,6.11-2.87,8-8.68,8.22l0,11.81C107.49,47.74,106,47.63,104.47,47.58Zm4.41-23c0,1.9,0,7.12.39,7.77a4.52,4.52,0,0,0,2.19-.24,3.24,3.24,0,0,0,2.25-1.73c.58-1.67,0-4.34-1.15-5.1A5.69,5.69,0,0,0,108.88,24.54Z"/><path d="M125.64,32.54l5.57,0a70.34,70.34,0,0,0,.55-10.91l4.27,0c.1,8.72,0,17.38-.13,25.86l-2,.13c-2.26.19-2.2.31-2.33-3.91-.07-2.72-.09-5.39-.27-7.88-1.84.12-3.74.13-5.7.14l0,11.8c-1.42,0-4.45.32-4.33-.81-.3-.71,0-23.19-.05-24,0-1.13.24-1.31,1.84-1.44a6.31,6.31,0,0,1,2.13,0C125.71,22.51,125.63,30,125.64,32.54Z"/><path d="M152.7,23.58c1.8,2.84,2.69,17.55,1.16,20.46-1.65,3.21-4.84,4.47-8.7,3.54-4.22-1-5.54-4.42-5.53-14.57,0-8.19.85-10.27,4.76-11.59C147.11,20.52,151.45,21.63,152.7,23.58Zm-5.57,1a2.14,2.14,0,0,0-2.49.79c-.82.95-.94,1.66-.85,9.14.1,7.23.16,8.12.93,8.71a3.54,3.54,0,0,0,4,0c1-.53,1.18-1.07,1.46-3.44.4-4-.11-13.17-.83-14.18A4.3,4.3,0,0,0,147.13,24.55Z"/><path d="M170.5,24.27h-2.37c0,7.84-.11,15.67-.14,23.5-1.36.06-2.73.19-4,.31-.2-5.34-.22-10.32-.25-16.67-.09-7.71.33-6.88-3.77-7-1.66-.05-1.78-.17-1.78-1.36a2.86,2.86,0,0,1,.35-1.66c.35-.42,11.8-.47,13.28-.12.77.24,1.07.65,1.08,1.66C172.87,24.2,172.75,24.26,170.5,24.27Z"/><path d="M189.54,23.42c1.79,2.84,2.68,17.55,1.15,20.46-1.64,3.21-4.84,4.47-8.7,3.54-4.22-1.05-5.54-4.42-5.52-14.57,0-8.19.84-10.27,4.75-11.59C184,20.36,188.28,21.47,189.54,23.42Zm-5.58,1a2.13,2.13,0,0,0-2.48.79c-.83.95-.95,1.66-.85,9.14.09,7.23.15,8.12.92,8.71a3.54,3.54,0,0,0,4,0c1-.53,1.18-1.07,1.47-3.44.39-4-.12-13.17-.84-14.18A4.3,4.3,0,0,0,184,24.39Z"/></g></g></svg>