<svg xmlns="http://www.w3.org/2000/svg" viewBox="0 0 167.73 68.8"><defs><style>.cls-1{fill:#7cb3d1;}.cls-2{fill:#fff;}</style></defs><title>nav-web_sp</title><g id="レイヤー_2" data-name="レイヤー 2"><g id="レイヤー_1-2" data-name="レイヤー 1"><path class="cls-1" d="M83.39,68.12a2.32,2.32,0,0,1-1.66.68H2.34A2.32,2.32,0,0,1,0,66.47V2.34A2.32,2.32,0,0,1,2.34,0H16.18a2.35,2.35,0,0,1,1.6.63l8.47,7.94h0a10.66,10.66,0,0,0,7.27,2.87h48.2a2.33,2.33,0,0,1,1.66.69,2.28,2.28,0,0,1,.68,1.65V66.47A2.31,2.31,0,0,1,83.39,68.12Z"/><rect class="cls-2" x="97.31" y="8.18" width="70.37" height="52.44" rx="5.65" ry="5.65" transform="translate(-0.07 0.28) rotate(-0.12)"/><path d="M110,29.57a53.53,53.53,0,0,0,1,6c-.35,2.73,3.3-11.45,3.06-11.75a2.8,2.8,0,0,1,2.07-2.37c1.31.05,1.73,1.06,2.63,6.4,1.62,9.25,1.62,9.19,2.85,3.49,2.24-10,2.06-9.67,3.54-9.79a2.51,2.51,0,0,1,1.78.23c.42.41-.23,4.75-1.87,12.46-.94,4.33-1.64,8.43-2.23,12.23-.23,1.42-.35,1.54-1.83,1.54a4.69,4.69,0,0,1-1.67-.11c-.36-1.78-2.39-11.86-2.64-13.88-.36-3.38-.65-3-2,3.8-.83,4.16-1.53,6.89-2.12,10.27-1.13-.12-2.25-.23-3.44-.29l-1-6.41c-2.65-16.3-3-19.15-2.77-19.51s1-.41,1.84-.42C109,21.5,108.93,21.32,110,29.57Z"/><path d="M141.49,24.28h-6.05l-.29,2.2c-.58,4.39-.46,4.86,1.38,5.22a10.11,10.11,0,0,0,2.61.05c.65-.18,1-.06,1,.47a12.16,12.16,0,0,0,.3,1.9c.3,1.07.18,1.07-2.37,1.07h-2.67l0,8.72,6.16-.73v3.74a43.67,43.67,0,0,1-7.95.25c-2.31-.29-2.43-.29-2.67-1.95-.42-3.08-.34-18.39-.35-24.2,2.55-.12,7.06-.31,9.14-.43,1.78-.13,1.78-.13,1.78,1.77Z"/><path d="M145.69,47.53l-.31-8.67c-.44-11-.45-16.13,0-16.84a3.67,3.67,0,0,1,2-.72c2.84-.36,6.88,0,8.48.81,3.21,1.6,4.17,7,1.86,10l-.94,1.19,1.24,1.42c1.43,1.71,2,4,1.56,7-.58,4.57-2.71,5.82-9.48,5.84Zm4.15-3.33c3.2.17,5.28-.14,5.81-2.92.29-1.61-.49-4.57-1.5-5.1-1.24-.65-3.68-1.06-4-.71C149.76,36.3,149.83,42.12,149.84,44.2Zm.86-12.11A3.68,3.68,0,0,0,154.43,26c-1.07-1.18-3-1.83-4-1.41-.41.12-.59,1.36-.58,3.68C149.81,31.32,149.93,31.8,150.7,32.09Z"/></g></g></svg>