<svg xmlns="http://www.w3.org/2000/svg" viewBox="0 0 213.93 68.8"><defs><style>.cls-1{fill:#7cb3d1;}.cls-2{fill:#c1272d;}.cls-3{fill:#fff;}</style></defs><title>nav-other_sp</title><g id="レイヤー_2" data-name="レイヤー 2"><g id="レイヤー_1-2" data-name="レイヤー 1"><path class="cls-1" d="M83.39,68.12a2.32,2.32,0,0,1-1.66.68H2.34A2.32,2.32,0,0,1,0,66.47V2.34A2.32,2.32,0,0,1,2.34,0H16.18a2.35,2.35,0,0,1,1.6.63l8.47,7.94h0a10.66,10.66,0,0,0,7.27,2.87h48.2a2.33,2.33,0,0,1,1.66.69,2.28,2.28,0,0,1,.68,1.65V66.47A2.31,2.31,0,0,1,83.39,68.12Z"/><rect class="cls-2" x="97.4" y="11.2" width="116.43" height="46.41" rx="5.65" ry="5.65" transform="translate(-0.2 0.93) rotate(-0.34)"/><path class="cls-3" d="M126.74,25.19c1.79,2.83,2.71,17.54,1.19,20.46-1.65,3.21-4.84,4.47-8.7,3.55-4.22-1-5.55-4.42-5.55-14.56-.05-8.19.83-10.27,4.74-11.6C121.14,22.14,125.48,23.24,126.74,25.19Zm-5.58,1a2.14,2.14,0,0,0-2.48.78c-.82,1-.94,1.67-.84,9.14.11,7.24.17,8.13.94,8.72a3.56,3.56,0,0,0,4,0c1-.55,1.18-1.08,1.46-3.45.39-4-.14-13.17-.85-14.18A4.22,4.22,0,0,0,121.16,26.17Z"/><path class="cls-3" d="M144.54,25.85l-2.38,0c0,7.83-.08,15.66-.1,23.49-1.36.07-2.72.19-4,.32-.21-5.34-.24-10.32-.27-16.67-.11-7.71.31-6.88-3.79-7-1.66,0-1.78-.16-1.78-1.35a3,3,0,0,1,.34-1.66c.36-.42,11.81-.49,13.29-.14.77.23,1.07.65,1.08,1.65C146.91,25.78,146.79,25.84,144.54,25.85Z"/><path class="cls-3" d="M155,33.86l5.58,0a69.33,69.33,0,0,0,.52-10.91l4.27,0c.12,8.72,0,17.38-.08,25.87l-2,.13c-2.25.19-2.19.31-2.33-3.91-.08-2.72-.09-5.39-.29-7.88-1.83.12-3.73.14-5.69.15l.07,11.8c-1.43,0-4.45.33-4.34-.8-.3-.71,0-23.2-.08-24,0-1.12.23-1.3,1.83-1.43a5.86,5.86,0,0,1,2.14,0C155,23.83,154.94,31.31,155,33.86Z"/><path class="cls-3" d="M179.82,25.17l-6,0-.28,2.2c-.57,4.39-.45,4.87,1.39,5.21a9.63,9.63,0,0,0,2.61,0c.65-.18.95-.06.95.47a12.25,12.25,0,0,0,.31,1.9c.3,1.07.19,1.07-2.37,1.08l-2.67,0,.06,8.72,6.16-.75,0,3.74a44.48,44.48,0,0,1-7.94.28c-2.32-.28-2.44-.28-2.68-1.94-.44-3.08-.41-18.39-.45-24.2,2.55-.13,7.06-.34,9.14-.47,1.78-.13,1.78-.13,1.79,1.77Z"/><path class="cls-3" d="M195.41,34l-1.3,1.37c1,3.08,3.45,11,3.52,12.38,0,.59-2.78.79-3.62.2a15.84,15.84,0,0,1-1.39-3.61c-1.51-5.51-2.53-7.64-3.6-7.75s-1,.12-1,5.94l-.08,6c-1,0-3.44.14-3.8-.16-.12-.11-.39-6.22-.56-13.46-.29-10-.25-13.17.22-13.29,1.07-.36,8.72.13,9.85.71,2.26,1.06,3.16,2.89,3.19,6.69C196.83,32.3,196.71,32.72,195.41,34ZM188,25.12a56.68,56.68,0,0,1-.19,6.76c-.06.42.65.59,1.84.58,2.49,0,3.84-1.74,3.36-4.23a5.46,5.46,0,0,0-1-2.42C191.26,25.1,189.54,25.05,188,25.12Z"/></g></g></svg>