<svg xmlns="http://www.w3.org/2000/svg" viewBox="0 0 164.37 68.8"><defs><style>.cls-1{fill:#7cb3d1;}.cls-2{fill:#fff;}</style></defs><title>nav-dtp_sp</title><g id="レイヤー_2" data-name="レイヤー 2"><g id="レイヤー_1-2" data-name="レイヤー 1"><path class="cls-1" d="M83.39,68.12a2.32,2.32,0,0,1-1.66.68H2.34A2.32,2.32,0,0,1,0,66.47V2.34A2.32,2.32,0,0,1,2.34,0H16.18a2.35,2.35,0,0,1,1.6.63l8.47,7.94h0a10.66,10.66,0,0,0,7.27,2.87h48.2a2.33,2.33,0,0,1,1.66.69,2.28,2.28,0,0,1,.68,1.65V66.47A2.31,2.31,0,0,1,83.39,68.12Z"/><rect class="cls-2" x="104.6" y="3.21" width="52.44" height="67.01" rx="5.65" ry="5.65" transform="translate(93.82 167.46) rotate(-89.88)"/><path d="M119,46.2a6.45,6.45,0,0,1-2.14,2.73c-1.07.47-9.85,1.4-10.44,1.1-.24-.12-.13-26,.11-26.69.18-.48,9,.37,10.2,1a6.33,6.33,0,0,1,2.37,2.32c.89,1.48,1,2.49,1,9.49S120,44.19,119,46.2ZM116,43c.6-2.38-.09-14.3-.8-15s-3.85-1.31-4.38-.72c-.54,1.84,0,15.19.07,19.28C113.84,46.85,115.38,45.66,116,43Z"/><path d="M136,27.14h-2.38c-.07,7.83-.21,15.66-.29,23.5-1.36,0-2.73.17-4,.28-.17-5.34-.16-10.32-.14-16.67,0-7.71.37-6.88-3.72-7.06-1.67-.07-1.78-.19-1.78-1.37a2.92,2.92,0,0,1,.36-1.66c.36-.42,11.8-.39,13.29,0,.77.24,1.06.65,1.06,1.66C138.38,27.09,138.26,27.14,136,27.14Z"/><path d="M142.12,50.17l-.18-26.28,2.25-.17c8.67-.58,11.21,1,11.2,6.78,0,6.11-2.92,8-8.74,8.17l0,11.81C145.15,50.35,143.66,50.23,142.12,50.17Zm4.56-23c0,1.9-.08,7.12.34,7.77a4.47,4.47,0,0,0,2.19-.23A3.17,3.17,0,0,0,151.47,33c.6-1.66.07-4.33-1.11-5.11A5.74,5.74,0,0,0,146.68,27.16Z"/></g></g></svg>