<svg xmlns="http://www.w3.org/2000/svg" viewBox="0 0 121.21 53.67"><defs><style>.cls-1{fill:none;stroke:#ff0;stroke-miterlimit:10;stroke-width:3px;}.cls-2{fill:#fff;}</style></defs><title>web-nav</title><g id="レイヤー_2" data-name="レイヤー 2"><g id="レイヤー_1-2" data-name="レイヤー 1"><polyline class="cls-1" points="0.94 1.17 63.94 52.17 121.21 52.17"/><rect x="66.55" y="8.4" width="49.83" height="37.13"/><path class="cls-2" d="M75.55,23.51a38.74,38.74,0,0,0,.67,4.28c-.25,1.93,2.35-8.11,2.18-8.32a2,2,0,0,1,1.47-1.68c.93,0,1.22.76,1.85,4.54,1.14,6.55,1.14,6.51,2,2.48,1.6-7.1,1.47-6.85,2.52-6.93a1.8,1.8,0,0,1,1.26.16c.29.3-.17,3.36-1.34,8.83-.68,3.06-1.18,6-1.6,8.65-.17,1-.25,1.09-1.3,1.09a3.25,3.25,0,0,1-1.18-.08c-.25-1.26-1.68-8.4-1.85-9.83-.25-2.4-.46-2.1-1.43,2.69-.58,2.94-1.09,4.87-1.51,7.26-.8-.08-1.59-.16-2.43-.21l-.72-4.53c-1.85-11.55-2.1-13.57-1.93-13.82s.67-.3,1.3-.3C74.83,17.79,74.79,17.67,75.55,23.51Z"/><path class="cls-2" d="M97.85,19.81H93.57l-.21,1.55c-.42,3.11-.34,3.45,1,3.7a6.89,6.89,0,0,0,1.85,0c.46-.12.67,0,.67.34a9.4,9.4,0,0,0,.21,1.34c.21.76.13.76-1.68.76H93.48v6.17l4.37-.5v2.65a31.9,31.9,0,0,1-5.63.16c-1.64-.21-1.72-.21-1.89-1.38-.29-2.19-.21-13-.21-17.14,1.81-.09,5-.21,6.47-.3,1.26-.08,1.26-.08,1.26,1.26Z"/><path class="cls-2" d="M100.79,36.28l-.21-6.14c-.3-7.81-.3-11.42,0-11.93a2.6,2.6,0,0,1,1.43-.5,13.25,13.25,0,0,1,6,.59c2.26,1.13,2.94,4.95,1.3,7.05l-.67.84.88,1a6.13,6.13,0,0,1,1.09,5c-.42,3.23-1.93,4.12-6.72,4.12Zm2.94-2.36c2.27.13,3.74-.08,4.12-2.06.21-1.13-.34-3.23-1-3.61-.89-.46-2.61-.75-2.86-.5A45,45,0,0,0,103.73,33.92Zm.63-8.57A2.6,2.6,0,0,0,107,21.07a3.06,3.06,0,0,0-2.86-1c-.3.09-.42,1-.42,2.6C103.73,24.81,103.81,25.14,104.36,25.35Z"/></g></g></svg>