<svg xmlns="http://www.w3.org/2000/svg" viewBox="0 0 179.65 68.8"><defs><style>.cls-1{fill:#7cb3d1;}.cls-2{fill:#fff;}.cls-3{fill:#231815;}</style></defs><title>nav-movie_sp</title><g id="レイヤー_2" data-name="レイヤー 2"><g id="レイヤー_1-2" data-name="レイヤー 1"><path class="cls-1" d="M83.39,68.12a2.32,2.32,0,0,1-1.66.68H2.34A2.32,2.32,0,0,1,0,66.47V2.34A2.32,2.32,0,0,1,2.34,0H16.18a2.35,2.35,0,0,1,1.6.63l8.47,7.94h0a10.66,10.66,0,0,0,7.27,2.87h48.2a2.33,2.33,0,0,1,1.66.69,2.28,2.28,0,0,1,.68,1.65V66.47A2.31,2.31,0,0,1,83.39,68.12Z"/><rect class="cls-2" x="115.25" y="-5.02" width="46.41" height="82.35" rx="5.65" ry="5.65" transform="translate(102.16 174.58) rotate(-89.94)"/><path class="cls-3" d="M107.87,44.06c-.78-3.84-1.64-6.56-2.38-9.68l-.39,14c-1.22-.13-2.49-.25-3.77-.32.21-7.88.39-18.19,1.07-24.17l4.22,0c.72,4.39,2.82,14.34,3.35,15.9.33.78.73-.6,2.13-6.57,1-4.21,2-8.13,2.22-8.68.34-.94.68-1,2.06-.87l1.66.13c.36,7.44.47,16.21.31,24.69-1-.12-2.16-.25-3.26-.32l0-5.54c-.06-8.71-.06-8.77-1.8-2-.82,3.43-1.69,6.58-1.81,7-.12.56-.62.77-1.39.76C108.82,48.4,108.76,48.34,107.87,44.06Z"/><path class="cls-3" d="M134.26,26.69c1.63,2.68,2.24,16.44.76,19.14-1.59,3-4.6,4.11-8.19,3.18-3.92-1-5.11-4.23-4.94-13.71.1-7.65,1-9.58,4.63-10.76C129.08,23.74,133.11,24.84,134.26,26.69Zm-5.23.82a2,2,0,0,0-2.33.7c-.79.87-.91,1.54-.94,8.52,0,6.77,0,7.6.73,8.17a3.31,3.31,0,0,0,3.77.1c1-.49,1.12-1,1.43-3.2.43-3.77.09-12.31-.56-13.26A3.92,3.92,0,0,0,129,27.51Z"/><path class="cls-3" d="M143.2,25.19c1.12,3.73,2.08,11.06,3.15,15,.93-3.48,3.55-14.43,4.56-15.36a2.33,2.33,0,0,1,1.78-.15c1.44.35,1.54,1.19.5,4.45-1.33,4.42-4,14.37-4.59,17.13s-.59,2.83-2.2,2.92c-2.05.14-1.94.53-4.41-11.37-1-5.12-2.09-9.9-2.36-10.68a4.39,4.39,0,0,1-.2-2.11C139.78,24,142.66,24.18,143.2,25.19Z"/><path class="cls-3" d="M156.94,49c.07-5.49.16-22.29.63-24.56.45-.38,2.55-.08,3.44,0,0,8.2,0,16.41-.08,24.62Z"/><path class="cls-3" d="M174.73,27.46l-5.66-.07-.3,2.05c-.61,4.09-.5,4.54,1.21,4.89a9.51,9.51,0,0,0,2.44.09c.61-.16.89-.05.88.45a13.19,13.19,0,0,0,.26,1.78c.27,1,.15,1-2.23,1l-2.49,0-.1,8.15,5.77-.59,0,3.49a40.93,40.93,0,0,1-7.44.13c-2.15-.3-2.26-.3-2.47-1.86-.35-2.89-.07-17.19,0-22.63,2.38-.08,6.6-.2,8.54-.28,1.67-.09,1.67-.09,1.65,1.68Z"/></g></g></svg>