<svg xmlns="http://www.w3.org/2000/svg" viewBox="0 0 100.69 49.49"><defs><style>.cls-1{fill:#fff;}.cls-2{fill:none;stroke:#ff0;stroke-miterlimit:10;stroke-width:3px;}</style></defs><title>logo-nav</title><g id="レイヤー_2" data-name="レイヤー 2"><g id="レイヤー_1-2" data-name="レイヤー 1"><rect x="5.01" y="8.44" width="58.31" height="32.87"/><path class="cls-1" d="M18.59,33.29l-3.91.13c-3.91.08-3.95.08-4.24-.76-.46-1.3-.21-13.52.17-18.19.92.09,1.8.17,2.77.21.08,3.24,0,15.8.59,16.05s3.61,0,4.62-.17Z"/><path class="cls-1" d="M30.39,16.66c1.26,2,1.85,12.43.76,14.49C30,33.42,27.7,34.3,25,33.63c-3-.76-3.91-3.15-3.86-10.34,0-5.79.63-7.26,3.4-8.19C26.44,14.47,29.51,15.27,30.39,16.66Zm-3.95.67a1.51,1.51,0,0,0-1.76.55c-.59.67-.68,1.17-.63,6.46,0,5.13.08,5.76.63,6.18a2.49,2.49,0,0,0,2.85,0c.72-.38.84-.75,1-2.43.3-2.86,0-9.33-.54-10A2.93,2.93,0,0,0,26.44,17.33Z"/><path class="cls-1" d="M42,19.72a2.59,2.59,0,0,0-.84-2c-1-1-1.51-1.05-2.56-.21-.76.59-.8.84-.88,5.67-.13,6,.21,7.69,1.51,8,1.59.38,2.77-1.05,2.77-3.48,0-1.35,0-1.43-1-1.52S39.8,26,39.71,25l-.12-1.1H45v9.75c-.92,0-2,0-2.26-.55s-.38-.54-1.14,0c-2,1.39-5.25.21-6.51-2.31-.8-1.68-1.17-8.94-.54-11.51.54-2.26,1.84-4,3.15-4.41,3.73-1.09,6.51.63,6.88,4.12l.21,1.89H43.37C42,20.9,42,20.86,42,19.72Z"/><path class="cls-1" d="M56.81,16.66c1.26,2,1.85,12.43.75,14.49-1.17,2.27-3.44,3.15-6.17,2.48-3-.76-3.91-3.15-3.87-10.34,0-5.79.63-7.26,3.41-8.19C52.86,14.47,55.92,15.27,56.81,16.66Zm-4,.67a1.52,1.52,0,0,0-1.77.55c-.58.67-.67,1.17-.63,6.46,0,5.13.09,5.76.63,6.18a2.51,2.51,0,0,0,2.86,0c.71-.38.84-.75,1-2.43.29-2.86,0-9.33-.55-10A2.89,2.89,0,0,0,52.86,17.33Z"/><polyline class="cls-2" points="99.45 0.85 67.19 47.99 0 47.99"/></g></g></svg>