<svg xmlns="http://www.w3.org/2000/svg" viewBox="0 0 134.99 53.67"><defs><style>.cls-1{fill:#fff;}.cls-2{fill:none;stroke:#ff0;stroke-miterlimit:10;stroke-width:3px;}</style></defs><title>movie-nav</title><g id="レイヤー_2" data-name="レイヤー 2"><g id="レイヤー_1-2" data-name="レイヤー 1"><rect x="64.11" y="13.07" width="65.21" height="32.87"/><path class="cls-1" d="M73.93,35.9c-.63-2.9-1.3-5-1.89-7.31l-.17,10.62C71,39.13,70,39.05,69,39c.08-6,.12-13.77.58-18.31h3.2c.58,3.32,2.26,10.84,2.68,12,.26.59.55-.46,1.56-5,.71-3.19,1.43-6.17,1.6-6.59.25-.72.5-.76,1.55-.67l1.26.08c.34,5.63.5,12.27.46,18.69-.8-.08-1.64-.16-2.48-.21l-.08-4.2c-.13-6.59-.13-6.63-1.39-1.51-.58,2.61-1.22,5-1.3,5.29s-.46.59-1,.59C74.69,39.17,74.64,39.13,73.93,35.9Z"/><path class="cls-1" d="M93.76,22.49c1.26,2,1.84,12.44.75,14.5-1.17,2.27-3.44,3.15-6.17,2.48-3-.76-3.91-3.15-3.87-10.34,0-5.79.63-7.27,3.4-8.19C89.81,20.31,92.87,21.11,93.76,22.49Zm-4,.68a1.53,1.53,0,0,0-1.77.54c-.59.68-.67,1.18-.63,6.47,0,5.13.09,5.76.63,6.18a2.51,2.51,0,0,0,2.86,0c.71-.38.84-.76,1-2.44.29-2.85,0-9.32-.55-10A3,3,0,0,0,89.81,23.17Z"/><path class="cls-1" d="M100.52,21.28c.88,2.81,1.68,8.36,2.52,11.34.67-2.65,2.56-11,3.31-11.68a1.81,1.81,0,0,1,1.35-.13c1.09.26,1.18.89.42,3.37-1,3.36-2.9,10.92-3.32,13s-.42,2.14-1.64,2.22c-1.55.13-1.47.42-3.44-8.56C98.88,27,98,23.38,97.83,22.79a3.24,3.24,0,0,1-.17-1.6C97.91,20.44,100.1,20.52,100.52,21.28Z"/><path class="cls-1" d="M111.14,39.17c0-4.16-.08-16.89.25-18.61.34-.29,1.93-.08,2.61,0,0,6.22.12,12.43.17,18.65Z"/><path class="cls-1" d="M124.41,22.7h-4.28l-.21,1.56c-.42,3.11-.34,3.44,1,3.7a7.26,7.26,0,0,0,1.84,0c.47-.13.68,0,.68.33a8.11,8.11,0,0,0,.21,1.35c.21.75.12.75-1.69.75h-1.88v6.18l4.36-.5v2.64a30.9,30.9,0,0,1-5.63.17c-1.63-.21-1.72-.21-1.89-1.39-.29-2.18-.21-13-.21-17.14,1.81-.08,5-.21,6.47-.29,1.26-.08,1.26-.08,1.26,1.26Z"/><polyline class="cls-2" points="0.94 1.17 63.94 52.17 134.99 52.17"/></g></g></svg>