<svg xmlns="http://www.w3.org/2000/svg" viewBox="0 0 179.91 68.8"><defs><style>.cls-1{fill:#7cb3d1;}.cls-2{fill:#fff;}</style></defs><title>nav-logo_sp</title><g id="レイヤー_2" data-name="レイヤー 2"><g id="レイヤー_1-2" data-name="レイヤー 1"><path class="cls-1" d="M83.39,68.12a2.32,2.32,0,0,1-1.66.68H2.34A2.32,2.32,0,0,1,0,66.47V2.34A2.32,2.32,0,0,1,2.34,0H16.18a2.35,2.35,0,0,1,1.6.63l8.47,7.94h0a10.66,10.66,0,0,0,7.27,2.87h48.2a2.33,2.33,0,0,1,1.66.69,2.28,2.28,0,0,1,.68,1.65V66.47A2.31,2.31,0,0,1,83.39,68.12Z"/><rect class="cls-2" x="115.4" y="-3.22" width="46.41" height="82.35" rx="5.65" ry="5.65" transform="translate(99.62 176.28) rotate(-89.58)"/><path d="M116.94,50.3l-5.52.14c-5.52.07-5.58.07-6-1.12-.64-1.84-.16-19.1.42-25.68,1.31.13,2.55.26,3.92.32.08,4.57-.17,22.31.66,22.67,1,.48,5.1,0,6.53-.19Z"/><path d="M133.78,26.93c1.76,2.86,2.48,17.58.91,20.47-1.68,3.19-4.89,4.42-8.74,3.44-4.21-1.1-5.49-4.49-5.35-14.63.06-8.19,1-10.26,4.89-11.54C128.22,23.8,132.55,25,133.78,26.93Zm-5.59.91a2.13,2.13,0,0,0-2.49.75c-.84.94-1,1.65-1,9.13,0,7.24.06,8.13.83,8.73a3.57,3.57,0,0,0,4,.09c1-.53,1.19-1.06,1.51-3.43.44-4,0-13.17-.67-14.19A4.17,4.17,0,0,0,128.19,27.84Z"/><path d="M150.11,31.38A3.69,3.69,0,0,0,149,28.52c-1.35-1.37-2.13-1.49-3.62-.32-1.07.82-1.13,1.18-1.3,8-.24,8.42.21,10.86,2.05,11.35,2.25.55,3.93-1.46,3.95-4.9,0-1.9,0-2-1.47-2.15s-1.59-.3-1.7-1.67l-.17-1.54,7.65.05-.1,13.77c-1.31,0-2.79,0-3.2-.8s-.53-.77-1.6,0c-2.8,1.94-7.42.24-9.17-3.33-1.11-2.38-1.57-12.65-.65-16.26.79-3.2,2.65-5.62,4.49-6.2,5.29-1.5,9.19,1,9.69,5.89l.28,2.67h-2C150.16,33,150.1,33,150.11,31.38Z"/><path d="M171.08,27.2c1.76,2.86,2.48,17.58.92,20.48-1.68,3.19-4.9,4.41-8.75,3.43-4.2-1.1-5.48-4.49-5.35-14.63.06-8.19,1-10.26,4.89-11.53C165.53,24.08,169.85,25.24,171.08,27.2Zm-5.58.91a2.16,2.16,0,0,0-2.5.75c-.83.95-1,1.66-.95,9.13,0,7.24,0,8.13.82,8.73a3.54,3.54,0,0,0,4,.09c1-.53,1.2-1.06,1.51-3.43.45-4,0-13.17-.66-14.18A4.28,4.28,0,0,0,165.5,28.11Z"/></g></g></svg>