<svg xmlns="http://www.w3.org/2000/svg" viewBox="0 0 82.64 33.36"><defs><style>.cls-1{fill:#c1272d;}.cls-2{fill:#fff;}</style></defs><title>other-nav</title><g id="レイヤー_2" data-name="レイヤー 2"><g id="レイヤー_1-2" data-name="レイヤー 1"><rect class="cls-1" x="0.1" y="0.25" width="82.45" height="32.87" transform="translate(-0.1 0.25) rotate(-0.34)"/><path class="cls-2" d="M20.87,10.15c1.27,2,1.93,12.43.85,14.49-1.17,2.28-3.43,3.17-6.16,2.52-3-.74-3.93-3.13-3.93-10.31,0-5.8.59-7.28,3.35-8.22C16.91,8,20,8.77,20.87,10.15Zm-3.94.7a1.52,1.52,0,0,0-1.76.55c-.59.68-.67,1.18-.59,6.48.07,5.12.12,5.75.66,6.17a2.51,2.51,0,0,0,2.86,0c.71-.38.84-.76,1-2.44.27-2.86-.1-9.32-.61-10A3,3,0,0,0,16.93,10.85Z"/><path class="cls-2" d="M33.48,10.62H31.8c0,5.55-.06,11.09-.07,16.64-1,.05-1.93.14-2.86.23-.15-3.78-.17-7.31-.19-11.81-.08-5.46.22-4.87-2.68-5-1.18,0-1.26-.12-1.27-1A2.1,2.1,0,0,1,25,8.57c.25-.29,8.36-.34,9.41-.09.54.16.76.45.76,1.17C35.16,10.57,35.07,10.61,33.48,10.62Z"/><path class="cls-2" d="M40.86,16.29l4,0a49.45,49.45,0,0,0,.37-7.73l3,0c.07,6.17,0,12.31-.06,18.32l-1.39.09c-1.6.13-1.55.22-1.65-2.77-.06-1.93-.07-3.82-.21-5.58-1.3.09-2.64.1-4,.11l.05,8.36c-1,0-3.15.23-3.07-.57-.21-.51,0-16.43-.06-17,0-.8.17-.93,1.3-1a4.31,4.31,0,0,1,1.51,0C40.9,9.19,40.85,14.49,40.86,16.29Z"/><path class="cls-2" d="M58.46,10.14l-4.28,0L54,11.72c-.4,3.11-.32,3.45,1,3.69a6.76,6.76,0,0,0,1.84,0c.47-.13.67,0,.68.33a8.2,8.2,0,0,0,.22,1.35c.21.75.13.75-1.68.76H54.14l0,6.18,4.36-.53,0,2.65a31.86,31.86,0,0,1-5.63.2c-1.64-.2-1.72-.2-1.9-1.38-.31-2.18-.29-13-.31-17.14,1.8-.09,5-.24,6.47-.33,1.26-.09,1.26-.09,1.26,1.25Z"/><path class="cls-2" d="M69.5,16.42l-.92,1a89.56,89.56,0,0,1,2.49,8.76c0,.42-2,.56-2.56.14a11.28,11.28,0,0,1-1-2.55c-1.07-3.9-1.8-5.41-2.55-5.49s-.67.09-.73,4.2l-.06,4.29a12.6,12.6,0,0,1-2.69-.11c-.09-.08-.28-4.41-.39-9.53-.22-7.1-.19-9.33.15-9.41a24.58,24.58,0,0,1,7,.5c1.61.75,2.25,2.05,2.26,4.73C70.5,15.19,70.42,15.49,69.5,16.42ZM64.26,10.1a39.92,39.92,0,0,1-.14,4.79c0,.3.46.42,1.3.42a2.3,2.3,0,0,0,2.38-3,3.83,3.83,0,0,0-.73-1.72C66.57,10.09,65.35,10.06,64.26,10.1Z"/></g></g></svg>