<svg xmlns="http://www.w3.org/2000/svg" viewBox="0 0 117.12 94.66"><defs><style>.cls-1{fill:none;stroke:#ff0;stroke-miterlimit:10;stroke-width:3px;}.cls-2{fill:#fff;}</style></defs><title>dtp-nav</title><g id="レイヤー_2" data-name="レイヤー 2"><g id="レイヤー_1-2" data-name="レイヤー 1"><polyline class="cls-1" points="0.94 93.49 63.94 42.49 117.11 42.49"/><rect x="65.81" width="47.45" height="37.13"/><path class="cls-2" d="M81.18,25.3a4.46,4.46,0,0,1-1.51,1.93,36.14,36.14,0,0,1-7.39.8c-.17-.08-.13-18.44,0-18.9s6.38.25,7.22.67a4.39,4.39,0,0,1,1.68,1.64c.63,1.05.72,1.76.72,6.72S81.85,23.87,81.18,25.3ZM79.08,23c.42-1.68-.08-10.12-.59-10.63s-2.73-.92-3.1-.5c-.38,1.3,0,10.75.08,13.65A2.94,2.94,0,0,0,79.08,23Z"/><path class="cls-2" d="M93.19,11.77H91.51c0,5.55-.12,11.09-.16,16.64-1,0-1.94.13-2.86.21-.13-3.78-.13-7.31-.13-11.8,0-5.47.26-4.88-2.64-5-1.18-.05-1.26-.13-1.26-1a2.08,2.08,0,0,1,.25-1.18c.25-.29,8.36-.29,9.41,0,.54.17.75.46.75,1.18C94.87,11.73,94.79,11.77,93.19,11.77Z"/><path class="cls-2" d="M97.56,28.07,97.39,9.46,99,9.34c6.13-.42,7.94.71,7.94,4.79,0,4.32-2.06,5.67-6.18,5.79v8.36C99.7,28.2,98.65,28.11,97.56,28.07Zm3.19-16.3c0,1.35,0,5.05.25,5.51a3.33,3.33,0,0,0,1.56-.17,2.27,2.27,0,0,0,1.6-1.22c.42-1.18,0-3.07-.8-3.61A4.07,4.07,0,0,0,100.75,11.77Z"/></g></g></svg>