<svg xmlns="http://www.w3.org/2000/svg" viewBox="0 0 244.16 81.45"><defs><style>.cls-1{fill:#c1272d;}</style></defs><title>other_1</title><g id="レイヤー_2" data-name="レイヤー 2"><g id="レイヤー_1-2" data-name="レイヤー 1"><path class="cls-1" d="M38.17,10c5.18,8.28,7.59,51.11,3.1,59.57-4.83,9.32-14.16,12.95-25.38,10.18C3.63,76.62-.17,66.77,0,37.25,0,13.42,2.6,7.38,14,3.58,21.94,1,34.54,4.27,38.17,10ZM21.94,12.73c-3.63-.69-5.19-.17-7.26,2.24-2.41,2.77-2.76,4.84-2.59,26.59.18,21.07.35,23.66,2.59,25.39,3.11,2.41,7.26,2.59,11.74.17,2.94-1.55,3.46-3.11,4.32-10C32,45.36,30.57,18.77,28.5,15.84A12.26,12.26,0,0,0,21.94,12.73Z"/><path class="cls-1" d="M90,12.21H83.06c-.17,22.79-.52,45.59-.69,68.38-4,.17-7.94.52-11.74.86-.52-15.54-.52-30-.52-48.52-.17-22.45,1-20-10.88-20.55-4.83-.17-5.18-.51-5.18-4,0-2.24.52-4.49,1-4.83,1-1.21,34.36-1.21,38.67-.17C96,4.1,96.87,5.3,96.87,8.24,96.87,12,96.53,12.21,90,12.21Z"/><path class="cls-1" d="M120.18,35.69h16.23a201.83,201.83,0,0,0,1.73-31.77h12.43c.18,25.39-.17,50.59-.69,75.29l-5.7.34c-6.56.52-6.38.87-6.73-11.39-.17-7.95-.17-15.72-.69-23-5.35.35-10.88.35-16.58.35V79.9c-4.14-.18-13,.86-12.6-2.42-.86-2.07.34-67.51.17-69.76,0-3.28.69-3.8,5.35-4.14,2.77-.35,5.53-.35,6.22,0C120.53,6.51,120.18,28.27,120.18,35.69Z"/><path class="cls-1" d="M192.7,10.83H175.09l-.86,6.39c-1.73,12.78-1.38,14.16,4,15.19a28.77,28.77,0,0,0,7.6.18c1.9-.52,2.76-.18,2.76,1.38a36.64,36.64,0,0,0,.86,5.52c.87,3.11.52,3.11-6.9,3.11h-7.77V68l17.95-2.07V76.79c-6.73.52-16,1.55-23.13.69-6.74-.86-7.08-.86-7.77-5.7-1.21-9-.87-53.53-.87-70.45C168.36,1,181.48.47,187.52.12c5.18-.34,5.18-.34,5.18,5.18Z"/><path class="cls-1" d="M237.94,36.9l-3.8,4c2.77,9,9.85,31.95,10,36.09,0,1.73-8.12,2.25-10.54.52-.69-.52-2.41-5.35-4-10.53-4.31-16.06-7.25-22.28-10.36-22.62-2.76-.35-2.76.34-3.1,17.26l-.35,17.62c-2.94-.18-10,.34-11.05-.52-.35-.35-1-18.13-1.38-39.2-.69-29.18-.52-38.33.86-38.67,3.11-1,25.38.51,28.66,2.24,6.57,3.11,9.16,8.46,9.16,19.51C242.09,31.9,241.74,33.1,237.94,36.9ZM216.53,10.83c.17,5.18-.17,17.27-.69,19.68-.17,1.21,1.9,1.73,5.35,1.73,7.25,0,11.23-5,9.84-12.26-.51-2.59-1.72-6-2.93-7.08C226,10.83,221,10.66,216.53,10.83Z"/></g></g></svg>