<svg xmlns="http://www.w3.org/2000/svg" viewBox="0 0 254.11 79.59"><defs><style>.cls-1{fill:#231815;}</style></defs><title>photo</title><g id="レイヤー_2" data-name="レイヤー 2"><g id="レイヤー_1-2" data-name="レイヤー 1"><path class="cls-1" d="M.69,77.35,0,.86,6.56.34C31.77-1.39,39.2,3.27,39.2,20c0,17.79-8.46,23.31-25.39,23.83V78.21C9.5,77.87,5.18,77.52.69,77.35Zm13.12-67c0,5.53-.17,20.72,1,22.62.69.35,3.63.17,6.39-.69,3.45-1,5.52-2.59,6.56-5,1.73-4.83.17-12.6-3.28-14.85C21.58,10.52,18.13,10,13.81,10.35Z"/><path class="cls-1" d="M62.5,33.83H78.74A201.9,201.9,0,0,0,80.46,2.06H92.89c.18,25.39-.17,50.6-.69,75.29l-5.69.34c-6.57.52-6.39.87-6.74-11.39-.17-7.95-.17-15.72-.69-23-5.35.35-10.88.35-16.58.35V78c-4.14-.17-13,.86-12.6-2.42-.86-2.07.35-67.51.17-69.76,0-3.28.69-3.8,5.36-4.14,2.76-.35,5.52-.35,6.21,0C62.85,4.65,62.5,26.41,62.5,33.83Z"/><path class="cls-1" d="M141.41,8.11c5.18,8.29,7.6,51.11,3.11,59.57-4.83,9.32-14.16,12.95-25.38,10.19-12.26-3.11-16.06-13-15.89-42.48,0-23.83,2.59-29.87,14-33.67C125.18-.87,137.79,2.41,141.41,8.11Zm-16.23,2.76c-3.62-.69-5.18-.17-7.25,2.24-2.42,2.77-2.76,4.84-2.59,26.6.17,21.06.35,23.65,2.59,25.38,3.11,2.42,7.25,2.59,11.74.17,2.94-1.55,3.46-3.11,4.32-10,1.21-11.75-.17-38.34-2.25-41.27A12.29,12.29,0,0,0,125.18,10.87Z"/><path class="cls-1" d="M193.21,10.35h-6.9c-.18,22.79-.52,45.59-.69,68.38-4,.17-8,.52-11.74.86-.52-15.54-.52-30-.52-48.52-.18-22.44,1-20-10.88-20.55-4.84-.17-5.18-.51-5.18-4,0-2.24.52-4.49,1-4.83C159.37.51,192.7.51,197,1.55c2.25.69,3.11,1.9,3.11,4.83C200.12,10.18,199.78,10.35,193.21,10.35Z"/><path class="cls-1" d="M248.64,8.11c5.18,8.29,7.6,51.11,3.11,59.57-4.83,9.32-14.16,12.95-25.38,10.19-12.26-3.11-16.06-13-15.89-42.48,0-23.83,2.59-29.87,14-33.67C232.41-.87,245,2.41,248.64,8.11Zm-16.23,2.76c-3.62-.69-5.18-.17-7.25,2.24-2.42,2.77-2.76,4.84-2.59,26.6.17,21.06.34,23.65,2.59,25.38,3.11,2.42,7.25,2.59,11.74.17,2.94-1.55,3.45-3.11,4.32-10C242.43,43.5,241,16.91,239,14A12.29,12.29,0,0,0,232.41,10.87Z"/></g></g></svg>