<svg xmlns="http://www.w3.org/2000/svg" viewBox="0 0 158.57 80.07"><defs><style>.cls-1{fill:#231815;}</style></defs><title>web</title><g id="レイヤー_2" data-name="レイヤー 2"><g id="レイヤー_1-2" data-name="レイヤー 1"><path class="cls-1" d="M13.82,26c1.21,9.5,2.42,17.27,2.76,17.62-1,7.94,9.67-33.33,9-34.19,0-2.94,3.63-6.91,6-6.91,3.8.17,5,3.11,7.6,18.65C43.86,48.13,43.86,48,47.49,31.38c6.56-29.18,6-28.15,10.36-28.49,2.25-.35,4.49,0,5.18.69,1.21,1.21-.69,13.81-5.52,36.26-2.77,12.6-4.84,24.52-6.57,35.57-.69,4.14-1,4.49-5.35,4.49-2.59,0-4.83,0-4.83-.35-1-5.18-6.91-34.53-7.6-40.4-1-9.84-1.9-8.64-5.87,11.05-2.42,12.08-4.49,20-6.22,29.87-3.28-.35-6.56-.69-10-.86L8.12,60.56C.52,13.07-.51,4.79.18,3.75c.34-.69,2.76-1.21,5.35-1.21C10.89,2.54,10.71,2,13.82,26Z"/><path class="cls-1" d="M105.51,10.83H87.89L87,17.22C85.31,30,85.65,31.38,91,32.41a28.77,28.77,0,0,0,7.6.18c1.9-.52,2.76-.18,2.76,1.38a35.51,35.51,0,0,0,.87,5.52c.86,3.11.51,3.11-6.91,3.11H87.55V68l18-2.07V76.79c-6.74.52-16.06,1.55-23.14.69-6.73-.86-7.08-.86-7.77-5.7-1.21-9-.86-53.53-.86-70.45C81.16,1,94.28.47,100.33.12c5.18-.34,5.18-.34,5.18,5.18Z"/><path class="cls-1" d="M117.59,78.52l-.86-25.21c-1.21-32.12-1.21-47,.17-49,.52-.86,3.28-1.73,5.87-2.07,8.29-1,20,0,24.69,2.41,9.33,4.67,12.09,20.38,5.36,29l-2.77,3.46,3.63,4.14c4.14,5,5.7,11.74,4.49,20.37-1.73,13.3-7.94,16.93-27.63,16.93Zm12.09-9.67c9.32.51,15.37-.35,16.92-8.46.86-4.67-1.38-13.3-4.32-14.85-3.62-1.9-10.7-3.11-11.74-2.08C129.51,45.88,129.68,62.8,129.68,68.85Zm2.59-35.23c10.53,3.28,18.3-9.49,10.88-17.61-3.11-3.45-8.64-5.35-11.74-4.14-1.21.34-1.73,4-1.73,10.7C129.68,31.38,130,32.76,132.27,33.62Z"/></g></g></svg>