<?xml version="1.0" encoding="utf-8"?>
<!-- Generator: Adobe Illustrator 19.2.0, SVG Export Plug-In . SVG Version: 6.00 Build 0)  -->
<svg version="1.1" id="レイヤー_1" xmlns="http://www.w3.org/2000/svg" xmlns:xlink="http://www.w3.org/1999/xlink" x="0px"
	 y="0px" viewBox="0 0 850.4 850.4" style="enable-background:new 0 0 850.4 850.4;" xml:space="preserve">
<style type="text/css">
	.st0{fill:none;stroke:#F39800;stroke-width:15;stroke-linecap:round;stroke-linejoin:round;stroke-miterlimit:10;}
	.st1{fill:#F39800;}
</style>
<g>
	<g>
		<polyline class="st0" points="59.6,789.4 62.5,698.3 59.6,607.3 62.5,516.2 59.6,425.2 62.5,334.2 59.6,243.1 62.5,152.1 60,60 
			152.1,62.5 243.1,59.6 334.1,62.5 425.2,59.6 516.2,62.5 607.3,59.6 698.3,62.5 790.4,60 787.9,152.1 790.8,243.1 787.9,334.1 
			790.8,425.2 787.9,516.2 790.8,607.3 787.9,698.3 790.5,790.2 717.4,787.9 645.5,790.8 573.6,787.9 501.7,790.8 429.8,787.9 
			357.9,790.8 285.9,787.9 213.5,790.7 215.4,760.9 212.6,732.4 215.4,703.9 212.6,675.5 215.4,647 212.6,618.5 215.4,590 
			213.2,560.4 258.2,563 302.5,560.2 346.7,563 391,560.2 435.2,563 479.4,560.2 523.7,563 567.9,560.2 		"/>
	</g>
	<g>
		<g>
			<g>
				<path class="st1" d="M247.9,561.1l42.9-103.8l37.6-105.7L371.2,248l13.7-2.1l14.9,2.8l16.2-2.1l40.3,105.9l45.5,103.6L542,561.7
					l-14.4,1.1l-15.8-2.8l-16.8,2.4l-9.8-33.1l-14.9-30.7L459.9,465l-44.5,2.7l-43.8-2.8l-43.1,2.6l-13.5,30l-8.8,32.7l-13.9,30.3
					l-13.6,2.3L264,560L247.9,561.1z M341,431.6l34.4,2.3l35.5-2.8l36.6,2.3L434.2,404l-8.3-30l-13.6-28l-5.3-22.5l-10.2-20.8
					l-5.5-23.8l-3.1,22l-8.4,19.2l-4,20.6l-14.2,29.7l-8.8,31.7L341,431.6z"/>
			</g>
			<g>
				<path class="st1" d="M534.4,311.1l2.5-15.1l-2.8-14.2l2.5-13.3l11.3-2.3l12.3,2.8l13.4-2.3l-2.5,15.1l2.8,14.2l-2.5,13.3
					l-11.3,2.3l-12.4-2.8L534.4,311.1z M534.1,569.4l2.8-73.1l-2.8-72.8l2.8-72.6l10.9-1.7l12.3,2.8l13.7-1.7l-2.8,73.1l2.8,72.8
					l-2.8,72.6l-10.9,1.7l-12.4-2.8L534.1,569.4z"/>
			</g>
		</g>
	</g>
</g>
</svg>
