<?xml version="1.0" encoding="utf-8"?>
<!-- Generator: Adobe Illustrator 19.2.0, SVG Export Plug-In . SVG Version: 6.00 Build 0)  -->
<svg version="1.1" id="レイヤー_1" xmlns="http://www.w3.org/2000/svg" xmlns:xlink="http://www.w3.org/1999/xlink" x="0px"
	 y="0px" viewBox="0 0 850.4 850.4" style="enable-background:new 0 0 850.4 850.4;" xml:space="preserve">
<style type="text/css">
	.st0{fill:#1C287D;}
</style>
<g>
	<g>
		<polygon class="st0" points="425.2,405.4 401.9,410.6 385.9,428.3 378.8,451.1 385.9,473.9 401.9,491.6 425.2,496.8 448.5,491.6 
			464.5,473.9 471.6,451.1 464.5,428.3 448.5,410.6 		"/>
	</g>
	<g>
		<path class="st0" d="M639.4,322.7l-8.5-8l-11.2-3.5l-11.4-2.6l-16.1,1.1l-16.1-1.1l-16.1,1.1l-3.6-1.8l-3.8-1.2l-1.3-3.8
			l-5.8-10.3l-3.8-11.2L536,271l-8.8-14.6l-14.8-8.3l-16.5-4.3l-47.1,1.1l-47.1-1.1l-47.1,1.1l-16.9,2.2l-13.6,10.2l-10.7,13.3
			l1.1,0.2l-1.1,0l1.1,0.2l-5.8,10.3l-3.8,11.2l-5.8,10.3l-1.3,3.8l-3.8,1.2l-3.6,1.8l-16.1-1.1l-16.1,1.1l-16.1-1.1l-11.4,2.7
			l-11.2,3.5l-8.5,8l-7.9,8.6l-3.4,11.2l-2.6,11.4l1.1,69.1l-1.1,69.1l1.1,69.1l0.4,11.7l5.5,10.3l6.2,9.9l9.9,6.2l10.3,5.5
			l11.7,0.4l66.9,1.1l66.9-1.1l66.9,1.1l55.1-1.1l55.1,1.1l55.1-1.1L620,605l10.3-5.5l9.9-6.2l6.2-9.9l5.5-10.3l0.4-11.7l1.1-69.1
			l-1.1-69.1l1.1-69.1l-2.6-11.4l-3.4-11.2L639.4,322.7z M618.9,561.3l-1.5,2.5l0,2.9l-2.5,1.5l-1.4,2.5l-2.9,0l-2.5,1.5l-55.1-1.1
			l-55.1,1.1l-55.1-1.1l-66.9,1.1l-66.9-1.1l-66.9,1.1l-2.5-1.5l-2.9,0l-1.4-2.5l-2.5-1.5l0-2.9l-1.5-2.5l1.1-69.1l-1.1-69.1
			l1.1-69.1l-0.8-2.8l2.1-2.1l0.7-2.8l2.8-0.7l2-2.1l2.8,0.8l16.1-1.1l16.1,1.1l16.1-1.1l16.9-2.2l13.6-10.2l10.6-13.3l3.8-11.2
			l5.8-10.3l3.8-11.2l3.1-2.5l2.6-3.1l4,0.3l47.1-1.1l47.1,1.1l47.1-1.1l3.6,1.8l3.8,1.2l1.3,3.8l5.8,10.3l3.8,11.2l5.8,10.3
			l8.8,14.6l14.8,8.3l16.4,4.3l16.1-1.1l16.1,1.1l16.1-1.1l2.5,1.5l2.9,0l1.4,2.5l2.5,1.5l0,2.9l1.5,2.5l-1.1,69.1l1.1,69.1
			l-1.1,69.1l0.6,0.6h0L618.9,561.3z"/>
	</g>
	<g>
		<path class="st0" d="M425.2,350.1l-26.3,2.3L375,363.7L353.5,379l-15.1,21.7l-11.1,24l-2.3,26.4l2.3,26.4l11.1,24l15.1,21.7
			l21.5,15.3l23.9,11.2l26.3,2.3l26.3-2.3l23.9-11.2l21.5-15.3l15.1-21.7l11.1-24l2.3-26.4l-2.3-26.4l-11.1-24L496.9,379l-21.5-15.3
			l-23.9-11.2L425.2,350.1z M478.1,504.6l-16,11l-17.5,8.5l-19.4,1.4l-19.4-1.4l-17.5-8.5l-16-11l-11-16.3l-8.5-17.7l-1.4-19.6
			l1.4-19.6l8.5-17.7l11-16.3l16-11l17.5-8.5l19.4-1.4l19.4,1.4l17.5,8.5l16,11l11,16.3l8.5,17.7l1.4,19.6l-1.4,19.6l-8.5,17.7
			L478.1,504.6z"/>
	</g>
	<g>
		<polygon class="st0" points="545.9,372.9 556.5,373.9 566.7,372.8 576.5,373.7 577.4,383.5 576.3,393.7 577.3,404.3 566.7,403.4 
			556.5,404.5 546.7,403.5 545.7,393.7 546.8,383.5 		"/>
	</g>
</g>
</svg>
