<?xml version="1.0" encoding="utf-8"?>
<!-- Generator: Adobe Illustrator 19.2.0, SVG Export Plug-In . SVG Version: 6.00 Build 0)  -->
<svg version="1.1" id="レイヤー_1" xmlns="http://www.w3.org/2000/svg" xmlns:xlink="http://www.w3.org/1999/xlink" x="0px"
	 y="0px" viewBox="0 0 850.4 850.4" style="enable-background:new 0 0 850.4 850.4;" xml:space="preserve">
<style type="text/css">
	.st0{fill:#FFE100;}
	.st1{fill:#4B4B4B;}
</style>
<g>
	<polygon class="st0" points="475.4,142.5 470.3,141.1 464.4,141.5 458.7,139.6 453.4,139.7 449.9,158.1 448.6,176.9 445.1,195.4 
		443.8,214 449,215.4 454.9,215 460.6,216.9 465.9,216.8 469.4,198.5 470.6,179.7 474.2,161.2 	"/>
</g>
<g>
	<polygon class="st0" points="269.8,459.9 274.3,467.9 280.6,474.6 285,482.6 291.3,489.2 294.5,494.4 299.9,497.1 304.8,500.7 
		310.8,501 316.7,502.5 322.5,500.5 328.4,499.5 333,495.5 340.9,491 347.6,484.7 355.6,480.1 362.2,473.8 369.3,467.3 373.4,458.5 
		378.2,450.1 379.3,440.4 383.6,419.4 385.7,398.1 390,377.1 392.3,356.4 361.9,360 331.4,365.7 300.6,369.2 270.3,374.9 
		267.7,386.4 267,398.7 264,410.6 263.3,422.9 261.6,432.5 263.6,442 264.9,451.6 	"/>
</g>
<g>
	<path class="st1" d="M634.3,641.7l0.8-2.3l-1.5-2l0.8-2.3l-1.5-2l-1.4-8.4l-5.6-6.5l-5.8-6.3l-8.2-2.4l-5.1-3l-5.9-0.8l-5.1-3
		l-5.9-0.8l0.3-1.1l-0.4,1.1l0.2-1.1l-0.4,1.1l0.2-1.1l-0.4,1.1l0.2-1.1l-0.4,1.1l-1.7-1.9l-2.5-0.6l-0.3-2.5l-1.7-1.8l-1.8-19
		l-4-18.6l-1.8-19l-4-18.6l0.9-3.2l-0.9-3.2l1.8-2.8l0.2-3.4l9.1-9.8l7.3-11.2l9.1-9.8l7.3-11.2l1.1,0.4l-0.7-0.9l1.1,0.4l-0.7-0.9
		l1.1,0.3l-0.8-0.8l1.1,0.3l-0.8-0.8l7.4-13.4l2.9-15.1l2.6-15.1l-2.2-15.2l-3.6-30.7l-5.8-30.3l-3.6-30.7l-5.8-30.3l0.5-4.4
		l-1.8-4.1l0.5-4.4l-1.5-3.7l-4-0.4l-4.1,1.8l-4.4-0.5l-4.1,1.8l-37,4.6l-36.6,6.8l-37,4.6l-36.6,6.8l-4.4-0.5l-4.1,1.8l-4.4-0.5
		l-3.8,1.6l-0.5,2.4l1.5,2.6l-0.7,2.9l1.5,2.7l-1-0.7l-0.7,1l-0.4-1.2l-0.7,1l-36.6-6.7l-37-4.4l-36.6-6.7l-37-4.4l-4.1-1.8
		l-4.4,0.5l-4.1-1.8l-4,0.4l-1.5,3.7l0.5,4.4l-1.8,4.1l0.5,4.4l-5.7,30.3l-3.5,30.7l-5.7,30.3l-3.5,30.7l-2.1,15.2l2.7,15.1
		l2.9,15.1l7.4,13.4l-0.8,0.8l1.1-0.3l-0.8,0.8l1.1-0.3l-0.7,0.9l1.1-0.4l-0.7,0.9l1.1-0.4l7.3,11.2l9.1,9.8l7.3,11.2l9.1,9.8
		l0.2,3.4l1.8,2.8l-0.9,3.2l0.9,3.2l-4,18.6l-1.7,19l-4,18.6l-1.7,19l-1.7,1.8l-0.3,2.5l-2.5,0.6l-1.7,1.9l-0.4-1.1l0.2,1.1
		l-0.4-1.1l0.2,1.1l-0.4-1.1l0.2,1.1l-0.4-1.1l0.3,1.1l-5.8,0.9l-5.1,3l-5.8,0.9l-5.1,3l-8.2,2.4l-5.7,6.3l-5.6,6.5l-1.4,8.4l-1.4,2
		l0.8,2.3l-1.4,2l0.8,2.3l-1.8,4.1l0.5,4.4l-1.8,4.1l0.4,4l3.7,1.5l4.4-0.5l4.1,1.8l4.4-0.5l26.6,5.2l26.9,2.9l26.6,5.2l26.9,2.9
		l4.1,1.8l4.4-0.5l4.1,1.8l4-0.4l1.5-3.7l-0.5-4.4l1.8-4.1l-0.5-4.4l1.4-2l-0.8-2.3l1.4-2l-0.8-2.3l1.2-8.5l-3.4-7.8l-3.6-7.7
		l-7.2-4.7l-4-4.4l-5.3-2.5l-4-4.4l-5.3-2.5l0.6-1l-0.7,0.9l0.6-1l-0.7,0.9l0.5-1l-0.6,0.9l0.5-1l-0.7,0.9l-1-2.3l-2.2-1.3l0.4-2.5
		l-1.1-2.3l4-18.6l1.7-19l4-18.6l1.7-19l1.8-2.8l0.1-3.3l2.5-2.1l1.2-3.2l11.6-6.6l10.3-8.5l11.6-6.6l10.3-8.5l0.9,0.8l-0.4-1.1
		l0.9,0.8l-0.4-1.1l1,0.6l-0.5-1l1,0.6l-0.5-1l11.1-10.6l7.2-13.5l7-13.6l2.4-15.1l4.6-22.8l2.3-23.1l4.6-22.8l2.6-23.6l2.7,20.2
		l4.1,19.5l1.9,19.8l4.2,19.5l2.5,15.1l7,13.6l7.3,13.5l11.1,10.6l-0.5,1l1-0.6l-0.5,1l1-0.6l-0.4,1.1l0.9-0.7l-0.4,1.1l0.9-0.7
		l10.3,8.5l11.6,6.6l10.3,8.5l11.6,6.6l1.2,3.2l2.6,2.1l0.1,3.3l1.8,2.8l1.8,19l4,18.6l1.8,19l4,18.6l-1.1,2.3l0.4,2.5l-2.2,1.3
		l-1,2.3l-0.7-0.9l0.5,1l-0.7-0.9l0.5,1l-0.7-0.9l0.6,1l-0.7-0.9l0.6,1l-5.3,2.6l-4,4.4l-5.3,2.6l-4,4.4l-7.2,4.7l-3.6,7.8l-3.4,7.8
		l1.2,8.5l-0.8,2.3l1.5,2l-0.8,2.3l1.5,2l-0.5,4.4l1.8,4.1l-0.5,4.4l1.6,3.7l4,0.4l4.1-1.8l4.4,0.5l4.1-1.8l26.9-3l26.5-5.2l26.9-3
		l26.5-5.2l4.4,0.5l4.1-1.8l4.4,0.5l3.7-1.5l0.4-4l-1.8-4.1l0.5-4.4L634.3,641.7z M395.5,442.9l-4,11.8l-3.8,11.9l-7.6,9.9
		l-7.5,10.1l-11.9,6.9l-10.6,8.7l-11.9,6.9l-10.6,8.7l-4.9,3.8l-2.4,5.9l-3.5,5.3l-0.3,6.3l-4,18.6l-1.7,19l-4,18.6l-1.7,19
		l-1.2,7.2l3.1,6.6l3,6.7l6.3,3.8l4.1,4.4l5.4,2.6l4,4.4l5.4,2.6l2,3.2l2.9,2.4l-0.1,3.8l1.1,3.6l-1.4,2l0.8,2.3l-1.4,2l0.2,2.8
		l-26.6-5.2l-26.9-2.9l-26.6-5.2l-26.9-2.9l1-2.6l-0.8-2.3l1.5-2l-0.8-2.3l2.1-3.1l1.1-3.6l3.5-1.5l2.9-2.4l5.9-0.9l5.2-3l5.9-0.9
		l5.2-3l7.1-1.8l4.9-5.5l4.9-5.4l1-7.3l4-18.6l1.7-19l4-18.6l1.7-19l1.5-6.1l-1.7-6.1l-0.5-6.3l-3.6-5.1l-7.5-11.4l-9.3-10
		l-7.6-11.5l-9.3-10.1l-4.2-11.8l-4.4-11.7l-0.1-12.5l-0.3-12.5l5.7-30.3l3.5-30.7l5.7-30.4l3.8-31.1l37,6.6l37,4.4l36.6,6.7
		l37.3,4.6l-5.6,30.8l-3.5,30.7l-5.7,30.4L395.5,442.9z M511.1,661.3l0.2-2.8l-1.5-2l0.8-2.3l-1.5-2l1.1-3.6l-0.1-3.8l2.9-2.4l2-3.2
		l5.4-2.6l4-4.4l5.4-2.6l4-4.4l6.3-3.9l3-6.7l3.1-6.6l-1.2-7.2l-1.8-19l-4-18.6l-1.8-19l-4-18.6l-0.4-6.3l-3.5-5.3l-2.4-5.8l-5-3.8
		l-10.6-8.7l-11.9-6.8l-10.6-8.7l-11.9-6.8l-7.6-10l-7.7-9.9l-3.8-11.9l-4-11.8l-3.6-30.7l-5.8-30.3l-3.6-30.7l-5.7-30.8l37.3-4.7
		l36.6-6.8l37-4.6l37-6.7l3.9,31.1l5.8,30.3l3.6,30.7l5.8,30.3l-0.3,12.5l-0.1,12.5l-4.3,11.7l-4.2,11.8l-9.3,10.1l-7.5,11.5
		l-9.3,10.1l-7.5,11.5l-3.6,5.1l-0.5,6.3l-1.7,6.1l1.6,6.1l1.8,19l4,18.6l1.8,19l4,18.6l1.1,7.3l5,5.4l4.9,5.5l7.1,1.8l5.2,3
		l5.9,0.9l5.2,3l5.9,0.9l2.9,2.4l3.5,1.4l1.1,3.6l2.1,3.1l-0.8,2.3l1.5,2l-0.8,2.3l1,2.6l-26.9,3l-26.5,5.2l-26.9,3L511.1,661.3z"/>
</g>
<g>
	<polygon class="st0" points="558.5,475.6 564.8,468.9 569.2,460.9 575.5,454.2 579.9,446.2 584.8,437.8 586.1,428.2 588.1,418.7 
		586.3,409.2 585.3,395.4 582.1,382 581.1,368.2 578.2,355.2 548.1,351.1 517.6,349.2 487.3,345.1 457.1,343.1 459.5,363.8 
		463.9,384.8 466,406.1 470.4,427.1 471.5,436.7 476.3,445.2 480.4,453.9 487.6,460.4 494.2,466.7 502.2,471.2 508.9,477.5 
		516.9,482 521.4,486 527.4,486.9 533.1,488.9 539,487.5 545.1,487.1 549.9,483.5 555.4,480.8 	"/>
</g>
<g>
	<polygon class="st0" points="419.3,222.8 411.4,205.9 401.3,190 393.3,172.9 383.4,157.1 378.4,159 373.8,162.8 368.1,164.6 
		363.8,167.8 371.8,184.7 381.8,200.6 389.9,217.7 399.8,233.5 404.8,231.6 409.4,227.8 415,226 	"/>
</g>
<g>
	<polygon class="st0" points="386.5,255.6 370.1,246.6 352.6,239.6 336.1,230.5 318.8,223.5 315.8,228 314.4,233.8 310.8,238.6 
		309.2,243.7 325.6,252.6 343.1,259.7 359.6,268.7 377,275.7 379.9,271.2 381.4,265.5 384.9,260.7 	"/>
</g>
</svg>
