<?xml version="1.0" encoding="utf-8"?>
<!-- Generator: Adobe Illustrator 19.2.0, SVG Export Plug-In . SVG Version: 6.00 Build 0)  -->
<svg version="1.1" id="レイヤー_1" xmlns="http://www.w3.org/2000/svg" xmlns:xlink="http://www.w3.org/1999/xlink" x="0px"
	 y="0px" viewBox="0 0 850.4 850.4" style="enable-background:new 0 0 850.4 850.4;" xml:space="preserve">
<style type="text/css">
	.st0{fill:none;stroke:#A6519B;stroke-width:15;stroke-linecap:round;stroke-linejoin:round;stroke-miterlimit:10;}
	.st1{fill:#A6519B;}
</style>
<g>
	<polyline class="st0" points="59.6,789.4 62.5,698.3 59.6,607.3 62.5,516.2 59.6,425.2 62.5,334.2 59.6,243.1 62.5,152.1 60,60 
		152.1,62.5 243.1,59.6 334.1,62.5 425.2,59.6 516.2,62.5 607.3,59.6 698.3,62.5 790.4,60 787.9,152.1 790.8,243.1 787.9,334.1 
		790.8,425.2 787.9,516.2 790.8,607.3 787.9,698.3 790.5,790.2 717.4,787.9 645.5,790.8 573.6,787.9 501.7,790.8 429.8,787.9 
		357.9,790.8 285.9,787.9 213.5,790.7 215.4,760.9 212.6,732.4 215.4,703.9 212.6,675.5 215.4,647 212.6,618.5 215.4,590 
		213.2,560.4 258.2,563 302.5,560.2 346.7,563 391,560.2 435.2,563 479.4,560.2 523.7,563 567.9,560.2 	"/>
</g>
<g>
	<g>
		<path class="st1" d="M247.4,558.3l1.7-104.2L247.4,350l1.6-103.8l38.5-1.2l39.3,1.7l39.3-1.7l15.9,1.9l16-0.9l15.5,3.6l13.9,1.4
			l12.4,6.4l12.9,5.3l9,9.8l9.7,9.1l5.2,12.3l6.9,13l1.5,14.7l2.7,14.5l-4.3,24.2l-6.9,23.6l-15.6,19l-26.2,19.2l-32.2,6.2
			l-32.6,3.7l-26.7-1.7l-26.7,1.7l-27.4-1.3l1.6,42.8l-1.7,42.3l1.7,42.6l-14.6-1.1L262,559L247.4,558.3z M290.3,393.8l26.2,1.3
			l26.9-1.7l26.9,1.7l19.9-2.8l19.9-2.6l16.6-11.1l11.1-11l3.9-15.1l3.3-15.3l-2.7-11.7l-1.6-11.8l-7.2-9.6l-5.9-9.3l-9.8-4.9
			l-9.4-5.6l-13-0.2l-12.8-2.4l-12.9,1.5l-26.6-1.7l-26.6,1.7l-27.3-1.3l1.5,37.7l-1.7,37.2L290.3,393.8z"/>
		<path class="st1" d="M478.3,560.7l1.7-69l-1.7-68.8l1.7-68.7l9.7-1l10.5,1.7l11.1-1.5l-1.4,11l1.7,10.4l-1.7,10.7l6.3-11.3
			l8.5-8.9l7.7-9.7l7.8-2.4l7.1-4l8.1,0.9l12.8-0.3l11.6,5.6l12.5,5.1l-5.7,10.5l-2.4,11.4l-5.5,10l-7.7-2.7l-8.1-4.3l-9.1,0.8
			l-7.5-0.9l-6.4,3.9l-7.2,2.4l-4.5,6.6l-5.8,5.6l-1.4,7.9l-5,13l-0.2,13.9l-2.3,13.7l1.7,36l-1.7,36l1.7,36.3l-12.5-1.1l-11.7,1.7
			L478.3,560.7z"/>
	</g>
</g>
</svg>
