<?xml version="1.0" encoding="utf-8"?>
<!-- Generator: Adobe Illustrator 19.2.0, SVG Export Plug-In . SVG Version: 6.00 Build 0)  -->
<svg version="1.1" id="レイヤー_1" xmlns="http://www.w3.org/2000/svg" xmlns:xlink="http://www.w3.org/1999/xlink" x="0px"
	 y="0px" viewBox="0 0 850.4 56.7" style="enable-background:new 0 0 850.4 56.7;" xml:space="preserve">
<style type="text/css">
	.st0{fill-rule:evenodd;clip-rule:evenodd;}
	.st1{display:none;fill:#FFFFFF;}
	.st2{display:none;fill-rule:evenodd;clip-rule:evenodd;}
</style>
<g>
	<g>
		<path d="M351,51.5c-1.3-0.5-1.9-1.2-1.9-2.1c0-0.5,0.3-1.1,0.9-1.8c0.2-0.2,0.6-0.3,1.2-0.4c0.6,0,1-0.3,1.3-0.8
			c0.9-1.8,1.3-3.7,1.3-5.7c0-2.6-1.4-6.6-4.1-11.8c-2.7-5.2-4-9.3-4-12.4c0-2.6,0.5-4.8,1.5-6.9c1.1-2.3,2.7-4,4.8-5
			c1-0.5,2-0.7,2.8-0.7c1.8,0,3.1,0.5,4,1.4c0.4,0.4,0.6,0.9,0.6,1.4c0,0.8-0.6,1.6-1.8,2.2c-0.2,0.1-0.4,0.1-0.6,0.1
			c-0.3,0-0.4,0-0.5-0.1c-0.5-0.2-0.8-0.3-0.9-0.3c-0.3,0-0.5,0.1-0.8,0.4c-2.3,2.3-3.4,5-3.4,8.3c0,1.2,0.2,2.3,0.6,3.4
			c0.1,0.2,0.5,1.1,1.3,2.8c0.8,1.6,1.9,4,3.5,7c2,4,3,7.4,3,10.2c0,2.3-0.6,4.5-1.7,6.7c-0.4,0.7-1.3,1.6-2.8,2.8
			c-1.2,0.9-2.3,1.3-3.3,1.3C351.6,51.7,351.3,51.6,351,51.5z"/>
		<path d="M365.1,28.3c0.1-0.4,0.4-0.7,0.9-1c0.6-0.3,1-0.7,1.1-1c0-0.2,0.1-0.7,0.2-1.7c0.1-1,0.2-2.4,0.3-4.3
			c-2.3-0.4-3.5-1.3-3.5-2.6c0-1.2,0.8-2.2,2.2-2.9l4-1.6c0.8-0.4,1.7-0.8,2.6-1.1c1-0.3,2-0.7,3.2-1c1-0.3,2.1-0.6,3.1-0.8
			s2-0.5,3.1-0.8c0.1,0,0.3-0.1,0.8-0.1c1.1,0,2.5,0.4,4,1.3c0,0.2,0.1,0.5,0.3,0.9c0.2,0.5,0.3,0.8,0.3,1c0,0.4-0.1,0.6-0.4,0.8
			c-0.8,0.3-1.8,0.7-2.9,1c-1.1,0.4-2.5,0.7-4,1.2c-1.5,0.4-2.8,0.8-4,1.2c-1.1,0.4-2.1,0.7-2.9,1c-0.2,0.5-0.3,1.4-0.5,2.6
			c-0.1,1.2-0.3,2.8-0.3,4.7c0.7,0.3,1.4,0.4,2.3,0.4c0.3,0,0.7,0,1.2-0.1c0.5-0.1,1.1-0.1,1.7-0.2c0.7-0.1,1.2-0.2,1.7-0.2
			c0.5-0.1,0.9-0.1,1.2-0.1c1.2,0,2.2,0.3,3,0.8c0.6,0.8,0.9,1.4,0.9,1.6c0,0.3-0.1,0.5-0.4,0.7c0,0-0.1,0.1-0.3,0.3
			c-0.1,0.1-0.3,0.3-0.6,0.6c-0.3,0.3-0.7,0.5-1.3,0.5c-0.9,0.2-2.5,0.3-4.8,0.4c-2,0.1-3.5,0.3-4.7,0.8c-0.8,2.9-1.2,5.4-1.2,7.4
			c0,1.1,0.2,2.1,0.5,2.9c1.7,1.2,4.5,1.8,8.5,1.8c0.3,0,0.6,0,0.8,0c0.3,0,0.6,0,0.9,0c0.3,0,0.7-0.2,1.1-0.5
			c0.4-0.3,0.7-0.5,0.9-0.5c0.1,0,0.1,0,0.2,0c0,0,0.1,0,0.2,0c1,0,1.7,0.9,1.9,2.7c0,0.1,0,0.2,0,0.3c0,0.1,0,0.2,0,0.3
			c0,0.6-0.2,1.1-0.5,1.5c-0.4,0.4-0.8,0.7-1.4,0.7c-0.4,0-0.8,0-1.1,0c-0.4,0-0.8,0-1.1,0c-4,0-7.7-0.4-10.9-1.3
			c-1.2-0.3-2.2-0.9-3.2-1.9c-1-1-1.5-2.1-1.6-3.4c-0.1-0.9-0.2-1.8-0.2-2.6c-0.1-0.8-0.1-1.7-0.1-2.5c0-0.8,0-1.6,0.1-2.4
			s0.1-1.5,0.2-2.2c-1-0.8-1.6-1.4-1.6-2.1V28.3z"/>
		<path d="M391.7,40.6c0.1-1.2,0.2-2.5,0.3-4c0.1-1.4,0.2-3,0.2-4.7v-6.9c0-2.9,0-5.5,0.1-7.9c0.1-2.3,0.3-4.5,0.6-6.5
			c0.4-2.4,2.6-3.6,6.5-3.6h0.9c2.3,0.1,4.2,1.2,5.9,3.4c1.5,1.9,2.3,4.1,2.3,6.5c0,2-0.7,3.9-2.2,5.9c-1.3,1.8-2.8,3.2-4.6,4.3
			c-0.4,0.2-0.7,0.4-0.9,0.6c-0.2,0.2-0.3,0.4-0.3,0.7c0,0.3,0.1,0.5,0.3,0.7s0.5,0.5,1,0.8l2,1.7l7,6.5c1.4,1.3,2.7,2.6,3.7,3.7
			c1,1.2,1.9,2.3,2.5,3.3c0.1,0.2,0.2,0.4,0.2,0.6c0,1-1,1.7-3,2.2c-2.2-1.7-5-4.3-8.3-7.9c-1.9-2-3.5-3.7-4.8-5.1
			c-1.3-1.4-2.5-2.4-3.4-3.2c-0.1,0.5-0.2,1.5-0.3,3c-0.1,1.4-0.2,3.3-0.4,5.6c-0.2,3.5-0.6,6.2-1.1,8.3c-0.1,0-0.3,0.1-0.6,0.3
			c-0.3,0.2-0.7,0.3-1,0.3c0,0-0.1,0-0.1,0c0,0-0.1,0-0.1,0c-1.8-0.5-2.8-1.7-2.8-3.8c0-0.3,0-0.7,0.1-1.2c0-0.4,0.1-0.9,0.2-1.4
			L391.7,40.6z M403.9,15.1c-0.1-0.9-0.5-1.7-1.1-2.4c-0.6-0.7-1.6-1.1-2.9-1.1c-1,0-1.6,0.3-1.9,0.9c-0.1,0.6-0.2,1.2-0.2,1.8
			c-0.1,0.6-0.1,1.2-0.1,1.8c0,0.5,0.1,1.9,0.2,4.2c0,0.5,0,0.9,0,1.3c0,0.4,0,0.7,0,1.1c0,0.3,0,0.7,0,1c0,0.3,0,0.6,0,0.9
			c3.5-2.6,5.4-5.1,5.9-7.5c0-0.3,0.1-0.6,0.1-0.8c0-0.3,0-0.5,0-0.7V15.1z"/>
		<path d="M430.2,50.3c-0.8-2-1.7-4.6-2.7-7.7c-0.9-3.1-2-7-3-11.5c-2.1-8.5-4.1-14.9-6.2-19.4c0.5-1,1-1.6,1.4-1.6
			c0.3-0.2,0.7-0.3,1-0.3c0.6,0,1.8,0.6,3.5,1.9c0.8,1.8,1.5,3.8,2.2,5.8c0.7,2.1,1.4,4.4,2,6.8c0.3,1.1,0.6,2.3,0.9,3.7
			c0.3,1.4,0.7,2.7,1,4.1c0.3,1.4,0.6,2.8,0.9,4.1c0.3,1.4,0.6,2.6,0.8,3.7c0.5-3.1,1.1-6.3,1.9-9.5c0.8-3.2,1.7-6.1,2.5-8.7
			c1.8-5.7,3.7-10.6,5.7-15c0.4-0.8,1.2-1.2,2.2-1.2c0.2,0,0.3,0,0.5,0c0.2,0,0.4,0,0.6,0.1c0.2,0.1,0.4,0.3,0.6,0.5
			c0.1,0.1,0.3,0.2,0.4,0.3c0.2,0,0.3,0.1,0.5,0.2c0.2,0.1,0.3,0.2,0.4,0.3c0.1,0.1,0.2,0.3,0.2,0.6c0,0.3-0.1,0.7-0.3,1.3
			c-1.6,3.1-4,8.8-7,17.2c-0.9,2.4-2,6.5-3.3,12.3c-0.6,2.8-1.1,5.2-1.7,7.2c-0.5,2-1.1,3.8-1.6,5.2c-0.4,0.4-0.8,0.6-1.3,0.6
			C431.8,51.2,431.1,50.9,430.2,50.3z"/>
		<path d="M457,13.1c0,0.6,0.1,1.2,0.1,1.8c0,0.6,0,1.3,0,1.9c0,1.4-0.1,3.2-0.2,5.3c-0.1,2.1-0.4,4.7-0.7,7.5
			c-0.3,2.9-0.5,5.4-0.7,7.6c-0.1,2.2-0.2,4-0.2,5.4c0,0.5,0,1.1,0,1.6c0,0.5,0,1.1,0.1,1.6c-0.4,1.1-1.2,1.7-2.5,1.7
			c-1.8-0.1-2.8-0.9-3-2.3c-0.1-0.7-0.1-1.5-0.2-2.2c0-0.8-0.1-1.6-0.1-2.4c0-1.4,0.1-3.2,0.3-5.3c0.2-2.1,0.4-4.6,0.8-7.5
			c0.3-2.9,0.6-5.4,0.8-7.4s0.3-3.8,0.3-5.2c0-0.5,0-1.1,0-1.6c0-0.5-0.1-1.1-0.1-1.6c0.4-0.8,1.1-1.2,2.1-1.2
			c0.8,0,1.5,0.2,2.4,0.7c0.2-0.1,0.3-0.2,0.4-0.2c0.1,0,0.2,0.2,0.2,0.6c0,0.2-0.1,0.4-0.1,0.6c0,0.2,0,0.3,0.1,0.3L457,13.1z"/>
		<path d="M478.4,53.3c-1.8-0.4-3.5-1.1-5.2-2.2c-1.7-1.1-3.3-2.3-4.7-3.6c-1.4-1.3-2.6-2.7-3.6-4.1c-1-1.4-1.7-2.6-2-3.7
			c-0.7-2.1-1.1-4.1-1.3-6.1c-0.2-2-0.3-3.7-0.3-5.1c0-3.5,0.5-6.5,1.6-9.1c1.1-2.5,2.3-4.5,3.6-6c2.1-2.3,4-3.9,5.7-5
			c1.8-1,3.3-1.6,4.7-1.6c1.2,0,2.2,0.4,3.2,1.1c0.3,0.2,0.4,0.6,0.4,1.4c0,0.6-0.1,1.1-0.4,1.6c-0.3,0.5-0.8,0.8-1.6,1
			c-1,0.2-1.9,0.4-2.9,0.7c-1,0.3-2.1,1-3.5,2.2c-0.7,0.6-1.4,1.4-2.1,2.3c-0.7,0.9-1.3,2-1.9,3.3s-1,2.7-1.3,4.3
			c-0.3,1.6-0.5,3.4-0.5,5.4c0,3.6,1.2,7.3,3.5,11.2c0.7,0.9,1.4,1.7,2,2.4c0.6,0.7,1.2,1.3,1.6,1.7c0.5,0.5,0.9,0.9,1.4,1.4
			c0.5,0.4,1.2,0.9,2.1,1.4c0.3,0.2,0.8,0.3,1.3,0.5c0.5,0.2,1,0.3,1.3,0.5c0.7,0.4,1,0.9,1,1.6c0,0.7-0.2,1.3-0.7,1.8
			c-0.4,0.5-0.9,0.8-1.4,0.6H478.4z"/>
		<path d="M484.4,28.3c0.1-0.4,0.4-0.7,0.9-1c0.6-0.3,1-0.7,1.1-1c0-0.2,0.1-0.7,0.2-1.7c0.1-1,0.2-2.4,0.3-4.3
			c-2.3-0.4-3.5-1.3-3.5-2.6c0-1.2,0.8-2.2,2.2-2.9l4-1.6c0.8-0.4,1.7-0.8,2.6-1.1c1-0.3,2-0.7,3.2-1c1-0.3,2.1-0.6,3.1-0.8
			s2-0.5,3.1-0.8c0.1,0,0.3-0.1,0.8-0.1c1.1,0,2.5,0.4,4,1.3c0,0.2,0.1,0.5,0.3,0.9c0.2,0.5,0.3,0.8,0.3,1c0,0.4-0.1,0.6-0.4,0.8
			c-0.8,0.3-1.8,0.7-2.9,1c-1.1,0.4-2.5,0.7-4,1.2c-1.5,0.4-2.8,0.8-4,1.2c-1.1,0.4-2.1,0.7-2.9,1c-0.2,0.5-0.3,1.4-0.5,2.6
			c-0.1,1.2-0.3,2.8-0.3,4.7c0.7,0.3,1.4,0.4,2.3,0.4c0.3,0,0.7,0,1.2-0.1c0.5-0.1,1.1-0.1,1.7-0.2c0.7-0.1,1.2-0.2,1.7-0.2
			c0.5-0.1,0.9-0.1,1.2-0.1c1.2,0,2.2,0.3,3,0.8c0.6,0.8,0.9,1.4,0.9,1.6c0,0.3-0.1,0.5-0.4,0.7c0,0-0.1,0.1-0.3,0.3
			c-0.1,0.1-0.3,0.3-0.6,0.6c-0.3,0.3-0.7,0.5-1.3,0.5c-0.9,0.2-2.5,0.3-4.8,0.4c-2,0.1-3.5,0.3-4.7,0.8c-0.8,2.9-1.2,5.4-1.2,7.4
			c0,1.1,0.2,2.1,0.5,2.9c1.7,1.2,4.5,1.8,8.5,1.8c0.3,0,0.6,0,0.8,0c0.3,0,0.6,0,0.9,0c0.3,0,0.7-0.2,1.1-0.5s0.7-0.5,0.9-0.5
			c0.1,0,0.1,0,0.2,0c0,0,0.1,0,0.2,0c1,0,1.7,0.9,1.9,2.7c0,0.1,0,0.2,0,0.3c0,0.1,0,0.2,0,0.3c0,0.6-0.2,1.1-0.5,1.5
			c-0.4,0.4-0.8,0.7-1.4,0.7c-0.4,0-0.8,0-1.1,0c-0.4,0-0.8,0-1.1,0c-4,0-7.7-0.4-10.9-1.3c-1.2-0.3-2.2-0.9-3.2-1.9
			c-1-1-1.5-2.1-1.6-3.4c-0.1-0.9-0.2-1.8-0.2-2.6c-0.1-0.8-0.1-1.7-0.1-2.5c0-0.8,0-1.6,0.1-2.4c0.1-0.8,0.1-1.5,0.2-2.2
			c-1-0.8-1.6-1.4-1.6-2.1V28.3z"/>
	</g>
	<g>
		<path class="st0" d="M111.4,38.1c-0.3-0.4-0.6-0.7-0.6-0.9c0.2-0.9,0.3-1.8,0.8-2.5c1.8-2.7,3.8-5.3,5.7-8
			c0.1-0.2,0.3-0.3,0.5-0.5c0.5-0.5,1.5-0.2,1.6,0.5c0.1,0.5,0.2,1.1,0,1.6c-0.2,0.7-0.6,1.4-1.1,2.1c-1.8,2.3-3.6,4.6-5.5,6.8
			C112.5,37.6,111.9,37.8,111.4,38.1z"/>
		<path class="st0" d="M104.6,37.8c-0.4-0.6-0.8-0.9-1-1.4c-0.1-0.2,0.1-0.7,0.2-0.9c1.7-2.6,3.4-5.3,5.1-7.9c0.2-0.3,0.6-0.7,1-0.8
			c0.6-0.2,1.2-0.7,1.9-0.1c0.6,0.6,0.4,1.3,0,1.8c-1.9,2.8-3.8,5.5-5.8,8.3C105.7,37.1,105.2,37.3,104.6,37.8z"/>
		<path class="st0" d="M191.7,37.6c-1.4-0.3-0.2-1.8,0.1-2.2c2.1-2.9,4.3-5.8,6.5-8.7c0.2-0.3,0.8-0.5,1.2-0.4
			c0.7,0.1,0.9,0.8,0.8,1.3c-0.1,0.8-0.3,1.6-0.8,2.2c-2,2.4-4.1,4.8-6.2,7.2C192.9,37.2,192.6,37.9,191.7,37.6z"/>
		<path class="st0" d="M8.5,38.3c-0.1-0.5-0.3-0.9-0.2-1.3c0.1-0.4,0.4-0.8,0.6-1.2c2-2.9,3.9-5.8,5.9-8.7c0.2-0.3,0.4-0.5,0.6-0.8
			c0.4-0.5,0.9-0.7,1.5-0.4c0.6,0.3,0.6,1,0.3,1.5c-0.8,1.4-1.6,2.7-2.4,4.1c-1,1.6-2.1,3.2-3.2,4.8C10.9,37.3,10,38.1,8.5,38.3z"/>
		<path class="st0" d="M89.3,37.8c-0.6-1-0.5-2,0.1-2.9c2-2.8,4-5.5,6-8.2c0.3-0.5,0.9-0.7,1.5-0.4c0.6,0.3,0.8,1.1,0.4,1.8
			c-2,3-4,6-6,9C90.8,37.8,90.2,38.1,89.3,37.8z"/>
		<path class="st0" d="M295.4,27.5c-0.3,0.6-0.5,1.3-1,1.8c-1.6,1.9-3.3,3.7-5,5.5c-0.7,0.7-1.3,1.6-2.1,2.2
			c-0.3,0.2-0.9,0.3-1.2,0.1c-0.3-0.2-0.5-0.9-0.4-1.1c2-2.8,4.1-5.7,6.3-8.4c0.5-0.6,1.6-0.6,2.5-0.7
			C294.8,26.8,295,27.2,295.4,27.5z"/>
		<path class="st0" d="M81.8,36.5c0-0.2,0.1-0.5,0.3-0.8c1.9-2.8,3.7-5.7,5.6-8.5c0.2-0.4,0.7-0.6,1.1-0.8c0.3-0.1,0.7-0.1,0.9,0.1
			c0.2,0.2,0.4,0.6,0.4,0.9c0,0.3-0.1,0.7-0.3,1c-1.8,2.9-3.7,5.7-5.6,8.5c-0.2,0.4-0.7,0.6-1,0.8C82.7,37.9,81.7,37.2,81.8,36.5z"
			/>
		<path class="st0" d="M184.1,38.1c-1.4-0.3-0.5-1.4-0.5-1.8c0-0.4,0.3-0.9,0.5-1.2c2.3-2.9,4.7-5.7,7.1-8.5
			c0.2-0.2,0.5-0.4,0.8-0.5c0.9,0.1,1.2,0.7,1,1.5c-0.2,0.5-0.5,1-0.9,1.4c-1.8,2.4-3.7,4.8-5.6,7.2C186,36.7,185,38.3,184.1,38.1z"
			/>
		<path class="st0" d="M207.4,27.5c-0.3,0.6-0.4,1.1-0.7,1.4c-2.1,2.6-4.3,5.2-6.5,7.8c-0.2,0.2-0.5,0.4-0.8,0.5
			c-0.5,0.2-1.3-0.3-1.2-0.8c0.1-0.5,0.3-1.1,0.6-1.5c1.8-2.4,3.6-4.9,5.5-7.2c0.3-0.4,0.9-0.9,1.4-0.9
			C206.3,26.7,206.8,27.2,207.4,27.5z"/>
		<path class="st0" d="M168.8,38.1c-0.8-0.1-0.2-1-0.1-1.3c0.5-1,1.2-1.9,1.8-2.8c1.2-1.7,2.3-3.3,3.6-4.9c1-1.2,2.2-2.3,3.4-3.3
			c0.2-0.2,0.8-0.1,1.2,0c0.1,0.1,0.2,0.6,0.1,0.9c-0.1,0.4-0.4,0.8-0.7,1.2c-2,2.6-4,5.2-6.1,7.7C171.3,36.7,170.8,39,168.8,38.1z"
			/>
		<path class="st0" d="M75.3,27.8c-0.1,0.2-0.2,0.6-0.4,1c-1.8,2.7-3.6,5.4-5.5,8.1c-0.1,0.2-0.3,0.4-0.5,0.5
			c-0.4,0.1-0.9,0.3-1.2,0.1c-0.3-0.2-0.4-0.7-0.5-1.1c0-0.2,0.1-0.4,0.2-0.6c1.9-2.9,3.8-5.9,5.7-8.8c0.2-0.2,0.5-0.4,0.8-0.5
			C74.5,26.3,75.4,27,75.3,27.8z"/>
		<path class="st0" d="M221.9,27c-0.1,0.4-0.2,0.9-0.5,1.4c-0.9,1.3-1.8,2.6-2.7,3.9c-1.1,1.6-2.2,3.1-3.4,4.6
			c-0.3,0.3-0.6,0.6-1,0.9c-0.1,0.1-0.5,0.1-0.6,0c-0.2-0.2-0.6-0.5-0.5-0.7c0.2-0.9,0.4-1.8,0.9-2.5c2-2.7,4.1-5.3,6.2-8
			c0.2-0.2,0.8-0.2,1.2-0.2C221.5,26.3,221.6,26.6,221.9,27z"/>
		<path class="st0" d="M161.4,37.9c0.3-1.5,1-2.5,1.7-3.5c1.8-2.3,3.6-4.6,5.4-6.9c0.3-0.4,0.7-0.9,1.2-1.1c0.3-0.2,0.9-0.2,1.2,0
			c0.3,0.2,0.4,0.9,0.3,1.2c-0.2,0.6-0.6,1.2-1,1.7c-2,2.5-3.9,4.9-5.9,7.4C163.6,37.3,163,38.2,161.4,37.9z"/>
		<path class="st0" d="M126.7,27.3c-0.2,0.5-0.3,1-0.5,1.4c-1.8,2.6-3.5,5.2-5.3,7.8c-0.3,0.4-0.7,0.9-1.2,1.1
			c-0.3,0.1-0.9,0-1.2-0.2c-0.2-0.1-0.3-0.6-0.2-0.9c0.1-0.4,0.4-0.8,0.6-1.2c1.7-2.7,3.5-5.5,5.2-8.2c0.1-0.2,0.3-0.4,0.4-0.5
			c0.4-0.1,0.9-0.3,1.2-0.1C126.2,26.6,126.4,27,126.7,27.3z"/>
		<path class="st0" d="M30.2,26.2c1.5,0.5,1.9,0.8,1.4,1.7c-0.5,0.9-1,1.8-1.5,2.6c-1.3,1.9-2.5,3.7-3.8,5.5c-0.5,0.7-1.3,1.3-2,1.8
			c-0.2,0.1-0.7,0-0.9-0.2c-0.2-0.2-0.3-0.6-0.3-0.9c0-0.3,0.2-0.6,0.4-0.9C25.7,32.6,28,29.4,30.2,26.2z"/>
		<path class="st0" d="M53.5,37.3c-0.3-0.7-0.9-1.2-0.7-1.6c0.3-0.9,0.9-1.8,1.4-2.6c1.1-1.7,2.2-3.4,3.4-5c0.4-0.5,0.9-1,1.5-1.2
			c0.3-0.1,0.9,0.1,1.2,0.3c0.3,0.3,0.4,0.9,0.3,1.2c-0.2,0.6-0.7,1.1-1.1,1.7c-1.4,2-2.8,4.1-4.2,6.1
			C54.9,36.6,54.2,36.8,53.5,37.3z"/>
		<path class="st0" d="M81.7,26.2c1.1,1.1,1.1,2.2,0.5,3.2c-1.8,2.7-3.7,5.4-5.6,8c-0.1,0.2-0.3,0.4-0.5,0.4c-0.4,0-0.9,0.1-1.2-0.1
			c-0.2-0.1-0.3-0.6-0.2-0.9c0.1-0.4,0.3-0.8,0.6-1.2c1.6-2.6,3.3-5.1,5-7.7C80.5,27.4,81.1,26.9,81.7,26.2z"/>
		<path class="st0" d="M133.4,26.1c0.2,0.4,0.5,0.8,0.5,1.1c-0.1,0.8-0.2,1.6-0.6,2.2c-1.7,2.6-3.6,5.2-5.4,7.8
			c-0.1,0.2-0.3,0.4-0.5,0.5c-0.4,0.1-0.9,0.3-1.2,0.2c-0.3-0.1-0.5-0.7-0.5-1.1c0-0.4,0.2-0.9,0.4-1.3c2.2-3,4.4-6,6.6-9.1
			C132.8,26.3,133,26.3,133.4,26.1z"/>
		<path class="st0" d="M242.5,36.2c0.3-0.9,0.6-1.7,1.1-2.4c1.7-2.3,3.5-4.5,5.3-6.7c0.2-0.2,0.6-0.5,0.8-0.5c0.4,0,0.9,0.1,1.2,0.4
			c0.2,0.1,0.3,0.6,0.2,0.9c-0.1,0.4-0.3,0.9-0.6,1.2c-2,2.5-4,5-6,7.4C243.6,37.8,241.9,38,242.5,36.2z"/>
		<path class="st0" d="M228.5,37.6c-1.3-0.3-0.5-2.1-0.2-2.5c1.9-2.5,3.8-5.1,5.7-7.6c0.3-0.4,0.6-0.8,0.9-0.9
			c0.3-0.2,0.9-0.1,1.2,0.1c0.2,0.1,0.3,0.6,0.3,0.9c0,0.3-0.2,0.7-0.4,0.9c-2.1,2.8-4.2,5.6-6.4,8.4
			C229.5,37.1,229.2,37.7,228.5,37.6z"/>
		<path class="st0" d="M220.7,37.9c-0.2-0.3-0.5-0.6-0.6-1c-0.1-0.3,0.1-0.7,0.3-0.9c2.3-3.2,4.7-6.3,7.1-9.5
			c0.2-0.2,0.6-0.3,0.9-0.4c0.5-0.1,1.2,0.6,1,1c-0.1,0.2-0.1,0.5-0.2,0.6c-2.5,3.2-4.9,6.5-7.4,9.7
			C221.6,37.7,221.2,37.7,220.7,37.9z"/>
		<path class="st0" d="M185.3,27.1c0.1,1.1-0.4,1.9-1,2.8c-1.9,2.4-3.8,4.8-5.6,7.2c-0.1,0.2-0.3,0.4-0.5,0.4
			c-0.4,0-0.9,0.1-1.2-0.1c-0.2-0.1-0.4-0.6-0.4-0.9c0.1-0.5,0.3-1.1,0.6-1.5c2.1-2.7,4.3-5.3,6.4-7.9
			C184.1,26.4,184.7,26.4,185.3,27.1z"/>
		<path class="st0" d="M205.7,36.4c2.4-3,4.7-6.1,7.1-9.1c0.4-0.5,0.9-1.1,1.7-0.7c0.6,0.3,0.6,1.2-0.1,2.1c-2,2.7-4,5.5-6.1,8.2
			C207.6,37.7,204.7,38,205.7,36.4z"/>
		<path class="st0" d="M104.8,27.3c-0.3,0.7-0.5,1.5-0.9,2.1c-1.7,2.5-3.5,5-5.2,7.5c-0.6,0.8-1.1,1-1.7,0.6c-0.8-0.5-1-1.3-0.5-2
			c2-2.9,4.1-5.7,6.2-8.5c0.1-0.2,0.3-0.4,0.5-0.5c0.3-0.1,0.7-0.2,0.9-0.1C104.4,26.5,104.5,26.9,104.8,27.3z"/>
		<path class="st0" d="M235.9,37.7c-0.7-0.1-0.7-0.6-0.7-0.8c0.1-0.6,0.2-1.3,0.6-1.9c1.7-2.6,3.5-5.2,5.3-7.8
			c0.2-0.3,0.4-0.6,0.7-0.7c0.4-0.1,0.9-0.3,1.3-0.1c0.3,0.2,0.5,0.8,0.4,1.1c-0.1,0.5-0.3,1.1-0.6,1.5c-1.8,2.6-3.7,5.1-5.6,7.6
			C237,37.1,236.8,37.8,235.9,37.7z"/>
		<path class="st0" d="M162.8,25.7c2.3,0.2,0.4,2.4,0.2,2.7c-2.1,3-4.3,6-6.5,9c-0.4,0.6-1,1.3-1.9,1c-0.7-0.3-0.8-1.2,0-2.3
			C157.2,32.6,159.8,29.2,162.8,25.7z"/>
		<path class="st0" d="M302.5,27.6c-0.2,0.4-0.2,0.9-0.5,1.2c-2.2,2.7-4.4,5.4-6.6,8c-0.2,0.2-0.6,0.3-0.9,0.5
			c-0.5,0.2-1.2-0.4-1.1-0.9c0.1-0.5,0.3-1.1,0.6-1.5c2-2.6,4-5.1,6-7.7c0.5-0.6,1.2-0.7,1.8-0.4C302,26.9,302.2,27.3,302.5,27.6z"
			/>
		<path class="st0" d="M133.3,37.4c-0.1-0.7-0.3-1.3-0.2-1.7c0.1-0.5,0.5-1,0.8-1.5c1.7-2.3,3.5-4.6,5.3-7c0.4-0.5,0.9-0.8,1.4-0.3
			c0.3,0.3,0.6,1.1,0.4,1.4c-1.6,3.1-3.5,6-6,8.4C134.7,37.1,134,37.2,133.3,37.4z"/>
		<path class="st0" d="M155.4,26.2c2.3,0.7-0.4,3.5-0.8,4c-1.6,2.2-3.3,4.3-4.9,6.4c-0.3,0.4-0.8,0.8-1.3,1.1
			c-0.2,0.1-0.7,0.1-0.9-0.1c-0.2-0.2-0.4-0.6-0.4-0.9c0.1-0.5,0.4-1.1,0.7-1.5c1.6-2.3,3.3-4.6,5-6.8
			C153.4,27.8,154.2,25.9,155.4,26.2z"/>
		<path class="st0" d="M15.5,37.6c0.6-1,1.1-1.8,1.6-2.7c1.7-2.5,3.4-5,5.1-7.5c0.3-0.5,0.6-0.9,1-1.3c0.2-0.2,0.7-0.2,0.9-0.1
			c0.2,0.1,0.5,0.5,0.5,0.8c-0.1,0.5-0.2,1.1-0.5,1.6c-2.1,3-4.2,6.1-6.4,9.1C17.4,38.1,16.7,38.5,15.5,37.6z"/>
		<path class="st0" d="M250.5,34.9c1.9-2.5,3.9-4.9,5.8-7.4c0.4-0.5,0.9-0.8,1.4-0.3c0.3,0.3,0.5,1,0.5,1.5c0,0.4-0.2,0.9-0.5,1.2
			c-1.8,2.4-3.7,4.7-6,6.8C250.7,37.6,248.7,37.3,250.5,34.9z"/>
		<path class="st0" d="M67.9,27.5c-0.2,0.4-0.2,0.9-0.5,1.2c-1.8,2.7-3.6,5.5-5.4,8.2c-0.2,0.3-0.5,0.5-0.8,0.6
			c-0.2,0.1-0.5,0.1-0.6,0c-0.2-0.2-0.5-0.5-0.6-0.7c-0.1-0.3,0-0.7,0.1-1c1.9-2.9,3.7-5.9,5.6-8.8c0.1-0.2,0.3-0.4,0.5-0.4
			c0.3-0.1,0.7-0.1,1,0C67.6,26.7,67.7,27.1,67.9,27.5z"/>
		<path class="st0" d="M39,27.2c-0.1,0.3-0.2,0.8-0.5,1.1c-2,3-4.1,5.9-6.1,8.9c-0.1,0.2-0.3,0.4-0.5,0.5c-0.3,0.1-0.7,0.2-0.9,0.1
			c-0.2-0.1-0.5-0.5-0.4-0.8c0-0.4,0.2-0.9,0.4-1.3c1.7-2.7,3.5-5.5,5.3-8.2c0.4-0.5,1-0.9,1.5-1.2c0.2-0.1,0.6,0.1,0.9,0.3
			C38.8,26.6,38.8,26.9,39,27.2z"/>
		<path class="st0" d="M140.6,37.8c-1.3-0.4-0.4-1.2-0.3-1.7c0.2-0.6,0.6-1.2,1-1.7c1.6-2.3,4.1-5.6,5.7-7.9c0.7-1,2.4,0.9,1.7,1.9
			c-1.9,2.9-4.7,6.8-7.3,9.1C141.3,37.7,141.2,37.7,140.6,37.8z"/>
		<path class="st0" d="M264.5,35.9c-0.1-0.4,0.1-0.9,0.4-1.2c1.8-2.3,3.7-4.5,5.5-6.8c0.2-0.2,0.5-0.5,0.8-0.5c0.4,0,0.9,0,1.2,0.3
			c0.2,0.2,0.4,0.9,0.3,1.2c-0.5,0.9-1.2,1.6-1.8,2.4c-1.4,1.7-2.7,3.3-4.1,4.9C266.5,36.5,264.5,37.3,264.5,35.9z"/>
		<path class="st0" d="M263.9,27c0.7-1,2.6,0.1,1.7,1.5c-1.2,1.6-2.2,3.1-3.3,4.5c-1.1,1.3-2.2,2.6-3.4,3.8
			c-0.6,0.7-1.3,0.8-1.8,0.4c-0.5-0.5-0.4-1-0.1-1.5c0.4-0.7,0.9-1.3,1.4-1.9C260.3,31.5,262,29.4,263.9,27z"/>
		<path class="st0" d="M38.7,37.6c-0.3-0.4-0.6-0.7-0.7-0.9c0-0.4,0-1,0.2-1.3c2-2.9,4.1-5.7,6.2-8.5c0.1-0.2,0.4-0.3,0.6-0.3
			c0.2,0,0.5,0,0.6,0.1c0.2,0.2,0.6,0.5,0.6,0.7c0,0.4-0.1,0.9-0.4,1.3c-1.9,2.7-3.8,5.4-5.7,8C39.7,37,39.2,37.2,38.7,37.6z"/>
		<path class="st0" d="M53.4,27.8c-1.1,2.5-2.9,4.5-4.4,6.7c-0.5,0.9-1.1,1.7-1.8,2.4c-0.2,0.2-0.8,0.3-1.2,0.2
			c-0.6-0.2-0.7-0.8-0.5-1.4c0.1-0.2,0.2-0.4,0.3-0.6c1.8-2.6,3.6-5.2,5.4-7.7C51.7,26.6,52.2,26.7,53.4,27.8z"/>
		<path class="st0" d="M287.8,28.1c-1.7,2.9-5.2,6.9-7.7,9.1c-0.2,0.2-0.9,0.1-1.2-0.1c-0.3-0.2-0.5-1-0.3-1.2c1.8-2.4,5-6.5,7-8.8
			C286.2,26.4,288.5,26.8,287.8,28.1z"/>
		<path class="st0" d="M271.6,36.4c0-0.4,0.1-0.9,0.3-1.2c1.6-2,4.6-5.7,6.2-7.7c0.2-0.2,0.5-0.5,0.8-0.5c0.3,0,0.7,0,0.9,0.2
			c0.2,0.2,0.4,0.6,0.4,0.9c0,0.3-1.4,2.4-1.6,2.6c-1.7,2-3.3,4-5,5.9C273.3,36.9,271.4,37.7,271.6,36.4z"/>
		<path class="st0" d="M300.9,38.3c-0.1-0.5-0.3-0.9-0.2-1.3c0.1-0.4,0.4-0.8,0.6-1.2c2-2.9,3.9-5.8,5.9-8.7
			c0.2-0.3,0.4-0.5,0.6-0.8c0.4-0.5,0.9-0.7,1.5-0.4c0.6,0.3,0.6,1,0.3,1.5c-0.8,1.4-1.6,2.7-2.4,4.1c-1,1.6-2.1,3.2-3.2,4.8
			C303.3,37.3,302.4,38.1,300.9,38.3z"/>
		<path class="st0" d="M322.6,26.2c1.5,0.5,1.9,0.8,1.4,1.7c-0.5,0.9-1,1.8-1.5,2.6c-1.3,1.9-2.5,3.7-3.8,5.5
			c-0.5,0.7-1.3,1.3-2,1.8c-0.2,0.1-0.7,0-0.9-0.2c-0.2-0.2-0.3-0.6-0.3-0.9c0-0.3,0.2-0.6,0.4-0.9
			C318.1,32.6,320.3,29.4,322.6,26.2z"/>
		<path class="st0" d="M307.9,37.6c0.6-1,1.1-1.8,1.6-2.7c1.7-2.5,3.4-5,5.1-7.5c0.3-0.5,0.6-0.9,1-1.3c0.2-0.2,0.7-0.2,0.9-0.1
			c0.2,0.1,0.5,0.5,0.5,0.8c-0.1,0.5-0.2,1.1-0.5,1.6c-2.1,3-4.2,6.1-6.4,9.1C309.8,38.1,309.1,38.5,307.9,37.6z"/>
	</g>
	<g>
		<path class="st0" d="M616.1,27.5c-0.3,0.6-0.5,1.3-1,1.8c-1.6,1.9-3.3,3.7-5,5.5c-0.7,0.7-1.3,1.6-2.1,2.2
			c-0.3,0.2-0.9,0.3-1.2,0.1c-0.3-0.2-0.5-0.9-0.4-1.1c2-2.8,4.1-5.7,6.3-8.4c0.5-0.6,1.6-0.6,2.5-0.7
			C615.5,26.8,615.8,27.2,616.1,27.5z"/>
		<path class="st0" d="M542.6,27c-0.1,0.4-0.2,0.9-0.5,1.4c-0.9,1.3-1.8,2.6-2.7,3.9c-1.1,1.6-2.2,3.1-3.4,4.6
			c-0.3,0.3-0.6,0.6-1,0.9c-0.1,0.1-0.5,0.1-0.6,0c-0.2-0.2-0.6-0.5-0.5-0.7c0.2-0.9,0.4-1.8,0.9-2.5c2-2.7,4.1-5.3,6.2-8
			c0.2-0.2,0.8-0.2,1.2-0.2C542.3,26.3,542.4,26.6,542.6,27z"/>
		<path class="st0" d="M563.6,37.5c-0.2-0.6-0.6-1-0.5-1.3c0.3-0.9,0.6-1.7,1.1-2.4c1.7-2.3,3.5-4.5,5.2-6.7
			c0.2-0.2,0.6-0.5,0.8-0.5c0.4,0,0.9,0.1,1.2,0.4c0.2,0.1,0.3,0.6,0.2,0.9c-0.1,0.4-0.3,0.9-0.6,1.2c-2,2.5-4,5-6,7.4
			C564.9,36.9,564.3,37,563.6,37.5z"/>
		<path class="st0" d="M549.2,37.6c-0.3-0.5-0.6-0.9-0.7-1.2c0-0.4,0.2-0.9,0.4-1.2c1.9-2.5,3.8-5.1,5.7-7.6
			c0.3-0.4,0.6-0.8,0.9-0.9c0.3-0.2,0.9-0.1,1.2,0.1c0.2,0.1,0.3,0.6,0.3,0.9c0,0.3-0.2,0.7-0.4,0.9c-2.1,2.8-4.2,5.6-6.4,8.4
			C550.2,37.1,549.7,37.3,549.2,37.6z"/>
		<path class="st0" d="M541.5,37.9c-0.2-0.3-0.5-0.6-0.6-1c-0.1-0.3,0.1-0.7,0.3-0.9c2.3-3.2,4.7-6.3,7.1-9.5
			c0.2-0.2,0.6-0.3,0.9-0.4c0.5-0.1,1.2,0.6,1,1c-0.1,0.2-0.1,0.5-0.2,0.6c-2.5,3.2-4.9,6.5-7.4,9.7C542.4,37.7,542,37.7,541.5,37.9
			z"/>
		<path class="st0" d="M526.3,36.9c0-0.3,0-0.5,0.1-0.5c2.4-3,4.7-6.1,7.1-9.1c0.4-0.5,0.9-1.1,1.7-0.7c0.6,0.3,0.6,1.2-0.1,2.1
			c-2,2.7-4,5.5-6.1,8.2C528.3,37.7,527.3,37.9,526.3,36.9z"/>
		<path class="st0" d="M556.7,37.7c-0.3-0.3-0.7-0.6-0.7-0.8c0.1-0.6,0.2-1.3,0.6-1.9c1.7-2.6,3.5-5.2,5.3-7.8
			c0.2-0.3,0.4-0.6,0.7-0.7c0.4-0.1,0.9-0.3,1.3-0.1c0.3,0.2,0.5,0.8,0.4,1.1c-0.1,0.5-0.3,1.1-0.6,1.5c-1.8,2.6-3.7,5.1-5.6,7.6
			C557.7,37.1,557.2,37.3,556.7,37.7z"/>
		<path class="st0" d="M623.2,27.6c-0.2,0.4-0.2,0.9-0.5,1.2c-2.2,2.7-4.4,5.4-6.6,8c-0.2,0.2-0.6,0.3-0.9,0.5
			c-0.5,0.2-1.2-0.4-1.1-0.9c0.1-0.5,0.3-1.1,0.6-1.5c2-2.6,4-5.1,6-7.7c0.5-0.6,1.2-0.7,1.8-0.4C622.8,26.9,622.9,27.3,623.2,27.6z
			"/>
		<path class="st0" d="M571.1,37.2c-0.2-0.5-0.5-0.9-0.5-1.2c0-0.4,0.3-0.8,0.6-1.2c1.9-2.5,3.9-4.9,5.8-7.4
			c0.4-0.5,0.9-0.8,1.4-0.3c0.3,0.3,0.5,1,0.5,1.5c0,0.4-0.2,0.9-0.5,1.2c-1.8,2.4-3.7,4.8-6,6.8C572.1,36.8,571.7,36.9,571.1,37.2z
			"/>
		<path class="st0" d="M826.9,38.1c-0.3-0.4-0.6-0.7-0.6-0.9c0.2-0.9,0.3-1.8,0.8-2.5c1.8-2.7,3.8-5.3,5.7-8
			c0.1-0.2,0.3-0.3,0.5-0.5c0.5-0.5,1.5-0.2,1.6,0.5c0.1,0.5,0.2,1.1,0,1.6c-0.2,0.7-0.6,1.4-1.1,2.1c-1.8,2.3-3.6,4.6-5.5,6.8
			C828,37.6,827.4,37.8,826.9,38.1z"/>
		<path class="st0" d="M820.1,37.8c-0.4-0.6-0.8-0.9-1-1.4c-0.1-0.2,0.1-0.7,0.2-0.9c1.7-2.6,3.4-5.3,5.1-7.9c0.2-0.3,0.6-0.7,1-0.8
			c0.6-0.2,1.2-0.7,1.9-0.1c0.6,0.6,0.4,1.3,0,1.8c-1.9,2.8-3.8,5.5-5.8,8.3C821.2,37.1,820.6,37.3,820.1,37.8z"/>
		<path class="st0" d="M804.8,37.8c-0.6-1-0.5-2,0.1-2.9c2-2.8,4-5.5,6-8.2c0.3-0.5,0.9-0.7,1.5-0.4c0.6,0.3,0.8,1.1,0.4,1.8
			c-2,3-4,6-6,9C806.3,37.8,805.6,38.1,804.8,37.8z"/>
		<path class="st0" d="M797.2,36.5c0-0.2,0.1-0.5,0.3-0.8c1.9-2.8,3.7-5.7,5.6-8.5c0.2-0.4,0.7-0.6,1.1-0.8c0.3-0.1,0.7-0.1,0.9,0.1
			c0.2,0.2,0.4,0.6,0.4,0.9c0,0.3-0.1,0.7-0.3,1c-1.8,2.9-3.7,5.7-5.6,8.5c-0.2,0.4-0.7,0.6-1,0.8C798.1,37.9,797.1,37.2,797.2,36.5
			z"/>
		<path class="st0" d="M790.8,27.8c-0.1,0.2-0.2,0.6-0.4,1c-1.8,2.7-3.6,5.4-5.5,8.1c-0.1,0.2-0.3,0.4-0.5,0.5
			c-0.4,0.1-0.9,0.3-1.2,0.1c-0.3-0.2-0.4-0.7-0.5-1.1c0-0.2,0.1-0.4,0.2-0.6c1.9-2.9,3.8-5.9,5.7-8.8c0.2-0.2,0.5-0.4,0.8-0.5
			C790,26.3,790.9,27,790.8,27.8z"/>
		<path class="st0" d="M842.2,27.3c-0.2,0.5-0.3,1-0.5,1.4c-1.8,2.6-3.5,5.2-5.3,7.8c-0.3,0.4-0.7,0.9-1.2,1.1
			c-0.3,0.1-0.9,0-1.2-0.2c-0.2-0.1-0.3-0.6-0.2-0.9c0.1-0.4,0.4-0.8,0.6-1.2c1.7-2.7,3.5-5.5,5.2-8.2c0.1-0.2,0.3-0.4,0.4-0.5
			c0.4-0.1,0.9-0.3,1.2-0.1C841.6,26.6,841.8,27,842.2,27.3z"/>
		<path class="st0" d="M797.2,26.2c1.1,1.1,1.1,2.2,0.5,3.2c-1.8,2.7-3.7,5.4-5.6,8c-0.1,0.2-0.3,0.4-0.5,0.4
			c-0.4,0-0.9,0.1-1.2-0.1c-0.2-0.1-0.3-0.6-0.2-0.9c0.1-0.4,0.3-0.8,0.6-1.2c1.6-2.6,3.3-5.1,5-7.7C796,27.4,796.6,26.9,797.2,26.2
			z"/>
		<path class="st0" d="M820.3,27.3c-0.3,0.7-0.5,1.5-0.9,2.1c-1.7,2.5-3.5,5-5.2,7.5c-0.6,0.8-1.1,1-1.7,0.6c-0.8-0.5-1-1.3-0.5-2
			c2-2.9,4.1-5.7,6.2-8.5c0.1-0.2,0.3-0.4,0.5-0.5c0.3-0.1,0.7-0.2,0.9-0.1C819.8,26.5,820,26.9,820.3,27.3z"/>
		<path class="st0" d="M783.3,27.5c-0.2,0.4-0.2,0.9-0.5,1.2c-1.8,2.7-3.6,5.5-5.4,8.2c-0.2,0.3-0.5,0.5-0.8,0.6
			c-0.2,0.1-0.5,0.1-0.6,0c-0.2-0.2-0.5-0.5-0.6-0.7c-0.1-0.3,0-0.7,0.1-1c1.9-2.9,3.7-5.9,5.6-8.8c0.1-0.2,0.3-0.4,0.5-0.4
			c0.3-0.1,0.7-0.1,1,0C783,26.7,783.1,27.1,783.3,27.5z"/>
		<path class="st0" d="M644.2,38.1c-0.3-0.4-0.6-0.7-0.6-0.9c0.2-0.9,0.3-1.8,0.8-2.5c1.8-2.7,3.8-5.3,5.7-8
			c0.1-0.2,0.3-0.3,0.5-0.5c0.5-0.5,1.5-0.2,1.6,0.5c0.1,0.5,0.2,1.1,0,1.6c-0.2,0.7-0.6,1.4-1.1,2.1c-1.8,2.3-3.6,4.6-5.5,6.8
			C645.2,37.6,644.7,37.8,644.2,38.1z"/>
		<path class="st0" d="M637.3,37.8c-0.4-0.6-0.8-0.9-1-1.4c-0.1-0.2,0.1-0.7,0.2-0.9c1.7-2.6,3.4-5.3,5.1-7.9c0.2-0.3,0.6-0.7,1-0.8
			c0.6-0.2,1.2-0.7,1.9-0.1c0.6,0.6,0.4,1.3,0,1.8c-1.9,2.8-3.8,5.5-5.8,8.3C638.4,37.1,637.9,37.3,637.3,37.8z"/>
		<path class="st0" d="M724.1,37.7c0-1-0.2-1.8,0.1-2.2c2.1-2.9,4.3-5.8,6.5-8.7c0.2-0.3,0.8-0.5,1.2-0.4c0.7,0.1,0.9,0.8,0.8,1.3
			c-0.1,0.8-0.3,1.6-0.8,2.2c-2,2.4-4.1,4.8-6.2,7.2C725.4,37.3,724.9,37.3,724.1,37.7z"/>
		<path class="st0" d="M622,37.8c-0.6-1-0.5-2,0.1-2.9c2-2.8,4-5.5,6-8.2c0.3-0.5,0.9-0.7,1.5-0.4c0.6,0.3,0.8,1.1,0.4,1.8
			c-2,3-4,6-6,9C623.6,37.8,622.9,38.1,622,37.8z"/>
		<path class="st0" d="M716.7,38.1c-0.3-1-0.5-1.4-0.5-1.8c0-0.4,0.3-0.9,0.5-1.2c2.3-2.9,4.7-5.7,7.1-8.5c0.2-0.2,0.5-0.4,0.8-0.5
			c0.9,0.1,1.2,0.7,1,1.5c-0.2,0.5-0.5,1-0.9,1.4c-1.8,2.4-3.7,4.8-5.6,7.2C718.6,36.7,717.8,37.2,716.7,38.1z"/>
		<path class="st0" d="M740.2,27.5c-0.3,0.6-0.4,1.1-0.7,1.4c-2.1,2.6-4.3,5.2-6.5,7.8c-0.2,0.2-0.5,0.4-0.8,0.5
			c-0.5,0.2-1.3-0.3-1.2-0.8c0.1-0.5,0.3-1.1,0.6-1.5c1.8-2.4,3.6-4.9,5.5-7.2c0.3-0.4,0.9-0.9,1.4-0.9
			C739,26.7,739.5,27.2,740.2,27.5z"/>
		<path class="st0" d="M701.4,38.2c0-0.5-0.2-1-0.1-1.3c0.5-1,1.2-1.9,1.8-2.8c1.2-1.7,2.3-3.3,3.6-4.9c1-1.2,2.2-2.3,3.4-3.3
			c0.2-0.2,0.8-0.1,1.2,0c0.1,0.1,0.2,0.6,0.1,0.9c-0.1,0.4-0.4,0.8-0.7,1.2c-2,2.6-4,5.2-6.1,7.7C703.8,36.8,703,37.9,701.4,38.2z"
			/>
		<path class="st0" d="M754.6,27c-0.1,0.4-0.2,0.9-0.5,1.4c-0.9,1.3-1.8,2.6-2.7,3.9c-1.1,1.6-2.2,3.1-3.4,4.6
			c-0.3,0.3-0.6,0.6-1,0.9c-0.1,0.1-0.5,0.1-0.6,0c-0.2-0.2-0.6-0.5-0.5-0.7c0.2-0.9,0.4-1.8,0.9-2.5c2-2.7,4.1-5.3,6.2-8
			c0.2-0.2,0.8-0.2,1.2-0.2C754.2,26.3,754.4,26.6,754.6,27z"/>
		<path class="st0" d="M694.1,37.9c0.3-1.5,1-2.5,1.7-3.5c1.8-2.3,3.6-4.6,5.4-6.9c0.3-0.4,0.7-0.9,1.2-1.1c0.3-0.2,0.9-0.2,1.2,0
			c0.3,0.2,0.4,0.9,0.3,1.2c-0.2,0.6-0.6,1.2-1,1.7c-2,2.5-3.9,4.9-5.9,7.4C696.3,37.3,695.7,38.2,694.1,37.9z"/>
		<path class="st0" d="M659.4,27.3c-0.2,0.5-0.3,1-0.5,1.4c-1.8,2.6-3.5,5.2-5.3,7.8c-0.3,0.4-0.7,0.9-1.2,1.1
			c-0.3,0.1-0.9,0-1.2-0.2c-0.2-0.1-0.3-0.6-0.2-0.9c0.1-0.4,0.4-0.8,0.6-1.2c1.7-2.7,3.5-5.5,5.2-8.2c0.1-0.2,0.3-0.4,0.4-0.5
			c0.4-0.1,0.9-0.3,1.2-0.1C658.9,26.6,659.1,27,659.4,27.3z"/>
		<path class="st0" d="M666.1,26.1c0.2,0.4,0.5,0.8,0.5,1.1c-0.1,0.8-0.2,1.6-0.6,2.2c-1.7,2.6-3.6,5.2-5.4,7.8
			c-0.1,0.2-0.3,0.4-0.5,0.5c-0.4,0.1-0.9,0.3-1.2,0.2c-0.3-0.1-0.5-0.7-0.5-1.1c0-0.4,0.2-0.9,0.4-1.3c2.2-3,4.4-6,6.6-9.1
			C665.5,26.3,665.7,26.3,666.1,26.1z"/>
		<path class="st0" d="M761.2,37.6c-0.3-0.5-0.6-0.9-0.7-1.2c0-0.4,0.2-0.9,0.4-1.2c1.9-2.5,3.8-5.1,5.7-7.6
			c0.3-0.4,0.6-0.8,0.9-0.9c0.3-0.2,0.9-0.1,1.2,0.1c0.2,0.1,0.3,0.6,0.3,0.9c0,0.3-0.2,0.7-0.4,0.9c-2.1,2.8-4.2,5.6-6.4,8.4
			C762.2,37.1,761.7,37.3,761.2,37.6z"/>
		<path class="st0" d="M753.4,37.9c-0.2-0.3-0.5-0.6-0.6-1c-0.1-0.3,0.1-0.7,0.3-0.9c2.3-3.2,4.7-6.3,7.1-9.5
			c0.2-0.2,0.6-0.3,0.9-0.4c0.5-0.1,1.2,0.6,1,1c-0.1,0.2-0.1,0.5-0.2,0.6c-2.5,3.2-4.9,6.5-7.4,9.7
			C754.4,37.7,753.9,37.7,753.4,37.9z"/>
		<path class="st0" d="M718,27.1c0.1,1.1-0.4,1.9-1,2.8c-1.9,2.4-3.8,4.8-5.6,7.2c-0.1,0.2-0.3,0.4-0.5,0.4c-0.4,0-0.9,0.1-1.2-0.1
			c-0.2-0.1-0.4-0.6-0.4-0.9c0.1-0.5,0.3-1.1,0.6-1.5c2.1-2.7,4.3-5.3,6.4-7.9C716.9,26.4,717.4,26.4,718,27.1z"/>
		<path class="st0" d="M738.2,36.9c0-0.3,0-0.5,0.1-0.5c2.4-3,4.7-6.1,7.1-9.1c0.4-0.5,0.9-1.1,1.7-0.7c0.6,0.3,0.6,1.2-0.1,2.1
			c-2,2.7-4,5.5-6.1,8.2C740.3,37.7,739.3,37.9,738.2,36.9z"/>
		<path class="st0" d="M637.5,27.3c-0.3,0.7-0.5,1.5-0.9,2.1c-1.7,2.5-3.5,5-5.2,7.5c-0.6,0.8-1.1,1-1.7,0.6c-0.8-0.5-1-1.3-0.5-2
			c2-2.9,4.1-5.7,6.2-8.5c0.1-0.2,0.3-0.4,0.5-0.5c0.3-0.1,0.7-0.2,0.9-0.1C637.1,26.5,637.2,26.9,637.5,27.3z"/>
		<path class="st0" d="M768.7,37.7c-0.3-0.3-0.7-0.6-0.7-0.8c0.1-0.6,0.2-1.3,0.6-1.9c1.7-2.6,3.5-5.2,5.3-7.8
			c0.2-0.3,0.4-0.6,0.7-0.7c0.4-0.1,0.9-0.3,1.3-0.1c0.3,0.2,0.5,0.8,0.4,1.1c-0.1,0.5-0.3,1.1-0.6,1.5c-1.8,2.6-3.7,5.1-5.6,7.6
			C769.7,37.1,769.2,37.3,768.7,37.7z"/>
		<path class="st0" d="M695.8,25.7c0.3,0.9,0.6,1.3,0.6,1.8c0,0.3-0.2,0.6-0.4,0.9c-2.1,3-4.3,6-6.5,9c-0.4,0.6-1,1.3-1.9,1
			c-0.7-0.3-0.8-1.2,0-2.3C690.2,32.6,692.8,29.2,695.8,25.7z"/>
		<path class="st0" d="M666,37.4c-0.1-0.7-0.3-1.3-0.2-1.7c0.1-0.5,0.5-1,0.8-1.5c1.7-2.3,3.5-4.6,5.3-7c0.4-0.5,0.9-0.8,1.4-0.3
			c0.3,0.3,0.6,1.1,0.4,1.4c-1.6,3.1-3.5,6-6,8.4C667.4,37.1,666.8,37.2,666,37.4z"/>
		<path class="st0" d="M688.4,26.2c0.1,1.3,0.3,1.8,0.2,2.3c-0.2,0.6-0.6,1.2-1,1.8c-1.6,2.2-3.3,4.3-4.9,6.4
			c-0.3,0.4-0.8,0.8-1.3,1.1c-0.2,0.1-0.7,0.1-0.9-0.1c-0.2-0.2-0.4-0.6-0.4-0.9c0.1-0.5,0.4-1.1,0.7-1.5c1.6-2.3,3.3-4.6,5-6.8
			C686.4,27.8,687.2,27.3,688.4,26.2z"/>
		<path class="st0" d="M673.5,37.1c-0.1-0.7-0.4-1.2-0.3-1.7c0.2-0.6,0.6-1.2,1-1.7c1.6-2.3,3.3-4.6,4.9-6.8
			c1.8,0.3,2.4,0.9,1.7,1.9c-1.9,2.9-3.8,5.8-6.5,8.1C674.2,37,674.1,37,673.5,37.1z"/>
		<path class="st0" d="M586.1,36.9c-0.3-0.5-0.7-0.8-0.8-1.2c-0.1-0.4,0.1-0.9,0.4-1.2c1.8-2.3,3.7-4.5,5.5-6.8
			c0.2-0.2,0.5-0.5,0.8-0.5c0.4,0,0.9,0,1.2,0.3c0.2,0.2,0.4,0.9,0.3,1.2c-0.5,0.9-1.2,1.6-1.8,2.4c-1.4,1.7-2.7,3.3-4.1,4.9
			C587.2,36.3,586.6,36.5,586.1,36.9z"/>
		<path class="st0" d="M584.8,26.8c0.6,0.6,1.1,1,1.7,1.5c-1.2,1.6-2.2,3.1-3.3,4.5c-1.1,1.3-2.2,2.6-3.4,3.8
			c-0.6,0.7-1.3,0.8-1.8,0.4c-0.5-0.5-0.4-1-0.1-1.5c0.4-0.7,0.9-1.3,1.4-1.9C581.1,31.3,582.9,29.2,584.8,26.8z"/>
		<path class="st0" d="M608.6,28c-1.7,2.9-5.2,7-7.7,9.2c-0.2,0.2-0.9,0.1-1.2-0.1c-0.3-0.2-0.5-1-0.3-1.2c1.8-2.4,5-6.6,7-8.9
			C607,26.4,607.9,26.9,608.6,28z"/>
		<path class="st0" d="M592.9,37.3c-0.3-0.4-0.6-0.7-0.6-0.9c0-0.4,0.1-0.9,0.3-1.2c1.6-2,4.6-5.8,6.2-7.8c0.2-0.2,0.5-0.5,0.8-0.5
			c0.3,0,0.7,0,0.9,0.2c0.2,0.2,0.4,0.6,0.4,0.9c0,0.3-0.2,0.7-0.4,0.9c-1.7,2-4.6,5.8-6.3,7.7C594.1,36.9,593.5,37,592.9,37.3z"/>
	</g>
</g>
<rect y="0" class="st1" width="850.4" height="56.7"/>
<path id="_x30_3" class="st2" d="M604.4-58.4c-1,0-2-0.1-2.9-0.1c-2,0-4,0.1-5.9,0.2c-6.7,0-13.5,0-20.2,0c-7.8,0-15.5,0-23.3-0.1
	c-4.3,0-8.6-0.2-12.9-0.3c-3.7-0.1-7.4,0-11.1-0.1c-4.3-0.1-8.6-0.2-12.9-0.3c-4.4-0.1-8.8-0.2-13.2-0.1c-8.8,0-17.6-0.3-26.4,0
	c-3.2,0.1-6.4-0.1-9.6,0c-4.9,0.2-9.8,0.1-14.8,0c-2.6-0.1-5.2,0.1-7.8,0.2c-2.5,0.1-5,0.2-7.5,0.2c-2.3,0-4.7-0.1-7-0.1
	c-4.1,0-8.1,0.2-12.2,0.2c-5.5,0-11-0.1-16.6-0.2c-3.4-0.1-6.7-0.3-10.1-0.3c-5.8,0.1-11.6,0.3-17.3,0.4c-0.4,0-0.9,0.1-1.3,0.1
	c-7.3,0.4-14.6,0.5-22,0.3c-0.8,0-1.6,0-2.3,0c-2.8,0.1-5.7,0.3-8.5,0.4c-2.2,0.1-4.5,0.2-6.7,0.2c-3.8,0-18.6-0.6-20.6-0.6
	c-6.7,0-13.5,0-20.2,0c-7.8,0-15.5,0-23.3-0.1c-4.3,0-8.6-0.2-12.9-0.3c-3.7-0.1-7.4,0-11.1-0.1c-4.3-0.1-8.6-0.2-12.9-0.3
	c-4.4-0.1-8.8-0.2-13.2-0.1c-8.8,0-17.6-0.3-26.4,0c-3.2,0.1-6.4-0.1-9.6,0c-4.9,0.2-9.8,0.1-14.8,0c-2.6-0.1-5.2,0.1-7.8,0.2
	c-2.5,0.1-5,0.2-7.5,0.2c-2.3,0-4.7-0.1-7-0.1c-4.1,0-8.1,0.2-12.2,0.2c-5.5,0-11-0.1-16.6-0.2c-3.4-0.1-6.7-0.3-10.1-0.3
	c-5.8,0.1-11.6,0.3-17.3,0.4c-0.4,0-0.9,0.1-1.3,0.1c-7.3,0.4-14.6,0.5-22,0.3c-0.8,0-1.6,0-2.3,0c-2.8,0.1-5.7,0.3-8.5,0.4
	c-2.2,0.1-4.5,0.2-6.7,0.2c-4.6,0-9.1,0-13.7,0c-0.4,0-0.8,0.1-1.4,0.1c0.2,0.6,0.5,1.2,0.7,1.7c0.7,0.1,1.2,0.2,1.8,0.2
	c1.2,0,2.4,0.1,3.6,0.1c2,0,4,0.1,5.9,0c3.8-0.3,7.6-0.4,11.4-0.3c1.5,0,2.9,0.1,4.4,0.1c3.2-0.1,6.4-0.2,9.5-0.3
	c1.7-0.1,3.4,0,5.1-0.1c5-0.2,9.9-0.7,14.9-0.7c1.6,0,3.3,0,4.9,0c2.7,0,5.5-0.2,8.2,0.2c0.4,0.1,0.9,0,1.3,0c2.2,0,4.5-0.1,6.7-0.1
	c4.8,0,9.6-0.2,14.5-0.4c0.8,0,1.5-0.1,2.3-0.1c7.2,0.1,14.5,0.2,21.7,0.3c2.4,0,4.8,0.1,7.2,0.1c3.1,0.1,6.2-0.2,9.3-0.3
	c5.2-0.1,10.3-0.1,15.5-0.1c2.1,0,4.1-0.2,6.1,0.4c0.4,0.1,0.9,0.1,1.3,0.1c2.2-0.1,4.5,0.2,6.7-0.2c0.4-0.1,0.9,0,1.3,0
	c3.4-0.1,6.7-0.1,10.1-0.1c2.4,0,4.8,0,7.2,0c2.5,0,5,0.1,7.5,0.1c2.4,0,4.8-0.1,7.2-0.2c2.7-0.1,5.3,0.1,8,0.1
	c5.2,0,10.3,0.2,15.5,0.3c1.2,0,2.4,0.2,3.6,0.2c2.4,0.1,4.8,0.1,7.2,0.1c1.5,0,2.9,0,4.4,0.1c2.1,0.1,4.3,0.3,6.4,0.3
	c4,0.1,7.9,0.2,11.9,0.2c4.5,0,9-0.1,13.4-0.3c2.8-0.2,5.5,0,8.3-0.1c3.1-0.1,28.4,0.5,32.2,0.6c1.5,0,2.9,0.1,4.4,0.1
	c3.2-0.1,6.4-0.2,9.5-0.3c1.7-0.1,3.4,0,5.1-0.1c5-0.2,9.9-0.7,14.9-0.7c1.6,0,3.3,0,4.9,0c2.7,0,5.5-0.2,8.2,0.2
	c0.4,0.1,0.9,0,1.3,0c2.2,0,4.5-0.1,6.7-0.1c4.8,0,9.6-0.2,14.5-0.4c0.8,0,1.5-0.1,2.3-0.1c7.2,0.1,14.5,0.2,21.7,0.3
	c2.4,0,4.8,0.1,7.2,0.1c3.1,0.1,6.2-0.2,9.3-0.3c5.2-0.1,10.3-0.1,15.5-0.1c2.1,0,4.1-0.2,6.1,0.4c0.4,0.1,0.9,0.1,1.3,0.1
	c2.2-0.1,4.5,0.2,6.7-0.2c0.4-0.1,0.9,0,1.3,0c3.4-0.1,6.7-0.1,10.1-0.1c2.4,0,4.8,0,7.2,0c2.5,0,5,0.1,7.5,0.1
	c2.4,0,4.8-0.1,7.2-0.2c2.7-0.1,5.3,0.1,8,0.1c5.2,0,10.3,0.2,15.5,0.3c1.2,0,2.4,0.2,3.6,0.2c2.4,0.1,4.8,0.1,7.2,0.1
	c1.5,0,2.9,0,4.4,0.1c2.1,0.1,4.3,0.3,6.4,0.3c4,0.1,7.9,0.2,11.9,0.2c4.5,0,9-0.1,13.4-0.3c2.8-0.2,5.5,0,8.3-0.1
	c3.3-0.1,6.5,0,9.8,0c1.1,0,2.2,0,3.4-0.4C605.1-57.5,604.8-57.9,604.4-58.4z"/>
</svg>
