<svg xmlns="http://www.w3.org/2000/svg" viewBox="0 0 273.25 58.8"><title>contact</title><g id="レイヤー_2" data-name="レイヤー 2"><g id="レイヤー_1-2" data-name="レイヤー 1"><path d="M6.45,58.8a6.93,6.93,0,0,1-4.82-1.64A3.83,3.83,0,0,1,.41,55.44,6.42,6.42,0,0,1,0,53.17,14.07,14.07,0,0,1,2.14,46.4a33.14,33.14,0,0,1,5.45-7.09,34.74,34.74,0,0,1,7.27-5.59,15.26,15.26,0,0,1,7.59-2.27,5.73,5.73,0,0,1,3.23.68,3.11,3.11,0,0,1,1.23,1.5q.73,1.91-1.32,4.86a49.69,49.69,0,0,1-7.13,7.59,1.47,1.47,0,0,1-.91.27,1.23,1.23,0,0,1-.91-.36,1.64,1.64,0,0,1,.09-2,59.34,59.34,0,0,0,4.68-4.5,22.81,22.81,0,0,0,2.27-2.86A4.4,4.4,0,0,0,24.4,35c0-.33,0-.53,0-.59a5.18,5.18,0,0,0-.59-.23,5,5,0,0,0-1.41-.14,13.21,13.21,0,0,0-6.77,2.09,32.24,32.24,0,0,0-6.45,5.09,30.49,30.49,0,0,0-4.82,6.27,11.89,11.89,0,0,0-1.86,5.63,2.27,2.27,0,0,0,.91,2q.64.82,3,.82A25.12,25.12,0,0,0,14,54.76a56.53,56.53,0,0,0,7.59-3,65.1,65.1,0,0,0,7-3.91q3.32-2.13,5.81-4t5.41-4.27q.91-.91,2,.09a1.11,1.11,0,0,1,.27.82,1.39,1.39,0,0,1-.45,1q-.18.18-1.77,1.5t-4.18,3.23q-2.59,1.91-6,4.13a64.1,64.1,0,0,1-7.27,4.09,53.9,53.9,0,0,1-8,3.09A27.73,27.73,0,0,1,6.45,58.8Z"/><path d="M56.24,47.72a8.7,8.7,0,0,1-1.32-.09l-1.32-.18a1.27,1.27,0,0,0-.54-.09,46.94,46.94,0,0,1-3.77,4A30.8,30.8,0,0,1,45,54.85a25.33,25.33,0,0,1-4.54,2.41,11.75,11.75,0,0,1-4.36.91,5.07,5.07,0,0,1-3.54-1.09,5.11,5.11,0,0,1-.86-1.23,4.38,4.38,0,0,1-.41-2,12.83,12.83,0,0,1,2-6.18,32.83,32.83,0,0,1,5.27-6.77,34.23,34.23,0,0,1,7.18-5.5,15.68,15.68,0,0,1,7.86-2.27,5.3,5.3,0,0,1,3.36,1l.68,1.14a3.83,3.83,0,0,1,.41,2,9.12,9.12,0,0,1-.86,3.54,23.31,23.31,0,0,1-2.41,4.18,14.25,14.25,0,0,0,4.36-.14,27.54,27.54,0,0,0,4.63-1.23,30.51,30.51,0,0,0,4.27-1.91,23.2,23.2,0,0,0,3.36-2.18,1.16,1.16,0,0,1,1-.27,1.1,1.1,0,0,1,.77.54,1.19,1.19,0,0,1,.41,1,1.23,1.23,0,0,1-.5.86,25,25,0,0,1-3.23,2.09,36.56,36.56,0,0,1-4.22,2,34.26,34.26,0,0,1-4.73,1.5A19.78,19.78,0,0,1,56.24,47.72ZM33.89,53.8a1.67,1.67,0,0,0,.45,1.36,1,1,0,0,0,.77.41c.33,0,.65,0,1,0a9.05,9.05,0,0,0,3.54-.82,21.91,21.91,0,0,0,3.82-2.14,33.53,33.53,0,0,0,3.73-3,40.43,40.43,0,0,0,3.36-3.5,5.19,5.19,0,0,1-1.64-2,7.07,7.07,0,0,1-.14-4.27,18.14,18.14,0,0,1,1.41-3.73,18.44,18.44,0,0,0-6,3.13A34.51,34.51,0,0,0,39,44.17a29.41,29.41,0,0,0-3.68,5.27A9.85,9.85,0,0,0,33.89,53.8ZM55.33,37.18a4.67,4.67,0,0,0,0-.73,1.69,1.69,0,0,0-.14-.46,3.19,3.19,0,0,0-1.54-.27,17,17,0,0,0-.86,1.5,20,20,0,0,0-.91,2,8.88,8.88,0,0,0-.55,2.09,4.16,4.16,0,0,0,.14,1.86,1.1,1.1,0,0,0,.14.36,1.49,1.49,0,0,0,.59.54,24.33,24.33,0,0,0,2.32-3.82A7.5,7.5,0,0,0,55.33,37.18Z"/><path d="M91.95,57.53h-.68a4,4,0,0,1-.77-.09,4,4,0,0,1-1.86-1,3.8,3.8,0,0,1-.77-1.09q-.73-2.18,1.64-5.41t6.36-7.77q1.54-1.63,3-3.5a13.71,13.71,0,0,0,2-3,13.28,13.28,0,0,0-5,1.32,38.67,38.67,0,0,0-6.22,3.77q-3.54,2.54-8.31,6.54T70.23,57.07a1.56,1.56,0,0,1-1,.36.89.89,0,0,1-.82-.45A1.35,1.35,0,0,1,68,56a1.08,1.08,0,0,1,.45-.86q7.81-7.81,10.86-12.81T82,36.45a7.56,7.56,0,0,0-3.73,1A28,28,0,0,0,75,40a6.77,6.77,0,0,1-.91.77q-.46.32-1,.77a1.1,1.1,0,0,1-1,.36,1.61,1.61,0,0,1-.91-.45,1.21,1.21,0,0,1-.32-1.09,1.66,1.66,0,0,1,.59-.91,5.63,5.63,0,0,1,1-.77,10,10,0,0,0,1-.77,40.53,40.53,0,0,1,3.77-2.73A8.78,8.78,0,0,1,82,34a2.33,2.33,0,0,1,2.45,1.45,4.73,4.73,0,0,1-.32,3.5,28.29,28.29,0,0,1-2.59,4.77Q84.86,41,87.68,39a57.36,57.36,0,0,1,5.18-3.32,23,23,0,0,1,4.45-2,14,14,0,0,1,4.09-.64,2.75,2.75,0,0,1,1.59.36,1.92,1.92,0,0,1,.68.82q.73,1.45-.86,3.59t-5,6q-1.09,1.18-2.45,2.77t-2.54,3.09a21.11,21.11,0,0,0-1.91,2.82q-.73,1.32-.45,2c0,.12.18.18.54.18A7.46,7.46,0,0,0,95.63,54a39,39,0,0,0,5.68-3q3-1.91,6-4.27t5.59-4.45l1.82-1.5q.82-.68,1.64-1.32a1.19,1.19,0,0,1,1.82.27,1.06,1.06,0,0,1,.36,1,1.6,1.6,0,0,1-.45.86,24.86,24.86,0,0,0-3.54,2.82q-2.55,2.09-5.5,4.41t-6,4.27a41.88,41.88,0,0,1-5.86,3.23A13.15,13.15,0,0,1,91.95,57.53Z"/><path d="M125.11,11.92a1.22,1.22,0,0,1-1.36-1.09,1.55,1.55,0,0,1,1.18-1.64l12.27-.82q1.82-2.09,3.45-4.09T143.83.56a1.84,1.84,0,0,1,1-.54,1.11,1.11,0,0,1,1,.36,2,2,0,0,1,.36.86,1.05,1.05,0,0,1-.36,1q-1.27,1.45-2.54,3t-2.54,3l25.17-1.54a1.68,1.68,0,0,1,1,.27,1,1,0,0,1,.41.91q.27,1.18-1.18,1.36L138.47,11q-5.09,6.36-9.59,12.77t-7.68,12a67.55,67.55,0,0,0-4.77,10q-1.59,4.41-.77,6.68a2.85,2.85,0,0,0,2.27,2,8.72,8.72,0,0,0,5.36-.77,42.47,42.47,0,0,0,6.59-3.5q3.41-2.18,6.77-4.82l6-4.72L144,39.45a1.16,1.16,0,0,1,1-.27,1.84,1.84,0,0,1,1,.54,1.16,1.16,0,0,1,.27,1,1.41,1.41,0,0,1-.54.86l-1.36,1.27q-2.91,2.36-6.18,4.86t-6.59,4.63A43.15,43.15,0,0,1,125,55.8a15.4,15.4,0,0,1-6,1.36h-.86a5.9,5.9,0,0,1-1-.09,5.76,5.76,0,0,1-4.09-3.63q-1-3,.64-7.9a61.64,61.64,0,0,1,4.86-10.63A139.37,139.37,0,0,1,126.2,23q4.36-6.18,8.81-11.81Z"/><path d="M141.1,57.89h-.82a2.24,2.24,0,0,1-.82-.18,4.27,4.27,0,0,1-2.91-3.82,8.68,8.68,0,0,1,0-3.18,13.43,13.43,0,0,1,1.32-3.77,23.92,23.92,0,0,1,2.63-4,24.26,24.26,0,0,1,4.09-4A37.52,37.52,0,0,1,153,34.27a12.76,12.76,0,0,1,7.27-.73,9.24,9.24,0,0,1,3.59,1.23,6.92,6.92,0,0,1,1.77,1.5,18.89,18.89,0,0,0,2.18-2.54c.73-.54,1.33-.57,1.82-.09a1.42,1.42,0,0,1,.54.86,1.15,1.15,0,0,1-.27,1q-1.63,2.18-3.32,4.91t-3,5.36a26.37,26.37,0,0,0-1.91,4.82,4.78,4.78,0,0,0,0,3.27l.54.55a2.47,2.47,0,0,0,1.64.36,12.54,12.54,0,0,0,3.32-.59,27.44,27.44,0,0,0,5.09-2.23,80,80,0,0,0,7.31-4.59q4.27-3,10-7.68a1.18,1.18,0,0,1,1-.41,1,1,0,0,1,.77.5,1.17,1.17,0,0,1-.09,1.82,133.16,133.16,0,0,1-16.31,11.95q-6.68,4-11,4a4.83,4.83,0,0,1-3.09-.82A5.84,5.84,0,0,1,159.27,55a6.32,6.32,0,0,1-.23-4.5,30.8,30.8,0,0,1,2-5.68q-2.36,2.36-5,4.68t-5.31,4.18a34.52,34.52,0,0,1-5.13,3A10.71,10.71,0,0,1,141.1,57.89ZM158.45,36a15.25,15.25,0,0,0-5.68,1.23,26.81,26.81,0,0,0-6.4,3.86,20.57,20.57,0,0,0-5.86,6.63,10.6,10.6,0,0,0-1.5,5.81,1.79,1.79,0,0,0,1.18,1.64q1.64.54,4.41-.77a33.47,33.47,0,0,0,6-3.86q3.27-2.54,6.72-5.77t6.45-6.5q0-.18-1-1A6.41,6.41,0,0,0,159.73,36Z"/><path d="M188.71,58.8a6.93,6.93,0,0,1-4.82-1.64,3.82,3.82,0,0,1-1.23-1.73,6.39,6.39,0,0,1-.41-2.27,14.08,14.08,0,0,1,2.13-6.77,33.13,33.13,0,0,1,5.45-7.09,34.73,34.73,0,0,1,7.27-5.59,15.26,15.26,0,0,1,7.59-2.27,5.74,5.74,0,0,1,3.23.68,3.12,3.12,0,0,1,1.23,1.5q.73,1.91-1.32,4.86a49.73,49.73,0,0,1-7.13,7.59,1.47,1.47,0,0,1-.91.27,1.23,1.23,0,0,1-.91-.36,1.64,1.64,0,0,1,.09-2,59.36,59.36,0,0,0,4.68-4.5,23,23,0,0,0,2.27-2.86,4.41,4.41,0,0,0,.73-1.59c0-.33,0-.53,0-.59a5.3,5.3,0,0,0-.59-.23,5,5,0,0,0-1.41-.14,13.21,13.21,0,0,0-6.77,2.09,32.27,32.27,0,0,0-6.45,5.09,30.47,30.47,0,0,0-4.82,6.27,11.9,11.9,0,0,0-1.86,5.63,2.27,2.27,0,0,0,.91,2q.64.82,3,.82a25.12,25.12,0,0,0,7.54-1.23,56.5,56.5,0,0,0,7.59-3,65.1,65.1,0,0,0,7-3.91q3.31-2.13,5.81-4t5.41-4.27q.91-.91,2,.09a1.11,1.11,0,0,1,.27.82,1.39,1.39,0,0,1-.45,1q-.18.18-1.77,1.5t-4.18,3.23q-2.59,1.91-6,4.13a64.09,64.09,0,0,1-7.27,4.09,53.92,53.92,0,0,1-8,3.09A27.73,27.73,0,0,1,188.71,58.8Z"/><path d="M231,11.92a1.22,1.22,0,0,1-1.36-1.09,1.55,1.55,0,0,1,1.18-1.64l12.27-.82q1.82-2.09,3.45-4.09T249.77.56a1.83,1.83,0,0,1,1-.54,1.11,1.11,0,0,1,1,.36,2,2,0,0,1,.36.86,1.05,1.05,0,0,1-.36,1q-1.27,1.45-2.54,3t-2.54,3l25.17-1.54a1.68,1.68,0,0,1,1,.27,1,1,0,0,1,.41.91Q273.48,9,272,9.19L244.41,11q-5.09,6.36-9.59,12.77t-7.68,12a67.44,67.44,0,0,0-4.77,10q-1.59,4.41-.77,6.68a2.85,2.85,0,0,0,2.27,2,8.72,8.72,0,0,0,5.36-.77,42.45,42.45,0,0,0,6.59-3.5q3.41-2.18,6.77-4.82l6-4.72,1.36-1.27a1.16,1.16,0,0,1,1-.27,1.84,1.84,0,0,1,1,.54,1.16,1.16,0,0,1,.27,1,1.41,1.41,0,0,1-.54.86l-1.36,1.27q-2.91,2.36-6.18,4.86t-6.59,4.63a43.18,43.18,0,0,1-6.54,3.5,15.39,15.39,0,0,1-6,1.36h-.86a5.91,5.91,0,0,1-1-.09,5.76,5.76,0,0,1-4.09-3.63q-1-3,.64-7.9a61.57,61.57,0,0,1,4.86-10.63A139.47,139.47,0,0,1,232.14,23q4.36-6.18,8.81-11.81Z"/></g></g></svg>