<?xml version="1.0" encoding="utf-8"?>
<!-- Generator: Adobe Illustrator 22.0.1, SVG Export Plug-In . SVG Version: 6.00 Build 0)  -->
<svg version="1.1" id="レイヤー_1" xmlns="http://www.w3.org/2000/svg" xmlns:xlink="http://www.w3.org/1999/xlink" x="0px"
	 y="0px" viewBox="0 0 273.2 58.8" style="enable-background:new 0 0 273.2 58.8;" xml:space="preserve">
<style type="text/css">
	.st0{fill:#FFFFFF;}
</style>
<title>contact</title>
<g id="レイヤー_2_1_">
	<g id="レイヤー_1-2">
		<path class="st0" d="M6.4,58.8c-1.8,0.1-3.5-0.5-4.8-1.6c-0.6-0.4-1-1-1.2-1.7C0.1,54.7,0,53.9,0,53.2c0.1-2.4,0.9-4.7,2.1-6.8
			c1.5-2.6,3.3-5,5.4-7.1c2.2-2.2,4.6-4.1,7.3-5.6c2.3-1.4,4.9-2.2,7.6-2.3c1.1-0.1,2.2,0.1,3.2,0.7c0.6,0.4,1,0.9,1.2,1.5
			c0.5,1.3,0,2.9-1.3,4.9c-2.1,2.8-4.5,5.3-7.1,7.6c-0.3,0.2-0.6,0.3-0.9,0.3c-0.3,0-0.7-0.1-0.9-0.4c-0.4-0.6-0.4-1.4,0.1-2
			c1.6-1.4,3.2-2.9,4.7-4.5c0.8-0.9,1.6-1.8,2.3-2.9c0.3-0.5,0.6-1,0.7-1.6c0-0.3,0-0.5,0-0.6c-0.2-0.1-0.4-0.2-0.6-0.2
			c-0.5-0.1-0.9-0.2-1.4-0.1c-2.4,0.1-4.7,0.8-6.8,2.1c-2.4,1.4-4.5,3.1-6.4,5.1c-1.9,1.9-3.5,4-4.8,6.3c-1.1,1.7-1.7,3.6-1.9,5.6
			c-0.1,0.8,0.3,1.5,0.9,2c0.4,0.5,1.4,0.8,3,0.8c2.6,0,5.1-0.4,7.6-1.2c2.6-0.8,5.1-1.8,7.6-3c2.4-1.2,4.7-2.5,7-3.9
			c2.2-1.4,4.2-2.8,5.8-4s3.5-2.7,5.4-4.3c0.6-0.6,1.3-0.6,2,0.1c0.2,0.2,0.3,0.5,0.3,0.8c0,0.4-0.2,0.7-0.5,1
			c-0.1,0.1-0.7,0.6-1.8,1.5c-1.1,0.9-2.5,2-4.2,3.2c-1.7,1.3-3.7,2.6-6,4.1c-2.3,1.5-4.8,2.9-7.3,4.1c-2.6,1.2-5.3,2.3-8,3.1
			C11.8,58.3,9.2,58.8,6.4,58.8z"/>
		<path class="st0" d="M56.2,47.7c-0.4,0-0.9,0-1.3-0.1l-1.3-0.2c-0.2-0.1-0.4-0.1-0.5-0.1c-1.2,1.4-2.4,2.7-3.8,4
			c-1.3,1.3-2.8,2.5-4.3,3.5c-1.4,1-2.9,1.8-4.5,2.4c-1.4,0.6-2.9,0.9-4.4,0.9c-1.3,0.1-2.5-0.3-3.5-1.1c-0.3-0.4-0.6-0.8-0.9-1.2
			c-0.3-0.6-0.4-1.3-0.4-2c0.1-2.2,0.8-4.3,2-6.2c1.5-2.5,3.2-4.8,5.3-6.8c2.1-2.1,4.6-4,7.2-5.5c2.4-1.4,5.1-2.2,7.9-2.3
			c1.2-0.1,2.4,0.3,3.4,1l0.7,1.1c0.3,0.6,0.5,1.3,0.4,2c0,1.2-0.3,2.4-0.9,3.5c-0.7,1.5-1.5,2.9-2.4,4.2c1.5,0.2,2.9,0.1,4.4-0.1
			c1.6-0.3,3.1-0.7,4.6-1.2c1.5-0.5,2.9-1.2,4.3-1.9c1.2-0.6,2.3-1.4,3.4-2.2c0.3-0.2,0.6-0.3,1-0.3c0.3,0.1,0.6,0.3,0.8,0.5
			c0.3,0.2,0.4,0.6,0.4,1c0,0.3-0.2,0.7-0.5,0.9c-1,0.8-2.1,1.5-3.2,2.1c-1.4,0.8-2.8,1.4-4.2,2c-1.5,0.6-3.1,1.1-4.7,1.5
			C59.4,47.6,57.8,47.7,56.2,47.7z M33.9,53.8c-0.1,0.5,0.1,1,0.5,1.4c0.2,0.2,0.5,0.4,0.8,0.4c0.3,0,0.7,0,1,0
			c1.2,0,2.4-0.3,3.5-0.8c1.3-0.6,2.6-1.3,3.8-2.1c1.3-0.9,2.6-1.9,3.7-3c1.2-1.1,2.3-2.3,3.4-3.5c-0.7-0.5-1.3-1.2-1.6-2
			c-0.5-1.4-0.5-2.9-0.1-4.3c0.3-1.3,0.8-2.5,1.4-3.7c-2.2,0.7-4.2,1.7-6,3.1c-1.9,1.5-3.6,3.1-5.2,4.9c-1.4,1.6-2.6,3.4-3.7,5.3
			C34.5,50.8,34,52.3,33.9,53.8z M55.3,37.2c0-0.2,0-0.5,0-0.7c0-0.2-0.1-0.3-0.1-0.5c-0.5-0.2-1-0.3-1.5-0.3
			c-0.3,0.5-0.6,1-0.9,1.5c-0.3,0.6-0.6,1.3-0.9,2c-0.3,0.7-0.5,1.4-0.5,2.1c-0.1,0.6,0,1.3,0.1,1.9c0,0.1,0.1,0.2,0.1,0.4
			c0.1,0.2,0.3,0.4,0.6,0.5c0.9-1.2,1.7-2.5,2.3-3.8C55,39.3,55.3,38.2,55.3,37.2z"/>
		<path class="st0" d="M91.9,57.5h-0.7c-0.3,0-0.5,0-0.8-0.1c-0.7-0.2-1.3-0.5-1.9-1c-0.3-0.3-0.6-0.7-0.8-1.1
			c-0.5-1.5,0.1-3.3,1.6-5.4c1.6-2.2,3.7-4.7,6.4-7.8c1-1.1,2-2.3,3-3.5c0.8-0.9,1.5-1.9,2-3c-1.7,0.1-3.4,0.6-5,1.3
			c-2.2,1.1-4.3,2.3-6.2,3.8c-2.4,1.7-5.1,3.9-8.3,6.5c-3.2,2.7-6.9,5.9-11.1,9.8c-0.3,0.2-0.6,0.4-1,0.4c-0.3,0-0.7-0.2-0.8-0.5
			c-0.3-0.3-0.4-0.6-0.4-1c0-0.3,0.2-0.7,0.4-0.9c5.2-5.2,8.8-9.5,10.9-12.8c2-3.3,2.9-5.3,2.7-5.9c-1.3,0-2.6,0.3-3.7,1
			C77.1,38.2,76,39.1,75,40c-0.3,0.3-0.6,0.5-0.9,0.8c-0.3,0.2-0.6,0.5-1,0.8c-0.2,0.3-0.6,0.4-1,0.4c-0.3,0-0.7-0.2-0.9-0.5
			c-0.3-0.3-0.4-0.7-0.3-1.1c0.1-0.4,0.3-0.7,0.6-0.9c0.3-0.3,0.6-0.6,1-0.8c0.3-0.2,0.7-0.5,1-0.8c1.2-1,2.5-1.9,3.8-2.7
			c1.4-0.8,3.1-1.3,4.8-1.2c1.1-0.1,2.1,0.5,2.4,1.5c0.3,1.2,0.2,2.4-0.3,3.5c-0.7,1.7-1.6,3.3-2.6,4.8c2.2-1.8,4.3-3.4,6.1-4.7
			c1.7-1.2,3.4-2.3,5.2-3.3c1.4-0.8,2.9-1.5,4.4-2c1.3-0.4,2.7-0.6,4.1-0.6c0.6,0,1.1,0.1,1.6,0.4c0.3,0.2,0.5,0.5,0.7,0.8
			c0.5,1,0.2,2.2-0.9,3.6c-1.1,1.4-2.7,3.4-5,6c-0.7,0.8-1.5,1.7-2.4,2.8c-0.9,1.1-1.8,2.1-2.5,3.1c-0.7,0.9-1.4,1.8-1.9,2.8
			c-0.5,0.9-0.6,1.5-0.4,2c0,0.1,0.2,0.2,0.5,0.2c1.6,0.3,3.2,0,4.6-0.7c2-0.8,3.9-1.8,5.7-3c2-1.3,4-2.7,6-4.3s3.9-3.1,5.6-4.5
			l1.8-1.5c0.5-0.5,1.1-0.9,1.6-1.3c0.5-0.4,1.2-0.4,1.7,0.1c0.1,0.1,0.1,0.1,0.1,0.2c0.3,0.2,0.4,0.6,0.4,1
			c-0.1,0.3-0.2,0.6-0.4,0.9c-1.3,0.8-2.4,1.8-3.5,2.8c-1.7,1.4-3.5,2.9-5.5,4.4c-2,1.5-4,3-6,4.3c-1.9,1.2-3.8,2.3-5.9,3.2
			C95.5,57.1,93.8,57.5,91.9,57.5z"/>
		<path class="st0" d="M125.1,11.9c-0.7,0.1-1.3-0.4-1.4-1.1c0,0,0,0,0,0c-0.1-0.8,0.4-1.5,1.2-1.6l12.3-0.8
			c1.2-1.4,2.4-2.8,3.4-4.1s2.1-2.6,3.2-3.7c0.3-0.3,0.6-0.5,1-0.5c0.4-0.1,0.7,0.1,1,0.4c0.2,0.3,0.3,0.5,0.4,0.9
			c0.1,0.4-0.1,0.8-0.4,1c-0.8,1-1.7,2-2.5,3s-1.7,2-2.5,3l25.2-1.5c0.4,0,0.7,0.1,1,0.3c0.3,0.2,0.4,0.6,0.4,0.9
			c0.2,0.8-0.2,1.2-1.2,1.4L138.5,11c-3.4,4.2-6.6,8.5-9.6,12.8s-5.6,8.3-7.7,12c-1.9,3.2-3.5,6.5-4.8,10c-1.1,2.9-1.3,5.2-0.8,6.7
			c0.3,1,1.2,1.8,2.3,2c1.8,0.3,3.7,0,5.4-0.8c2.3-1,4.5-2.1,6.6-3.5c2.3-1.5,4.5-3.1,6.8-4.8l6-4.7l1.3-1.2c0.3-0.2,0.6-0.3,1-0.3
			c0.4,0.1,0.7,0.3,1,0.5c0.2,0.3,0.3,0.6,0.3,1c-0.1,0.3-0.3,0.7-0.5,0.9l-1.4,1.3c-1.9,1.6-4,3.2-6.2,4.9
			c-2.2,1.7-4.4,3.2-6.6,4.6c-2.1,1.3-4.3,2.5-6.6,3.5c-1.9,0.9-3.9,1.3-6,1.4h-0.9c-0.3,0-0.7,0-1-0.1c-1.9-0.4-3.4-1.8-4.1-3.6
			c-0.7-2-0.5-4.6,0.6-7.9c1.3-3.7,2.9-7.2,4.9-10.6c2.3-4.1,4.9-8.1,7.6-11.9c2.9-4.1,5.8-8.1,8.8-11.8L125.1,11.9z"/>
		<path class="st0" d="M141.1,57.9h-0.8c-0.3,0-0.6-0.1-0.8-0.2c-1.7-0.6-2.8-2.1-2.9-3.8c-0.2-1.1-0.2-2.1,0-3.2
			c0.2-1.3,0.7-2.6,1.3-3.8c0.7-1.4,1.6-2.8,2.6-4c1.2-1.5,2.6-2.8,4.1-4c2.6-1.9,5.4-3.5,8.4-4.7c2.3-0.9,4.8-1.2,7.3-0.7
			c1.3,0.2,2.5,0.6,3.6,1.2c0.7,0.4,1.3,0.9,1.8,1.5c0.8-0.8,1.5-1.6,2.2-2.5c0.7-0.5,1.3-0.6,1.8-0.1c0.3,0.2,0.5,0.5,0.5,0.9
			c0.1,0.4,0,0.7-0.3,1c-1.1,1.5-2.2,3.1-3.3,4.9s-2.1,3.6-3,5.4c-0.8,1.5-1.4,3.2-1.9,4.8c-0.4,1.1-0.4,2.2,0,3.3l0.5,0.5
			c0.5,0.3,1.1,0.4,1.6,0.4c1.1,0,2.2-0.2,3.3-0.6c1.8-0.6,3.5-1.3,5.1-2.2c2.5-1.4,5-2.9,7.3-4.6c2.8-2,6.2-4.6,10-7.7
			c0.2-0.3,0.6-0.4,1-0.4c0.3,0,0.6,0.2,0.8,0.5c0.5,0.4,0.5,1.2,0.1,1.7c-0.1,0.1-0.1,0.1-0.2,0.2c-5.1,4.4-10.6,8.4-16.3,12
			c-4.5,2.7-8.1,4-11,4c-1.1,0.1-2.2-0.2-3.1-0.8c-0.6-0.5-1.2-1-1.6-1.7c-0.6-1.4-0.7-3-0.2-4.5c0.5-2,1.1-3.9,2-5.7
			c-1.6,1.6-3.2,3.1-5,4.7s-3.5,2.9-5.3,4.2c-1.6,1.1-3.3,2.1-5.1,3C144.2,57.4,142.7,57.8,141.1,57.9z M158.4,36
			c-2,0-3.9,0.5-5.7,1.2c-2.3,1-4.5,2.3-6.4,3.9c-2.4,1.8-4.4,4-5.9,6.6c-1,1.8-1.6,3.8-1.5,5.8c0,0.7,0.5,1.4,1.2,1.6
			c1.1,0.4,2.6,0.1,4.4-0.8c2.1-1.1,4.1-2.4,6-3.9c2.2-1.7,4.4-3.6,6.7-5.8c2.3-2.2,4.4-4.3,6.4-6.5c0-0.1-0.3-0.5-1-1
			c-0.9-0.7-1.9-1.1-3-1.3H158.4z"/>
		<path class="st0" d="M188.7,58.8c-1.8,0.1-3.5-0.5-4.8-1.6c-0.6-0.4-1-1-1.2-1.7c-0.3-0.7-0.4-1.5-0.4-2.3
			c0.1-2.4,0.9-4.7,2.1-6.8c1.5-2.6,3.3-5,5.4-7.1c2.2-2.2,4.6-4.1,7.3-5.6c2.3-1.4,4.9-2.2,7.6-2.3c1.1-0.1,2.2,0.1,3.2,0.7
			c0.6,0.4,1,0.9,1.2,1.5c0.5,1.3,0,2.9-1.3,4.9c-2.1,2.8-4.5,5.3-7.1,7.6c-0.3,0.2-0.6,0.3-0.9,0.3c-0.3,0-0.7-0.1-0.9-0.4
			c-0.4-0.6-0.4-1.4,0.1-2c1.6-1.4,3.2-2.9,4.7-4.5c0.8-0.9,1.6-1.8,2.3-2.9c0.3-0.5,0.6-1,0.7-1.6c0-0.3,0-0.5,0-0.6
			c-0.2-0.1-0.4-0.2-0.6-0.2c-0.5-0.1-0.9-0.2-1.4-0.1c-2.4,0.1-4.7,0.8-6.8,2.1c-2.4,1.4-4.5,3.1-6.4,5.1c-1.9,1.9-3.5,4-4.8,6.3
			c-1.1,1.7-1.7,3.6-1.9,5.6c-0.1,0.8,0.3,1.5,0.9,2c0.4,0.5,1.4,0.8,3,0.8c2.6,0,5.1-0.4,7.5-1.2c2.6-0.8,5.1-1.8,7.6-3
			c2.4-1.2,4.7-2.5,7-3.9c2.2-1.4,4.1-2.8,5.8-4c1.7-1.2,3.5-2.7,5.4-4.3c0.6-0.6,1.3-0.6,2,0.1c0.2,0.2,0.3,0.5,0.3,0.8
			c0,0.4-0.2,0.7-0.4,1c-0.1,0.1-0.7,0.6-1.8,1.5c-1.1,0.9-2.5,2-4.2,3.2c-1.7,1.3-3.7,2.7-6,4.1c-2.3,1.5-4.8,2.9-7.3,4.1
			c-2.6,1.2-5.3,2.3-8,3.1C194.1,58.3,191.4,58.8,188.7,58.8z"/>
		<path class="st0" d="M231,11.9c-0.7,0.1-1.3-0.4-1.4-1.1c0,0,0,0,0,0c-0.1-0.8,0.4-1.5,1.2-1.6l12.3-0.8c1.2-1.4,2.4-2.8,3.4-4.1
			c1.1-1.3,2.2-2.6,3.2-3.7c0.3-0.3,0.6-0.5,1-0.5c0.4-0.1,0.7,0.1,1,0.4c0.2,0.3,0.3,0.5,0.4,0.9c0.1,0.4-0.1,0.8-0.4,1
			c-0.8,1-1.7,2-2.5,3c-0.8,1-1.7,2-2.5,3l25.2-1.5c0.4,0,0.7,0.1,1,0.3c0.3,0.2,0.4,0.6,0.4,0.9c0.1,0.7-0.3,1.2-1.3,1.3L244.4,11
			c-3.4,4.2-6.6,8.5-9.6,12.8s-5.6,8.3-7.7,12c-1.9,3.2-3.5,6.5-4.8,10c-1.1,2.9-1.3,5.2-0.8,6.7c0.3,1,1.2,1.8,2.3,2
			c1.8,0.3,3.7,0,5.4-0.8c2.3-1,4.5-2.1,6.6-3.5c2.3-1.5,4.5-3.1,6.8-4.8l6-4.7l1.4-1.3c0.3-0.2,0.6-0.3,1-0.3
			c0.4,0.1,0.7,0.3,1,0.5c0.2,0.3,0.3,0.6,0.3,1c-0.1,0.3-0.3,0.7-0.5,0.9l-1.4,1.3c-1.9,1.6-4,3.2-6.2,4.9
			c-2.2,1.7-4.4,3.2-6.6,4.6c-2.1,1.4-4.3,2.5-6.5,3.5c-1.9,0.9-3.9,1.3-6,1.4h-0.9c-0.3,0-0.7,0-1-0.1c-1.9-0.4-3.4-1.8-4.1-3.6
			c-0.7-2-0.5-4.6,0.6-7.9c1.3-3.7,2.9-7.2,4.9-10.6c2.3-4.1,4.9-8,7.6-11.9c2.9-4.1,5.8-8.1,8.8-11.8L231,11.9z"/>
	</g>
</g>
</svg>
