<?xml version="1.0" encoding="utf-8"?>
<!-- Generator: Adobe Illustrator 22.0.1, SVG Export Plug-In . SVG Version: 6.00 Build 0)  -->
<svg version="1.1" id="レイヤー_1" xmlns="http://www.w3.org/2000/svg" xmlns:xlink="http://www.w3.org/1999/xlink" x="0px"
	 y="0px" viewBox="0 0 224.8 40.2" style="enable-background:new 0 0 224.8 40.2;" xml:space="preserve">
<style type="text/css">
	.st0{fill:#FFFFFF;}
</style>
<title>サービス</title>
<g id="レイヤー_2_1_">
	<g id="レイヤー_1-2">
		<path class="st0" d="M8.7,38.9c-0.4,0-0.9,0-1.3-0.1c-0.4-0.1-0.9-0.2-1.3-0.3c-1.5-0.5-2.7-1.4-3.7-2.6c-1.1-1.5-1.9-3.2-2.4-4.9
			c-0.2-0.7,0.2-1.3,0.9-1.5c0,0,0.1,0,0.1,0c0.3-0.1,0.7-0.1,0.9,0.1c0.3,0.2,0.5,0.4,0.6,0.8c0.4,1.3,1,2.5,1.8,3.6
			C4.9,34.7,5.5,35.1,6,35c1-0.1,1.8-0.7,2.4-1.5c1-1.2,1.9-2.4,2.6-3.7c1-1.7,1.8-3.4,2.6-5.2c0.8-1.9,1.6-3.9,2.2-5.8
			c-0.9,0.7-1.9,1.5-3.1,2.5s-2.6,2-3.9,3c-0.2,0.3-0.5,0.4-0.8,0.3c-0.3-0.1-0.6-0.2-0.9-0.4c-0.5-0.5-0.4-1.3,0.1-1.7
			c0.1-0.1,0.1-0.1,0.2-0.1l4.2-3.2c1.2-1,2.3-1.8,3.2-2.5c1-0.8,2-1.5,2.9-2.2c0.4-0.2,0.9-0.2,1.4,0c0.5,0.3,0.7,0.9,0.5,1.4
			c-0.2,0.7-0.7,2-1.3,3.9s-1.4,3.8-2.3,6c-0.9,2.1-2,4.2-3.2,6.2c-0.9,1.7-2.2,3.2-3.6,4.4c1.7,0,3.4-0.5,5-1.2
			c1.9-0.9,3.7-1.9,5.4-3.1c1.8-1.2,3.6-2.5,5.4-3.9c1.8-1.4,3.3-2.7,4.7-3.9c0.5-0.4,1-0.8,1.5-1.2c0.5-0.4,0.9-0.7,1.3-1
			c0.4-0.4,1.1-0.5,1.5-0.1c0.1,0.1,0.1,0.1,0.2,0.2c0.2,0.3,0.3,0.6,0.3,0.9c0,0.3-0.2,0.6-0.5,0.9L31,26.3
			c-1.5,1.3-3.2,2.7-5.1,4.2C24,31.9,22,33.2,20,34.5c-1.9,1.2-3.8,2.2-5.8,3.2C12.5,38.4,10.6,38.9,8.7,38.9z"/>
		<path class="st0" d="M32.2,40.2c-1.7,0.1-3.4-0.5-4.7-1.6c-1.2-1-1.8-2.5-1.7-4.1c0.1-2.2,0.7-4.4,1.9-6.3
			c1.3-2.4,2.9-4.6,4.8-6.5c1.9-2,4.1-3.7,6.4-5.1c2.1-1.3,4.5-2,6.9-2c0.8,0,1.6,0.1,2.4,0.2c0.6,0.1,1.2,0.3,1.7,0.7
			c1,0.7,1.6,1.8,1.6,3.1c-0.1,1.4-0.6,2.8-1.4,4c-1,1.5-2.2,2.9-3.6,4.1C45,28,43.3,29,41.6,29.9c-1.7,0.8-3.5,1.3-5.3,1.3
			c-1.4,0.1-2.8-0.2-4-0.9c-0.7-0.5-1.3-1.1-1.7-1.9c0-0.1,0-0.1-0.1-0.2c-0.6,1.1-1.1,2.2-1.6,3.4c-0.4,0.9-0.6,1.9-0.6,2.9
			c0,0.8,0.2,1.6,0.7,2.3c1,0.6,2.1,0.9,3.2,0.8c2.4,0,4.8-0.4,7.1-1.2c2.4-0.8,4.8-1.7,7.1-2.8c2.3-1.1,4.4-2.3,6.5-3.7
			c2.1-1.3,3.9-2.6,5.4-3.7c1.6-1.1,2.8-2.1,3.6-2.8c0.5-0.4,0.9-0.8,1.5-1.1c0.2-0.3,0.5-0.4,0.8-0.4c0.4,0,0.7,0.2,0.9,0.5
			c0.2,0.2,0.3,0.5,0.2,0.8c0,0.3-0.1,0.7-0.3,0.9c-0.2,0.1-0.7,0.6-1.7,1.4s-2.3,1.8-3.9,3c-1.6,1.2-3.5,2.5-5.6,3.9
			c-2.2,1.4-4.5,2.7-6.8,3.8c-2.4,1.1-4.9,2.1-7.4,2.9C37.2,39.8,34.7,40.1,32.2,40.2z M34.5,23c0,0.1-0.1,0.1-0.2,0.2
			c-0.5,0.6-1,1.3-1.3,2.1c-0.3,0.7-0.4,1.5-0.2,2.2c0.3,0.6,0.9,0.9,1.5,0.9c0.6,0.1,1.3,0.2,1.9,0.2c1.6,0,3.1-0.4,4.5-1.1
			c1.5-0.7,2.9-1.6,4.1-2.6c1.1-0.9,2.2-2,3-3.3c0.7-0.9,1.1-1.9,1.2-3c0-0.4-0.2-0.8-0.6-1c-0.3-0.2-0.6-0.3-0.9-0.3
			C47,17.1,46.4,17,45.8,17c-2.1,0-4.1,0.6-5.9,1.7C37.9,19.9,36.1,21.3,34.5,23z"/>
		<path class="st0" d="M64.9,38.9c-0.1,0-0.2-0.1-0.3-0.1c-0.1-0.1-0.2-0.2-0.3-0.2c-0.3-0.1-0.5-0.3-0.5-0.6
			c-0.1-0.3,0-0.6,0.2-0.9c2-3.4,3.5-6.1,4.4-8.1c0.7-1.5,1.4-3.1,1.8-4.7c0.3-0.8,0.4-1.8,0.1-2.6c-0.3-0.3-1-0.2-2.1,0.4
			c-1,0.5-2,1.2-2.8,2c-0.5,0.5-1.3,0.5-1.8,0.1c-0.3-0.2-0.4-0.6-0.4-0.9c0-0.3,0.2-0.7,0.4-0.9c0.5-0.5,1.1-1,1.7-1.5
			c0.7-0.5,1.4-0.9,2.2-1.2c0.7-0.3,1.5-0.5,2.3-0.6c0.7-0.1,1.4,0.1,2,0.6c0.6,0.4,0.9,1,1.1,1.7c0.2,1.3,0.1,2.6-0.4,3.8
			c1.6-2.1,3-3.9,4.3-5.5c1.3-1.6,2.4-3,3.4-4.1c1.1-1.3,2-2.4,2.9-3.3c0.2-0.2,0.4-0.4,0.7-0.4c0.3-0.1,0.5,0,0.8,0.1
			c0.7,0.5,0.9,1.1,0.6,1.6c-1.2,2.4-1.9,5-2.2,7.6c-0.1,1.1-0.1,2.2,0.1,3.2c0.1,0.9,0.6,1.7,1.2,2.3c0.9,0.8,2,1.3,3.2,1.5
			c1.6,0.2,3.2,0.2,4.7-0.2c2-0.4,3.9-1,5.7-1.9c2.2-1.1,4.3-2.4,6.3-3.9c0.3-0.2,0.6-0.3,0.9-0.3c0.4,0.1,0.7,0.2,0.9,0.5
			c0.2,0.3,0.2,0.6,0.2,0.9c0,0.3-0.2,0.6-0.5,0.8c-2.2,1.7-4.5,3.2-7,4.3c-2.1,1-4.4,1.7-6.7,2.1c-1.9,0.4-3.9,0.3-5.8-0.1
			c-1.6-0.4-3.1-1.2-4.1-2.5c-1-1.3-1.6-2.8-1.7-4.3c-0.2-1.9,0.1-3.8,0.9-5.5c-1.7,2-3.8,4.7-6.4,8.1s-5.5,7.5-8.7,12.2
			C65.8,38.7,65.5,38.9,64.9,38.9z"/>
		<path class="st0" d="M107.8,38.9c-0.8,0.1-1.6-0.1-2.3-0.5c-0.4-0.3-0.8-0.7-1-1.2c-0.7-1.3-0.5-3.2,0.7-5.6
			c1.6-3,3.3-5.9,5.3-8.6c0.6-0.9,1.3-1.9,1.9-3s1.2-2,1.5-2.6c-0.7,0.5-1.7,1.1-2.9,2c-1.2,0.9-2.2,1.7-3.1,2.6l-2.5,2
			c-0.2,0.3-0.6,0.4-0.9,0.3c-0.3-0.1-0.7-0.2-0.9-0.4c-0.5-0.5-0.4-1.3,0.1-1.7c0.1-0.1,0.1-0.1,0.2-0.1c0.4-0.3,0.8-0.6,1.3-1
			c0.5-0.4,0.9-0.7,1.4-1c1.9-1.6,3.5-3,4.9-4c1-0.8,2.2-1.4,3.5-1.5c0.7,0,1.3,0.4,1.6,0.9c0.5,0.7,0.3,1.7-0.3,3s-1.9,3.2-3.7,5.9
			c-0.6,0.9-1.3,1.9-2,3.1c-0.7,1.2-1.4,2.3-2.1,3.5c-0.6,1-1.1,2-1.5,3.1c-0.3,0.6-0.4,1.3-0.2,2c0.1,0.2,0.2,0.3,0.5,0.3h0.6
			c0.7,0,1.8-0.6,3.3-1.7c1.7-1.3,3.3-2.7,4.8-4.2c1.7-1.7,3.5-3.6,5.3-5.6s3.4-3.9,4.8-5.7c0.5-0.5,1.4-0.4,1.9,0.1
			c0.1,0.1,0.2,0.3,0.3,0.4c0.1,0.3,0.1,0.6-0.2,0.9c-0.6,1.1-1.1,2.3-1.2,3.5c-0.2,0.7,0,1.4,0.3,2c0.3,0.2,0.6,0.3,1,0.3
			c0.7,0,1.3-0.1,1.9-0.3c1-0.3,2-0.8,2.9-1.3c1.4-0.8,2.7-1.7,3.9-2.6c0.5-0.4,1.3-0.4,1.7,0.1c0,0,0.1,0.1,0.1,0.1
			c0.2,0.2,0.3,0.6,0.3,0.9c-0.1,0.3-0.2,0.6-0.4,0.8c-1.6,1.2-3.2,2.3-5,3.3c-1.2,0.6-2.4,1.1-3.7,1.4c-0.8,0.2-1.7,0.2-2.6,0.1
			c-0.6-0.1-1.1-0.4-1.6-0.8c-0.4-0.4-0.7-0.8-0.9-1.3c-0.2-0.5-0.4-1-0.5-1.5c-1.1,1.3-2.4,2.8-3.9,4.4c-1.5,1.6-3,3.1-4.5,4.4
			c-1.4,1.2-2.8,2.4-4.3,3.4C110.5,38.3,109.2,38.8,107.8,38.9z"/>
		<path class="st0" d="M134.7,39c-0.6,0-1.2-0.1-1.7-0.2c-0.5-0.2-1-0.4-1.4-0.7c-1.1-0.7-1.8-1.9-1.9-3.2
			c-0.3-3.7,3.8-9.9,12.3-18.5c0.5-0.4,1.2-0.4,1.7,0c0.5,0.5,0.5,1.4,0,1.9c-2.2,2.1-4.3,4.3-6.2,6.6c-1.3,1.5-2.5,3.1-3.5,4.8
			c-0.6,1-1.2,2.1-1.5,3.2c-0.2,0.6-0.3,1.2-0.3,1.8c0.1,0.6,0.4,1.2,0.9,1.5c0.6,0.5,1.6,0.6,3.2,0.3c2.1-0.4,4.1-1.1,6-2
			c2.9-1.4,5.7-2.9,8.3-4.7c3.6-2.4,7.1-4.9,10.5-7.7c0.2-0.2,0.6-0.3,0.9-0.3c0.3,0,0.6,0.2,0.7,0.5c0.3,0.2,0.4,0.6,0.4,0.9
			c0,0.3-0.2,0.6-0.5,0.8c-2.9,2.4-5.7,4.5-8.4,6.3c-2.5,1.7-5,3.2-7.6,4.6c-2.1,1.2-4.3,2.2-6.6,3C138.3,38.6,136.5,38.9,134.7,39z
			 M147.2,4.6c-0.8,0-1.2-0.4-1.2-1.3c-0.1-0.6,0.3-1.1,0.9-1.2c0.1,0,0.2,0,0.3,0c1.2,0.1,2.4-0.1,3.5-0.6c0.6-0.4,0.9-0.6,0.9-0.8
			c0.2-0.7,0.7-0.9,1.5-0.6c0.3,0.1,0.5,0.4,0.6,0.6c0.2,0.3,0.2,0.6,0,0.9c0,0.3-0.1,0.5-0.3,0.7c-0.3,0.4-0.6,0.7-1,0.9
			c-0.6,0.4-1.2,0.7-1.9,0.9C149.4,4.4,148.3,4.6,147.2,4.6L147.2,4.6z"/>
		<path class="st0" d="M160,40.2c-1.6,0.1-3.3-0.5-4.5-1.5c-0.5-0.4-0.9-1-1.1-1.6c-0.3-0.7-0.4-1.4-0.4-2.1c0.1-2.2,0.8-4.4,2-6.3
			c1.4-2.4,3.1-4.7,5.1-6.6c2-2,4.3-3.8,6.8-5.2c2.1-1.3,4.6-2.1,7.1-2.1c1-0.1,2.1,0.1,3,0.6c0.5,0.3,0.9,0.8,1.1,1.4
			c0.5,1.2,0,2.7-1.2,4.6c-2,2.6-4.2,5-6.7,7.1c-0.2,0.2-0.5,0.3-0.9,0.3c-0.3,0-0.6-0.1-0.9-0.3c-0.4-0.6-0.4-1.3,0.1-1.9
			c1.5-1.3,3-2.7,4.4-4.2c0.8-0.8,1.5-1.7,2.1-2.7c0.3-0.4,0.6-1,0.7-1.5c0-0.3,0-0.5,0-0.5c-0.2-0.1-0.4-0.2-0.6-0.2
			c-0.4-0.1-0.8-0.2-1.3-0.2c-2.3,0.1-4.4,0.8-6.3,2c-2.2,1.3-4.2,2.9-6,4.8c-1.8,1.8-3.3,3.7-4.5,5.9c-1,1.6-1.6,3.4-1.7,5.3
			c-0.1,0.7,0.3,1.4,0.9,1.9c0.4,0.5,1.3,0.8,2.8,0.8c2.4,0,4.8-0.4,7.1-1.2c2.4-0.8,4.8-1.7,7.1-2.8c2.3-1.1,4.4-2.3,6.6-3.7
			c2.1-1.3,3.9-2.6,5.4-3.7c1.6-1.1,3.2-2.5,5.1-4c0.6-0.6,1.2-0.5,1.9,0.1c0.2,0.2,0.3,0.5,0.2,0.8c0,0.4-0.2,0.7-0.4,0.9
			c-0.1,0.1-0.7,0.6-1.7,1.4s-2.3,1.8-3.9,3c-1.6,1.2-3.5,2.5-5.6,3.9c-2.2,1.4-4.5,2.7-6.8,3.8c-2.4,1.2-4.9,2.1-7.5,2.9
			C165.1,39.8,162.6,40.2,160,40.2z"/>
		<path class="st0" d="M191.5,40.2c-1.7,0.1-3.4-0.5-4.7-1.6c-1.2-1-1.8-2.5-1.7-4.1c0.1-2.2,0.7-4.4,1.9-6.3
			c1.3-2.4,2.9-4.6,4.8-6.5c1.9-2,4.1-3.7,6.4-5.1c2.1-1.3,4.5-2,6.9-2c0.8,0,1.6,0.1,2.4,0.2c0.6,0.1,1.2,0.3,1.7,0.7
			c1,0.7,1.6,1.8,1.6,3.1c-0.1,1.4-0.6,2.8-1.4,4c-1,1.5-2.2,2.9-3.6,4.1c-1.5,1.3-3.1,2.4-4.9,3.2c-1.7,0.8-3.5,1.3-5.3,1.3
			c-1.4,0.1-2.8-0.2-4-0.9c-0.7-0.5-1.3-1.1-1.7-1.9c0-0.1,0-0.1-0.1-0.2c-0.6,1.1-1.1,2.2-1.6,3.4c-0.4,0.9-0.6,1.9-0.6,2.9
			c0,0.8,0.2,1.6,0.7,2.3c1,0.6,2.1,0.9,3.2,0.8c2.4,0,4.8-0.4,7.1-1.2c2.4-0.8,4.8-1.7,7.1-2.8c2.3-1.1,4.4-2.3,6.6-3.7
			c2.1-1.3,3.9-2.6,5.4-3.7c1.6-1.1,2.8-2.1,3.7-2.9c0.5-0.4,0.9-0.8,1.4-1.1c0.2-0.3,0.5-0.4,0.8-0.4c0.4,0,0.7,0.2,0.9,0.5
			c0.2,0.2,0.3,0.5,0.2,0.8c0,0.3-0.1,0.7-0.3,0.9c-0.2,0.1-0.7,0.6-1.7,1.4c-1,0.8-2.3,1.8-3.9,3c-1.6,1.2-3.5,2.5-5.6,3.9
			c-2.2,1.4-4.5,2.7-6.8,3.8c-2.4,1.2-4.9,2.1-7.4,2.9C196.6,39.8,194.1,40.2,191.5,40.2z M193.8,23c0,0.1-0.1,0.1-0.2,0.2
			c-0.5,0.6-1,1.3-1.3,2.1c-0.3,0.7-0.4,1.5-0.2,2.2c0.3,0.6,0.9,0.9,1.5,0.9c0.6,0.1,1.3,0.2,1.9,0.2c1.6,0,3.1-0.4,4.5-1.1
			c1.5-0.7,2.9-1.6,4.1-2.6c1.1-0.9,2.2-2,3-3.3c0.7-0.9,1.1-1.9,1.2-3c0-0.4-0.2-0.8-0.6-1c-0.3-0.2-0.6-0.3-0.9-0.3
			c-0.6-0.1-1.2-0.2-1.8-0.2c-2.1,0-4.1,0.6-5.9,1.7C197.2,19.9,195.4,21.4,193.8,23z"/>
	</g>
</g>
</svg>
