<?xml version="1.0" encoding="utf-8"?>
<!-- Generator: Adobe Illustrator 21.1.0, SVG Export Plug-In . SVG Version: 6.00 Build 0)  -->
<svg version="1.1" id="レイヤー_1" xmlns="http://www.w3.org/2000/svg" xmlns:xlink="http://www.w3.org/1999/xlink" x="0px"
	 y="0px" viewBox="0 0 121.6 46.8" style="enable-background:new 0 0 121.6 46.8;" xml:space="preserve">
<style type="text/css">
	.st0{enable-background:new    ;}
	.st1{fill:#231815;}
</style>
<title>web</title>
<g id="レイヤー_2">
	<g id="レイヤー_1-2">
		<g class="st0">
			<path class="st1" d="M2.8,46L0,0h6.2l1.1,22.8c0.1,1.1,0.2,4,0.3,8.8c0,1.3,0.1,2.3,0.1,2.8c0,0.4,0,1.4,0,3.1
				c2.6-5.2,4.4-8.9,5.5-11L27.2,0h6.3l1.5,26.9c0.2,3.1,0.3,6.8,0.3,11.1c0.4-1.1,1-2.7,2-4.8c1.5-3.4,2.7-5.8,3.4-7.3L53.9,0h6.3
				L36.8,46h-6.6l-1.5-27.9c-0.1-2.4-0.3-5.3-0.3-8.8c-1.3,2.9-2.3,5.2-3.2,6.8L9.2,46H2.8z"/>
			<path class="st1" d="M78.1,34.7l5.5,0.6c-0.8,2.7-2.6,5.3-5.5,7.8c-2.9,2.5-6.3,3.7-10.2,3.7c-2.5,0-4.7-0.6-6.8-1.7
				c-2.1-1.1-3.6-2.8-4.7-5c-1.1-2.2-1.6-4.7-1.6-7.4c0-3.6,0.8-7.2,2.5-10.6s3.9-6,6.5-7.6c2.7-1.7,5.6-2.5,8.7-2.5
				c4,0,7.2,1.2,9.5,3.7c2.4,2.5,3.6,5.8,3.6,10.1c0,1.6-0.1,3.3-0.4,5H60.7c-0.1,0.6-0.1,1.2-0.1,1.8c0,3.1,0.7,5.5,2.1,7.1
				s3.2,2.5,5.3,2.5c1.9,0,3.9-0.6,5.7-1.9C75.6,38.9,77,37.1,78.1,34.7z M61.6,26.4h18.7c0-0.6,0-1,0-1.3c0-2.8-0.7-5-2.1-6.5
				c-1.4-1.5-3.3-2.3-5.5-2.3c-2.4,0-4.6,0.8-6.6,2.5C64,20.5,62.6,23.1,61.6,26.4z"/>
			<path class="st1" d="M89.3,46l9.6-46h5.7l-3.4,16.4c1.8-1.7,3.4-2.8,4.9-3.5c1.5-0.7,3-1,4.6-1c3.1,0,5.7,1.2,7.8,3.5
				s3.1,5.7,3.1,10.1c0,3-0.4,5.6-1.3,8.1c-0.8,2.4-1.9,4.5-3.1,6.2s-2.5,3-3.8,4c-1.3,1-2.7,1.7-4,2.2c-1.4,0.5-2.7,0.7-4,0.7
				c-2.2,0-4.1-0.6-5.8-1.7s-3-2.9-3.9-5.3L94.3,46H89.3z M97.8,32.3l0,1.1c0,2.8,0.7,5,2,6.5c1.4,1.5,3.1,2.2,5.1,2.2
				c2,0,3.8-0.7,5.5-2.1c1.7-1.4,3-3.6,4.1-6.5c1.1-2.9,1.6-5.7,1.6-8.2c0-2.8-0.7-5-2-6.5c-1.3-1.5-3-2.3-5-2.3
				c-2,0-3.9,0.8-5.6,2.4c-1.7,1.6-3.1,4-4.3,7.3C98.2,28.6,97.8,30.7,97.8,32.3z"/>
		</g>
	</g>
</g>
</svg>
