<svg xmlns="http://www.w3.org/2000/svg" viewBox="0 0 155.65 50.86"><title>work</title><g id="レイヤー_2" data-name="レイヤー 2"><g id="レイヤー_1-2" data-name="レイヤー 1"><path d="M4,50.86a2.39,2.39,0,0,1-.47,0,2.32,2.32,0,0,0-.47,0A3.51,3.51,0,0,1,1,49.8a3.44,3.44,0,0,1-.81-1.4,5.25,5.25,0,0,1,.17-3.19,20.3,20.3,0,0,1,1.79-4A47.2,47.2,0,0,1,4.9,37q1.57-2.17,3.1-4t2.81-3.32q1.28-1.44,1.87-2a2,2,0,0,1,.94-.42.85.85,0,0,1,.85.34q1,1,0,1.79-2,2.21-4.29,5t-4.08,5.4A36.27,36.27,0,0,0,3.2,44.49a5,5,0,0,0-.72,3.32c0,.06.06.13.17.21a3,3,0,0,0,.85.3A6.27,6.27,0,0,0,7.7,47a31.58,31.58,0,0,0,5.06-4.34,75.9,75.9,0,0,0,5.23-6q2.59-3.32,4.72-6.46l1.15-1.57q.47-.64.72-1.06a1.1,1.1,0,0,1,1.7-.34,1.54,1.54,0,0,1,.51.77.94.94,0,0,1-.17.93c-.11.17-.3.47-.55.89A13.9,13.9,0,0,1,25,31.22q-1.36,2.21-2.68,4.59a46.77,46.77,0,0,0-2.21,4.51,22.71,22.71,0,0,0-1.28,3.87A3.63,3.63,0,0,0,19,46.78c0,.06.07.14.21.26a1.79,1.79,0,0,0,1,.17A7.75,7.75,0,0,0,25,45.08,33.67,33.67,0,0,0,29.89,40a59.57,59.57,0,0,0,4.29-6.25q2-3.27,3.06-5.48l.17-.34a3.52,3.52,0,0,0,.17-.42,1.17,1.17,0,0,1,.72-.55,1,1,0,0,1,.89.21,1,1,0,0,1,.6.64,1.22,1.22,0,0,1,0,.89l-.43.6a7.09,7.09,0,0,0-.51,3.66,3.94,3.94,0,0,0,1.45,2.64,3.85,3.85,0,0,0,3.74.51,14.5,14.5,0,0,0,5-3,1.11,1.11,0,0,1,.89-.38,1.29,1.29,0,0,1,.81.38.85.85,0,0,1,.34.85,1.71,1.71,0,0,1-.51.93,15.31,15.31,0,0,1-4.34,3,9.94,9.94,0,0,1-3.44.85,6,6,0,0,1-2.51-.38,8.27,8.27,0,0,1-1.62-.85,6.42,6.42,0,0,1-1.23-1.45,9.32,9.32,0,0,1-.81-1.7q-1.36,2.3-3.23,5a46.69,46.69,0,0,1-4,5,24.38,24.38,0,0,1-4.51,3.87,8.54,8.54,0,0,1-4.72,1.53,3.71,3.71,0,0,1-2.34-.64,4,4,0,0,1-1.15-1.32q-1-2.12.34-6-1.62,1.79-3.32,3.4a33.62,33.62,0,0,1-3.4,2.85A21.05,21.05,0,0,1,7,50.1,7,7,0,0,1,4,50.86Z"/><path d="M64.46,40.66a8,8,0,0,1-1.23-.09L62,40.4a1.2,1.2,0,0,0-.51-.08A43.94,43.94,0,0,1,58,44.1a28.88,28.88,0,0,1-4,3.23,23.74,23.74,0,0,1-4.25,2.25,11,11,0,0,1-4.08.85,4.74,4.74,0,0,1-3.32-1,4.78,4.78,0,0,1-.81-1.15,4.09,4.09,0,0,1-.38-1.91A12,12,0,0,1,43,40.57a30.66,30.66,0,0,1,4.93-6.33,32.06,32.06,0,0,1,6.72-5.14A14.68,14.68,0,0,1,62,27a5,5,0,0,1,3.15.94L65.78,29a3.59,3.59,0,0,1,.38,1.83,8.53,8.53,0,0,1-.81,3.32A21.86,21.86,0,0,1,63.1,38a13.37,13.37,0,0,0,4.08-.13,25.88,25.88,0,0,0,4.34-1.15,28.54,28.54,0,0,0,4-1.79,21.8,21.8,0,0,0,3.15-2,1.08,1.08,0,0,1,.89-.26,1,1,0,0,1,.72.51,1.11,1.11,0,0,1,.38.89,1.15,1.15,0,0,1-.47.81,23.32,23.32,0,0,1-3,2,33.88,33.88,0,0,1-4,1.87,32.06,32.06,0,0,1-4.42,1.4A18.52,18.52,0,0,1,64.46,40.66Zm-20.92,5.7A1.56,1.56,0,0,0,44,47.63a1,1,0,0,0,.72.38c.31,0,.61,0,.89,0a8.47,8.47,0,0,0,3.32-.76,20.51,20.51,0,0,0,3.57-2A31.32,31.32,0,0,0,56,42.49a38,38,0,0,0,3.15-3.27,4.87,4.87,0,0,1-1.53-1.87,6.61,6.61,0,0,1-.13-4,16.91,16.91,0,0,1,1.32-3.49,17.23,17.23,0,0,0-5.61,2.93,32.13,32.13,0,0,0-4.85,4.55,27.46,27.46,0,0,0-3.44,4.93A9.21,9.21,0,0,0,43.54,46.36ZM63.61,30.8a4.41,4.41,0,0,0,0-.68,1.57,1.57,0,0,0-.13-.42A3,3,0,0,0,62,29.44a15.81,15.81,0,0,0-.81,1.4,18.88,18.88,0,0,0-.85,1.87,8.3,8.3,0,0,0-.51,2A3.89,3.89,0,0,0,60,36.41a1,1,0,0,0,.13.34,1.39,1.39,0,0,0,.55.51,22.74,22.74,0,0,0,2.17-3.57A7,7,0,0,0,63.61,30.8Z"/><path d="M79.93,49.76a.57.57,0,0,1-.34-.13,2.21,2.21,0,0,0-.34-.21.79.79,0,0,1-.51-.64,1.25,1.25,0,0,1,.17-.89q3-5.1,4.38-8.12A28.73,28.73,0,0,0,85.12,35a3.78,3.78,0,0,0,.08-2.63q-.51-.42-2.13.38a10.7,10.7,0,0,0-2.81,2,1.41,1.41,0,0,1-1.79.08,1.3,1.3,0,0,1-.43-.93,1,1,0,0,1,.43-.85,9.82,9.82,0,0,1,1.66-1.45,10.66,10.66,0,0,1,2.21-1.23,7.49,7.49,0,0,1,2.25-.55,2.69,2.69,0,0,1,2,.59,2.88,2.88,0,0,1,1.11,1.66,7.6,7.6,0,0,1-.34,3.7q2.38-3.14,4.29-5.53T95,26.2q1.61-2,2.89-3.32a1.09,1.09,0,0,1,.68-.42,1.16,1.16,0,0,1,.77.08q1,.77.6,1.62a25,25,0,0,0-2.25,7.61A10.13,10.13,0,0,0,97.75,35,4.14,4.14,0,0,0,99,37.34a5.76,5.76,0,0,0,3.23,1.53,13.49,13.49,0,0,0,4.72-.17,25.19,25.19,0,0,0,5.74-1.91A33.42,33.42,0,0,0,119,32.92a1.15,1.15,0,0,1,.94-.26,1.73,1.73,0,0,1,.94.51,1.46,1.46,0,0,1,.21.89,1.15,1.15,0,0,1-.47.81,35.36,35.36,0,0,1-7,4.34,26.15,26.15,0,0,1-6.72,2.13,14.55,14.55,0,0,1-5.78-.13,7.45,7.45,0,0,1-4.12-2.51,8.82,8.82,0,0,1-1.74-4.34A10.43,10.43,0,0,1,96,28.84q-2.55,3-6.38,8.12T81,49.16Q80.78,49.76,79.93,49.76Z"/><path d="M130.78,49.84h-.72a3.78,3.78,0,0,1-.72-.08,5,5,0,0,1-2.64-1.4,8.93,8.93,0,0,1-1.7-2.59,16.48,16.48,0,0,1-1.06-3.36q-.38-1.83-.64-3.61a.79.79,0,0,1,.43-1,1.28,1.28,0,0,1,.64-.34,1.25,1.25,0,0,1,.64,0,12.55,12.55,0,0,0,6.08,1.23,7.75,7.75,0,0,0,4.8-2A7,7,0,0,0,137.46,34a4.9,4.9,0,0,0,.13-2.76,2.9,2.9,0,0,0-2.81-1.79,11.06,11.06,0,0,0-4.42.77,19,19,0,0,0-5,3.1A64.79,64.79,0,0,0,119,39.47q-3.61,3.91-8.55,9.86a.8.8,0,0,1-.72.43,1.42,1.42,0,0,1-.89-.34,1.7,1.7,0,0,1-.51-.89,1,1,0,0,1,.34-.89A112.51,112.51,0,0,0,115.56,38q3.66-5.65,7.23-11.52,3.91-6.29,7.14-11.31a102.18,102.18,0,0,1,6-8.42,32.31,32.31,0,0,1,4.93-5.14A6,6,0,0,1,145,0a3.08,3.08,0,0,1,1.74.64,1.85,1.85,0,0,1,.55.89q.93,2.47-3.74,8.12T128.65,25.44q-2,2-3.66,3.7a29.43,29.43,0,0,0-2.38,2.68l-1.36,1.87a30.59,30.59,0,0,1,7.36-5.57A11.63,11.63,0,0,1,134.95,27a5.39,5.39,0,0,1,4.93,3.4,6.88,6.88,0,0,1,0,4.21,9,9,0,0,1-2.34,3.87,9.46,9.46,0,0,1-1.49,1.15,9.27,9.27,0,0,1-2.38,1.06,12.59,12.59,0,0,1-3.36.47,14.68,14.68,0,0,1-4.34-.64,15.65,15.65,0,0,0,1.53,4.85,3.46,3.46,0,0,0,2.38,1.87,7.13,7.13,0,0,0,4.34-.64,35.34,35.34,0,0,0,5.36-2.85q2.81-1.79,5.65-4t5.14-4.17l1.7-1.4q.77-.64,1.53-1.23a1.08,1.08,0,0,1,.89-.26,1,1,0,0,1,.72.51,1.11,1.11,0,0,1,.38.89,1.15,1.15,0,0,1-.47.81,14.16,14.16,0,0,0-1.53,1.19q-.76.68-1.7,1.45-2.38,2-5.14,4.12t-5.57,4a39.31,39.31,0,0,1-5.48,3A12.3,12.3,0,0,1,130.78,49.84ZM144.64,2.48a5.25,5.25,0,0,0-3.15,1.7,35.28,35.28,0,0,0-4,4.51q-2.17,2.81-4.55,6.38t-4.68,7.23q2.3-2.3,5.23-5.31T139,11.07a64.7,64.7,0,0,0,4.38-5.27q1.74-2.38,1.57-3.32Z"/></g></g></svg>