<?xml version="1.0" encoding="utf-8"?>
<!-- Generator: Adobe Illustrator 22.0.1, SVG Export Plug-In . SVG Version: 6.00 Build 0)  -->
<svg version="1.1" id="レイヤー_1" xmlns="http://www.w3.org/2000/svg" xmlns:xlink="http://www.w3.org/1999/xlink" x="0px"
	 y="0px" viewBox="0 0 200.1 54.8" style="enable-background:new 0 0 200.1 54.8;" xml:space="preserve">
<style type="text/css">
	.st0{fill:#FFFFFF;}
</style>
<title>about</title>
<g id="レイヤー_2_1_">
	<g id="レイヤー_1-2">
		<path class="st0" d="M4.4,54.2H3.6c-0.3,0-0.5-0.1-0.8-0.2c-1.5-0.5-2.6-1.9-2.7-3.6c-0.2-1-0.2-2,0-3c0.2-1.2,0.6-2.4,1.2-3.5
			c0.7-1.3,1.5-2.6,2.5-3.7c1.1-1.4,2.4-2.6,3.8-3.7c2.4-1.8,5-3.3,7.8-4.4c2.2-0.9,4.5-1.1,6.8-0.7c1.2,0.1,2.3,0.5,3.4,1.2
			c0.6,0.4,1.2,0.8,1.7,1.4c0.7-0.7,1.4-1.5,2-2.4C30,31,30.5,31,31,31.5c0.3,0.2,0.4,0.5,0.5,0.8s0,0.6-0.3,0.9
			c-1,1.3-2.1,2.9-3.1,4.6c-1,1.7-2,3.4-2.8,5c-0.7,1.4-1.3,3-1.8,4.5c-0.4,1-0.4,2.1,0,3.1l0.5,0.5c0.5,0.3,1,0.4,1.5,0.3
			c1.1,0,2.1-0.2,3.1-0.5c1.7-0.5,3.2-1.2,4.8-2.1c2.4-1.3,4.6-2.7,6.8-4.3c2.7-1.8,5.8-4.2,9.4-7.2c0.2-0.3,0.6-0.4,0.9-0.4
			c0.3,0,0.6,0.2,0.7,0.5c0.5,0.4,0.5,1.1,0.1,1.6c0,0.1-0.1,0.1-0.2,0.1C46.4,43,41.3,46.7,36,50c-4.2,2.5-7.6,3.7-10.3,3.7
			c-1,0.1-2.1-0.2-2.9-0.8c-0.5-0.4-1-0.9-1.4-1.5c-0.6-1.3-0.7-2.8-0.2-4.2c0.5-1.8,1.1-3.6,1.9-5.3c-1.5,1.5-3,2.9-4.7,4.4
			s-3.3,2.8-5,3.9c-1.5,1.1-3.1,2-4.8,2.8C7.3,53.8,5.8,54.1,4.4,54.2z M20.6,33.7c-1.8,0-3.6,0.4-5.3,1.2c-2.2,0.9-4.2,2.1-6,3.6
			c-2.3,1.6-4.1,3.8-5.5,6.2c-1,1.6-1.5,3.5-1.4,5.4c0,0.4,0.2,0.7,0.4,1c0.2,0.2,0.4,0.4,0.7,0.5c1,0.3,2.4,0.1,4.1-0.7
			c2-1,3.9-2.2,5.6-3.6c2-1.6,4.1-3.4,6.3-5.4s4.2-4,6-6.1c0-0.1-0.3-0.4-0.9-1c-0.8-0.6-1.8-1-2.9-1.2L20.6,33.7z"/>
		<path class="st0" d="M51.2,53.7c-0.8,0-1.7-0.1-2.4-0.5c-0.5-0.3-0.9-0.7-1.4-1.1c-0.3-0.5-0.6-1.1-0.8-1.6
			c-0.2-0.7-0.4-1.4-0.3-2.1c0.1-1.6,0.3-3.2,0.8-4.8c0.6-2.1,1.4-4.2,2.3-6.2l0.2-0.6c1.1-2.4,2.3-4.8,3.8-7.4s3.1-5,4.7-7.4
			c1.7-2.4,3.4-4.8,5.2-7c1.6-2,3.4-4,5.3-5.8c1.5-1.5,3.2-2.8,5-3.9c1.3-0.9,2.8-1.4,4.3-1.4C79,3.7,79.8,4,80.4,4.6
			c0.3,0.4,0.5,0.9,0.7,1.3c0.2,1.1-0.3,2.6-1.4,4.4c-1.3,2.2-2.8,4.2-4.4,6.2c-1.9,2.2-4,4.5-6.3,6.9s-4.6,4.6-6.9,6.7
			c-2.3,2.1-4.3,3.9-6.2,5.4c-1.3,1.1-2.8,2.1-4.3,3c-0.8,2-1.4,3.8-1.9,5.4c-0.4,1.4-0.7,2.9-0.7,4.4c-0.1,0.7,0.1,1.5,0.4,2.1
			c0.2,0.2,0.4,0.3,0.5,0.4c0.4,0.2,0.9,0.3,1.3,0.3c1.5,0,3-0.4,4.3-1.1c1.5-0.7,2.8-1.6,4-2.8c1.2-1.1,2.3-2.4,3.3-3.8
			c0.9-1.3,1.7-2.7,2.4-4.1c-0.8-0.8-1.5-1.8-2-2.8c-0.4-0.9-0.7-1.8-0.7-2.8c-0.1-0.8,0.2-1.6,0.8-2.2c0.5-0.5,1.1-0.7,1.8-0.7
			c0.6,0,1.3,0.1,1.8,0.4c0.4,0.2,0.8,0.5,1.2,0.8c0.2,0.4,0.4,0.8,0.6,1.3s0.3,1,0.3,1.5c0,0.6-0.1,1.2-0.2,1.7
			c-0.1,0.7-0.3,1.4-0.6,2c1,0.7,2.1,1.3,3.3,1.6c1.7,0.5,3.5,0.7,5.3,0.7c1.9,0,3.8-0.4,5.7-1c2.1-0.8,4.1-1.8,5.9-3.1
			c0.7-0.5,1.3-0.4,1.7,0.2c0.3,0.6,0.2,1.3-0.3,1.8c-4.5,2.9-8.9,4.4-13,4.4c-1.9,0-3.8-0.2-5.6-0.7c-1.4-0.4-2.7-1-4-1.7
			c-0.8,1.6-1.7,3.1-2.8,4.5c-1.1,1.5-2.3,2.9-3.7,4.1c-1.4,1.2-2.9,2.2-4.5,3C54.7,53.3,53,53.7,51.2,53.7z M78.1,6.3
			c-1.4,0-3.2,0.8-5.2,2.6c-2.4,2-4.5,4.2-6.5,6.6c-2.4,2.8-4.6,5.8-6.7,8.9c-2.1,3.1-4.1,6.4-5.8,9.8c1.2-1,2.6-2.1,4.2-3.6
			c1.6-1.4,3.2-2.9,4.9-4.5s3.3-3.3,5-5s3.2-3.4,4.6-5s2.6-3.1,3.6-4.6c0.9-1.1,1.6-2.4,2.1-3.7c0.5-0.9,0.5-1.3,0.3-1.3l-0.1-0.1
			h-0.1C78.2,6.4,78.2,6.3,78.1,6.3z M65.2,33.4v0.7c0,0.6,0.1,1.2,0.4,1.7c0.1,0.1,0.2,0.3,0.3,0.4c0.1,0.2,0.2,0.4,0.4,0.6
			c0.2-0.6,0.3-1.2,0.3-1.8c0.1-0.5-0.1-1-0.3-1.4c-0.1,0-0.2-0.1-0.2-0.1C65.7,33.4,65.4,33.4,65.2,33.4z"/>
		<path class="st0" d="M103.5,44.6c-0.4,0-0.8,0-1.2-0.1l-1.3-0.2c-0.2-0.1-0.3-0.1-0.5-0.1c-1.1,1.3-2.3,2.6-3.5,3.8
			s-2.6,2.3-4,3.2c-1.3,0.9-2.8,1.6-4.2,2.2c-1.3,0.5-2.7,0.8-4.1,0.8c-1.7,0.3-3.4-0.6-4.1-2.2c-0.3-0.6-0.4-1.3-0.4-1.9
			c0.1-2.1,0.7-4,1.8-5.8c1.4-2.3,3.1-4.5,5-6.3c2-2,4.3-3.7,6.7-5.1c2.2-1.3,4.7-2,7.3-2.1c1.1-0.1,2.2,0.3,3.2,0.9l0.6,1.1
			c0.3,0.6,0.4,1.2,0.4,1.8c0,1.1-0.3,2.3-0.8,3.3c-0.6,1.4-1.3,2.6-2.2,3.8c1.4,0.2,2.7,0.1,4.1-0.1c1.5-0.3,2.9-0.6,4.3-1.2
			c1.4-0.5,2.7-1.1,4-1.8c1.1-0.6,2.2-1.2,3.2-2c0.2-0.2,0.6-0.3,0.9-0.3s0.6,0.2,0.7,0.5c0.3,0.2,0.4,0.6,0.4,0.9
			c0,0.3-0.2,0.6-0.5,0.8c-0.9,0.7-1.9,1.4-3,2c-1.3,0.7-2.6,1.3-4,1.9c-1.4,0.6-2.9,1-4.4,1.4C106.4,44.5,105,44.7,103.5,44.6z
			 M82.6,50.3c-0.1,0.5,0.1,0.9,0.4,1.3c0.2,0.2,0.4,0.4,0.7,0.4c0.3,0,0.6,0,0.9,0c1.2,0,2.3-0.2,3.4-0.7c1.3-0.5,2.4-1.2,3.6-2
			c1.2-0.9,2.4-1.8,3.4-2.8c1.1-1,2.2-2.1,3.2-3.3c-0.7-0.5-1.2-1.1-1.5-1.9c-0.5-1.3-0.5-2.7-0.1-4c0.3-1.2,0.8-2.4,1.3-3.5
			c-2,0.6-3.9,1.6-5.6,2.9c-1.8,1.3-3.4,2.9-4.8,4.5c-1.3,1.5-2.5,3.2-3.4,4.9C83.2,47.5,82.7,48.9,82.6,50.3z M102.7,34.8
			c0-0.2,0-0.5,0-0.7c0-0.1-0.1-0.3-0.1-0.4c-0.5-0.2-1-0.3-1.4-0.3c-0.3,0.5-0.6,0.9-0.8,1.4c-0.3,0.6-0.6,1.2-0.8,1.9
			c-0.3,0.6-0.4,1.3-0.5,2c-0.1,0.6-0.1,1.1,0.1,1.7c0,0.1,0.1,0.2,0.1,0.3c0.1,0.2,0.3,0.4,0.6,0.5c0.8-1.1,1.6-2.3,2.2-3.6
			C102.3,36.8,102.6,35.8,102.7,34.8L102.7,34.8z"/>
		<path class="st0" d="M128.3,54.8h-0.6c-0.4-0.1-0.9-0.3-1.2-0.5c-0.4-0.3-0.7-0.6-0.8-1.1c-0.3-1-0.1-2.4,0.7-4.2
			c1-2.1,2.1-4.1,3.4-6c-1.6,1.4-3.2,2.8-4.8,4.1c-1.6,1.3-3.2,2.5-4.7,3.5c-1.4,0.9-2.9,1.8-4.4,2.4c-1.2,0.5-2.5,0.8-3.8,0.9
			c-0.8,0.1-1.6-0.1-2.3-0.6c-0.4-0.4-0.8-0.8-1-1.3c-0.3-0.9-0.2-1.9,0.2-2.8c0.5-1.3,1.1-2.5,1.9-3.7c0.9-1.4,1.9-2.8,3-4.1
			c1.1-1.4,2.3-2.7,3.4-4c1.2-1.3,2.3-2.5,3.4-3.5l2.6-2.5c0.5-0.4,1.2-0.4,1.7,0c0.5,0.5,0.5,1.3,0,1.9c-1.9,1.8-3.7,3.6-5.4,5.5
			s-3.3,3.7-4.6,5.4c-1.1,1.4-2.2,2.9-3.1,4.4c-0.7,1.3-1,2.2-0.8,2.7c0,0.1,0.3,0.2,1,0.2c1.5-0.1,3-0.6,4.3-1.4
			c1.9-1,3.7-2.2,5.4-3.5c1.9-1.4,3.9-3.1,5.9-4.9s3.9-3.7,5.8-5.5s3.5-3.6,5.1-5.2s2.8-3.1,3.8-4.2c0.5-0.5,1.3-0.6,1.9-0.2
			c0.3,0.2,0.4,0.5,0.4,0.9c0,0.3-0.1,0.7-0.3,0.9c-2.4,2.8-4.6,5.6-6.7,8.3c-2.1,2.7-3.8,5.1-5.3,7.4c-1.2,1.8-2.4,3.7-3.4,5.6
			c-0.8,1.5-1.1,2.5-0.9,3c1.6,0,3.2-0.5,4.6-1.4c2.2-1.1,4.4-2.4,6.5-3.8c2.3-1.6,4.7-3.2,7-5.1c2.3-1.8,4.4-3.5,6.2-5
			c0.2-0.3,0.6-0.4,0.9-0.4c0.4,0,0.7,0.2,0.9,0.5c0.2,0.2,0.3,0.6,0.3,0.9c0,0.3-0.2,0.6-0.5,0.8l-2.1,1.7
			c-1.1,0.9-2.3,1.9-3.8,3.1c-1.5,1.2-3.1,2.4-4.9,3.7c-1.8,1.3-3.6,2.5-5.4,3.6c-1.7,1-3.4,1.9-5.1,2.7
			C131.2,54.4,129.8,54.7,128.3,54.8z"/>
		<path class="st0" d="M160.6,11.1c-0.6,0.1-1.2-0.4-1.3-1l0,0c-0.1-0.7,0.4-1.4,1.1-1.5L172,7.8c1.1-1.3,2.2-2.6,3.2-3.8
			s2-2.4,3-3.5c0.2-0.3,0.5-0.4,0.9-0.5s0.7,0.1,0.9,0.3s0.3,0.5,0.3,0.8S180.2,1.8,180,2c-0.8,0.9-1.6,1.8-2.4,2.8
			c-0.8,0.9-1.6,1.9-2.4,2.8l23.6-1.5c0.3,0,0.6,0.1,0.9,0.3c0.3,0.2,0.4,0.5,0.4,0.8c0.2,0.7-0.2,1.2-1.1,1.3l-25.9,1.7
			c-3.2,4-6.2,8-9,11.9c-2.8,4-5.2,7.7-7.1,11.3c-1.7,3-3.2,6.1-4.5,9.4c-1,2.7-1.3,4.8-0.7,6.2c0.3,1,1.1,1.7,2.1,1.8
			c1.7,0.3,3.5,0,5-0.7c2.2-0.9,4.2-2,6.2-3.3c2.1-1.3,4.2-2.8,6.3-4.5l5.6-4.4l1.3-1.2c0.2-0.2,0.6-0.3,0.9-0.3
			c0.3,0.1,0.7,0.3,0.9,0.5s0.3,0.6,0.2,0.9c-0.1,0.3-0.2,0.6-0.5,0.8l-1.3,1.2c-1.8,1.5-3.7,3-5.8,4.5c-2,1.6-4.1,3-6.2,4.3
			c-1.9,1.3-4,2.4-6.1,3.3c-1.7,0.8-3.6,1.2-5.5,1.3h-0.8c-0.3,0-0.6,0-0.9-0.1c-1.8-0.4-3.2-1.7-3.8-3.4c-0.6-1.9-0.4-4.3,0.6-7.4
			c1.2-3.5,2.7-6.8,4.6-10c2.2-3.8,4.5-7.5,7.1-11.1c2.7-3.9,5.5-7.5,8.2-11L160.6,11.1z"/>
	</g>
</g>
</svg>
