<svg xmlns="http://www.w3.org/2000/svg" viewBox="0 0 267.26 54.7"><title>business</title><g id="レイヤー_2" data-name="レイヤー 2"><g id="レイヤー_1-2" data-name="レイヤー 1"><path d="M5.18,53.33a4.64,4.64,0,0,1-2.54-.59,9.06,9.06,0,0,1-1.45-1.14,9.18,9.18,0,0,1-.82-1.73A6.63,6.63,0,0,1,0,47.61a18.58,18.58,0,0,1,.91-5.13,58.63,58.63,0,0,1,2.45-6.59l.27-.64q1.72-3.82,4.09-7.9t5-8q2.68-3.91,5.54-7.45a64.1,64.1,0,0,1,5.63-6.18,31.88,31.88,0,0,1,5.31-4.18A9.11,9.11,0,0,1,33.89,0,2.76,2.76,0,0,1,36.3.86a6.24,6.24,0,0,1,.77,1.41Q37.34,4,35.62,7a47.47,47.47,0,0,1-4.72,6.59q-3,3.59-6.72,7.41t-7.36,7.13q-3.64,3.32-6.68,5.72a34.66,34.66,0,0,1-4.59,3.23q-1.27,3.18-2,5.81a17,17,0,0,0-.77,4.72,3.84,3.84,0,0,0,.45,2.27,4.06,4.06,0,0,0,.59.46,2.67,2.67,0,0,0,1.41.27,10.35,10.35,0,0,0,4.59-1.14,17.65,17.65,0,0,0,4.27-3,26.71,26.71,0,0,0,3.54-4,27,27,0,0,0,2.59-4.41,11.35,11.35,0,0,1-2.09-3,7.12,7.12,0,0,1-.73-3,3,3,0,0,1,.86-2.32A2.75,2.75,0,0,1,20.08,29a4.16,4.16,0,0,1,2,.41,5.14,5.14,0,0,1,1.23.86,9.46,9.46,0,0,1,.64,1.36,4.92,4.92,0,0,1,.27,1.73A10,10,0,0,1,24,35.21a12.66,12.66,0,0,1-.64,2.14,12.85,12.85,0,0,0,3.54,1.73,18.15,18.15,0,0,0,5.63.73,17.09,17.09,0,0,0,6-1.18,32.13,32.13,0,0,0,6.31-3.27q1.18-.73,1.82.27a1.63,1.63,0,0,1-.27,2q-7.27,4.73-13.9,4.72a21.43,21.43,0,0,1-6-.73,18.3,18.3,0,0,1-4.32-1.82,32.84,32.84,0,0,1-3,4.77,27.31,27.31,0,0,1-4,4.36,20.7,20.7,0,0,1-4.82,3.18A12.29,12.29,0,0,1,5.18,53.33ZM33.89,2.64q-2.27,0-5.59,2.73a56.06,56.06,0,0,0-7,7,105.87,105.87,0,0,0-7.18,9.54A100,100,0,0,0,8,32.35q1.91-1.54,4.45-3.82t5.22-4.86q2.68-2.59,5.36-5.36t4.91-5.36q2.23-2.59,3.86-4.86a18.58,18.58,0,0,0,2.27-3.91q.73-1.36.27-1.36l-.09-.09a.18.18,0,0,1-.14,0A.37.37,0,0,0,33.89,2.64Zm-13.81,29v.73a4,4,0,0,0,.45,1.82,1.76,1.76,0,0,1,.32.45,4.28,4.28,0,0,0,.41.64,8,8,0,0,0,.27-1.91,2.11,2.11,0,0,0-.36-1.45.55.55,0,0,1-.27-.14A1.57,1.57,0,0,0,20.08,31.62Z"/><path d="M56.15,54.42h-.64a4,4,0,0,1-1.32-.59,2.33,2.33,0,0,1-.86-1.14q-.55-1.54.77-4.54a40.22,40.22,0,0,1,3.68-6.45Q55.24,44,52.65,46.07t-5,3.72a28.38,28.38,0,0,1-4.73,2.59,10.71,10.71,0,0,1-4.09,1,3.73,3.73,0,0,1-2.45-.64,4.51,4.51,0,0,1-1.09-1.36,4.38,4.38,0,0,1,.18-3,18.36,18.36,0,0,1,2-4A54,54,0,0,1,40.7,40q1.82-2.23,3.68-4.27T48,32l2.73-2.73a1.45,1.45,0,0,1,1.82,0,1.56,1.56,0,0,1,0,2q-3,2.82-5.77,5.86t-4.91,5.72a35.76,35.76,0,0,0-3.27,4.72q-1.14,2-.86,2.86c0,.12.36.18,1.09.18a10,10,0,0,0,4.59-1.45,45,45,0,0,0,5.72-3.77q3-2.32,6.27-5.27t6.18-5.86q3-2.91,5.45-5.59t4-4.5a1.57,1.57,0,0,1,2-.18,1.12,1.12,0,0,1,.45.91,1.57,1.57,0,0,1-.36,1Q69.33,30.44,66,34.75t-5.68,7.86a57.93,57.93,0,0,0-3.59,6q-1.23,2.45-1,3.18,1.72.18,4.91-1.41a63.42,63.42,0,0,0,6.91-4.09q3.72-2.5,7.5-5.41t6.59-5.36a1.24,1.24,0,0,1,1-.41,1.6,1.6,0,0,1,1,.5,1.31,1.31,0,0,1,.32,1,1.23,1.23,0,0,1-.5.86L81.27,39.3q-1.68,1.41-4.09,3.32t-5.27,4q-2.86,2.09-5.72,3.82a45.59,45.59,0,0,1-5.5,2.86A11.84,11.84,0,0,1,56.15,54.42Z"/><path d="M83.13,53.33a7.16,7.16,0,0,1-1.41-.14c-.45-.09-.92-.2-1.41-.32a8.26,8.26,0,0,1-3.91-2.82,16.45,16.45,0,0,1-2.54-5.27,1.33,1.33,0,0,1,1-1.64,1.15,1.15,0,0,1,1,.09,1.44,1.44,0,0,1,.64.82,17,17,0,0,0,1.91,3.86q1,1.41,1.82,1.23a3.68,3.68,0,0,0,2.54-1.54,24.57,24.57,0,0,0,2.77-4,52.74,52.74,0,0,0,2.73-5.54q1.32-3.09,2.41-6.18Q89.31,33,87.31,34.53t-4.18,3.18a.9.9,0,0,1-.91.36,1.62,1.62,0,0,1-.91-.45,1.3,1.3,0,0,1,.27-2L86,32.16q2-1.54,3.45-2.64,1.64-1.27,3.09-2.36a1.55,1.55,0,0,1,1.45,0,1.45,1.45,0,0,1,.54,1.54q-.36,1.18-1.36,4.13t-2.5,6.36a58.91,58.91,0,0,1-3.41,6.59,18.41,18.41,0,0,1-3.91,4.82,12.79,12.79,0,0,0,5.31-1.32A41.32,41.32,0,0,0,94.49,46q2.91-2,5.72-4.18t5-4.13q.82-.63,1.54-1.27t1.36-1.09a1.14,1.14,0,0,1,1.82.18,1.38,1.38,0,0,1,.32,1,1.26,1.26,0,0,1-.5.91l-2.91,2.36q-2.45,2.09-5.45,4.45a75.08,75.08,0,0,1-6.13,4.36A46.51,46.51,0,0,1,89,52,14.62,14.62,0,0,1,83.13,53.33Z"/><path d="M105.94,53.43a6.16,6.16,0,0,1-1.86-.27,5.3,5.3,0,0,1-1.5-.73,4.11,4.11,0,0,1-2-3.36q-.55-6,13.17-19.81a1.46,1.46,0,0,1,1.82,0,1.43,1.43,0,0,1,0,2,90.2,90.2,0,0,0-6.63,7.09,47.21,47.21,0,0,0-3.73,5.09,14.53,14.53,0,0,0-1.64,3.41,8.28,8.28,0,0,0-.36,2,2.28,2.28,0,0,0,.91,1.64q.91.73,3.41.32a26.34,26.34,0,0,0,6.36-2.18,75,75,0,0,0,8.9-5A127,127,0,0,0,134,35.34a1.16,1.16,0,0,1,1-.27,1.1,1.1,0,0,1,.77.54,1.19,1.19,0,0,1,.41,1,1.23,1.23,0,0,1-.5.86Q131,41.25,126.7,44.2a88.59,88.59,0,0,1-8.13,5,47,47,0,0,1-7,3.13A17.85,17.85,0,0,1,105.94,53.43Zm13.36-36.8q-1.27,0-1.27-1.36A1.12,1.12,0,0,1,119.29,14a7.25,7.25,0,0,0,3.73-.64q.91-.64.91-.82.36-1.09,1.64-.64a1.26,1.26,0,0,1,.68.68,1,1,0,0,1,0,1,1.65,1.65,0,0,1-.32.77,3.7,3.7,0,0,1-1,1,7.71,7.71,0,0,1-2,.91A12.14,12.14,0,0,1,119.29,16.63Z"/><path d="M154.55,53.43h-.68a4,4,0,0,1-.77-.09,4,4,0,0,1-1.86-1,3.81,3.81,0,0,1-.77-1.09q-.73-2.18,1.64-5.41t6.36-7.77q1.54-1.63,3-3.5a13.72,13.72,0,0,0,2-3,13.29,13.29,0,0,0-5,1.32,38.69,38.69,0,0,0-6.22,3.77q-3.54,2.54-8.31,6.54T132.83,53a1.56,1.56,0,0,1-1,.36.89.89,0,0,1-.82-.45,1.35,1.35,0,0,1-.45-1,1.08,1.08,0,0,1,.45-.86q7.81-7.81,10.86-12.81t2.77-5.91a7.56,7.56,0,0,0-3.73,1,28,28,0,0,0-3.36,2.5,6.77,6.77,0,0,1-.91.77q-.46.32-1,.77a1.1,1.1,0,0,1-1,.36,1.61,1.61,0,0,1-.91-.45,1.21,1.21,0,0,1-.32-1.09,1.66,1.66,0,0,1,.59-.91,5.63,5.63,0,0,1,1-.77,10,10,0,0,0,1-.77,40.53,40.53,0,0,1,3.77-2.73,8.77,8.77,0,0,1,4.77-1.18A2.33,2.33,0,0,1,147,31.35a4.73,4.73,0,0,1-.32,3.5,28.32,28.32,0,0,1-2.59,4.77q3.36-2.73,6.18-4.72a57.43,57.43,0,0,1,5.18-3.32,23,23,0,0,1,4.45-2A14,14,0,0,1,164,29a2.74,2.74,0,0,1,1.59.36,1.92,1.92,0,0,1,.68.82q.73,1.45-.86,3.59t-5,6Q159.36,41,158,42.57t-2.54,3.09a21.09,21.09,0,0,0-1.91,2.82q-.73,1.32-.46,2c0,.12.18.18.55.18a7.46,7.46,0,0,0,4.59-.68,39.07,39.07,0,0,0,5.68-3q3-1.91,6-4.27t5.59-4.45l1.82-1.5q.82-.68,1.64-1.32a1.19,1.19,0,0,1,1.82.27,1.06,1.06,0,0,1,.36,1,1.6,1.6,0,0,1-.46.86,24.86,24.86,0,0,0-3.54,2.82q-2.54,2.09-5.5,4.41t-6,4.27a41.85,41.85,0,0,1-5.86,3.23A13.15,13.15,0,0,1,154.55,53.43Z"/><path d="M179,54.7A6.77,6.77,0,0,1,174,53a5.41,5.41,0,0,1-1.82-4.36,14.51,14.51,0,0,1,2-6.72,31.79,31.79,0,0,1,5.09-7,30.84,30.84,0,0,1,6.86-5.41,14.73,14.73,0,0,1,7.4-2.18,13.38,13.38,0,0,1,2.59.23,3.84,3.84,0,0,1,1.77.77,3.9,3.9,0,0,1,1.73,3.27,8.07,8.07,0,0,1-1.5,4.32,20.63,20.63,0,0,1-3.86,4.36A23.23,23.23,0,0,1,189,43.7a13.13,13.13,0,0,1-5.68,1.36,7.24,7.24,0,0,1-4.32-1,5.55,5.55,0,0,1-1.77-2,.26.26,0,0,0-.09-.18,29.4,29.4,0,0,0-1.68,3.59,8.9,8.9,0,0,0-.68,3.13,3.82,3.82,0,0,0,.73,2.45,5.8,5.8,0,0,0,3.45.82,25.12,25.12,0,0,0,7.54-1.23,56.45,56.45,0,0,0,7.59-3,65.1,65.1,0,0,0,7-3.91q3.32-2.13,5.82-4t4-3a13.42,13.42,0,0,1,1.54-1.23.81.81,0,0,1,.82-.41,1.6,1.6,0,0,1,1,.5,1.11,1.11,0,0,1,.27.82,1.56,1.56,0,0,1-.36,1q-.27.18-1.86,1.5t-4.18,3.23q-2.59,1.91-6,4.13a64.17,64.17,0,0,1-7.27,4.09,54.82,54.82,0,0,1-7.91,3.09A27.28,27.28,0,0,1,179,54.7Zm2.45-18.35c0,.06-.06.15-.18.27a7.69,7.69,0,0,0-1.36,2.23,3.15,3.15,0,0,0-.18,2.32,1.88,1.88,0,0,0,1.59,1,14.27,14.27,0,0,0,2,.18,11.05,11.05,0,0,0,4.82-1.18,21.06,21.06,0,0,0,4.41-2.82,17.35,17.35,0,0,0,3.22-3.5,6,6,0,0,0,1.27-3.23,1.32,1.32,0,0,0-.64-1.09,3.53,3.53,0,0,0-1-.36,8,8,0,0,0-2-.18,12.48,12.48,0,0,0-6.31,1.82A26.49,26.49,0,0,0,181.44,36.34Z"/><path d="M213.88,53.33a7.15,7.15,0,0,1-1.41-.14c-.46-.09-.92-.2-1.41-.32a8.26,8.26,0,0,1-3.91-2.82,16.44,16.44,0,0,1-2.54-5.27,1.33,1.33,0,0,1,1-1.64,1.15,1.15,0,0,1,1,.09,1.44,1.44,0,0,1,.64.82,16.91,16.91,0,0,0,1.91,3.86q1,1.41,1.82,1.23a3.67,3.67,0,0,0,2.54-1.54,24.54,24.54,0,0,0,2.77-4A52.55,52.55,0,0,0,219,38.07q1.32-3.09,2.41-6.18-1.36,1.09-3.36,2.64t-4.18,3.18a.9.9,0,0,1-.91.36,1.61,1.61,0,0,1-.91-.45,1.3,1.3,0,0,1,.27-2l4.45-3.45q2-1.54,3.45-2.64,1.64-1.27,3.09-2.36a1.55,1.55,0,0,1,1.45,0,1.45,1.45,0,0,1,.55,1.54Q225,29.89,224,32.85t-2.5,6.36a58.75,58.75,0,0,1-3.41,6.59,18.41,18.41,0,0,1-3.91,4.82,12.79,12.79,0,0,0,5.32-1.32A41.4,41.4,0,0,0,225.23,46q2.91-2,5.72-4.18t5-4.13q.82-.63,1.54-1.27t1.36-1.09a1.14,1.14,0,0,1,1.82.18,1.38,1.38,0,0,1,.32,1,1.26,1.26,0,0,1-.5.91l-2.91,2.36q-2.45,2.09-5.45,4.45A75.09,75.09,0,0,1,226,48.61,46.45,46.45,0,0,1,219.78,52,14.62,14.62,0,0,1,213.88,53.33Z"/><path d="M240.13,53.33a7.15,7.15,0,0,1-1.41-.14c-.46-.09-.92-.2-1.41-.32a8.26,8.26,0,0,1-3.91-2.82,16.44,16.44,0,0,1-2.54-5.27,1.33,1.33,0,0,1,1-1.64,1.15,1.15,0,0,1,1,.09,1.44,1.44,0,0,1,.64.82,16.91,16.91,0,0,0,1.91,3.86q1,1.41,1.82,1.23a3.67,3.67,0,0,0,2.54-1.54,24.54,24.54,0,0,0,2.77-4,52.55,52.55,0,0,0,2.73-5.54q1.32-3.09,2.41-6.18-1.36,1.09-3.36,2.64t-4.18,3.18a.9.9,0,0,1-.91.36,1.61,1.61,0,0,1-.91-.45,1.3,1.3,0,0,1,.27-2L243,32.16q2-1.54,3.45-2.64,1.64-1.27,3.09-2.36a1.55,1.55,0,0,1,1.45,0,1.45,1.45,0,0,1,.55,1.54q-.36,1.18-1.36,4.13t-2.5,6.36a58.75,58.75,0,0,1-3.41,6.59,18.41,18.41,0,0,1-3.91,4.82,12.79,12.79,0,0,0,5.32-1.32A41.4,41.4,0,0,0,251.49,46q2.91-2,5.72-4.18t5-4.13q.82-.63,1.54-1.27t1.36-1.09a1.14,1.14,0,0,1,1.82.18,1.38,1.38,0,0,1,.32,1,1.26,1.26,0,0,1-.5.91l-2.91,2.36q-2.45,2.09-5.45,4.45a75.09,75.09,0,0,1-6.13,4.36A46.45,46.45,0,0,1,246,52,14.62,14.62,0,0,1,240.13,53.33Z"/></g></g></svg>