<?xml version="1.0" encoding="utf-8"?>
<!-- Generator: Adobe Illustrator 22.0.1, SVG Export Plug-In . SVG Version: 6.00 Build 0)  -->
<svg version="1.1" id="レイヤー_1" xmlns="http://www.w3.org/2000/svg" xmlns:xlink="http://www.w3.org/1999/xlink" x="0px"
	 y="0px" viewBox="0 0 300.9 151" style="enable-background:new 0 0 300.9 151;" xml:space="preserve">
<style type="text/css">
	.st0{fill:#FFFFFF;}
</style>
<title>アセット 2</title>
<g id="レイヤー_2_1_">
	<g id="レイヤー_1-2">
		<path class="st0" d="M6.5,104.5c-1.8,0.1-3.5-0.5-4.9-1.7c-0.6-0.5-1-1.1-1.2-1.8C0.1,100.3,0,99.5,0,98.7
			c0.1-2.4,0.9-4.8,2.2-6.9c1.5-2.6,3.4-5,5.5-7.2c2.2-2.2,4.7-4.1,7.4-5.7c2.3-1.4,5-2.2,7.7-2.3c1.1-0.1,2.3,0.1,3.2,0.7
			c0.6,0.4,1,0.9,1.2,1.5c0.5,1.3,0,2.9-1.3,4.9c-2.1,2.8-4.6,5.4-7.2,7.7c-0.3,0.2-0.6,0.3-0.9,0.3s-0.7-0.1-0.9-0.4
			c-0.4-0.6-0.4-1.4,0.1-2c1.7-1.4,3.2-3,4.7-4.6C22.5,84,23.3,83,24,82c0.4-0.5,0.6-1,0.7-1.6c0-0.3,0-0.5,0-0.6
			c-0.2-0.1-0.4-0.2-0.6-0.2c-0.5-0.1-0.9-0.2-1.4-0.1c-2.4,0.1-4.8,0.8-6.9,2.1c-2.4,1.4-4.6,3.2-6.5,5.2c-1.9,1.9-3.5,4-4.9,6.3
			c-1.1,1.7-1.8,3.7-1.9,5.7c-0.1,0.8,0.3,1.5,0.9,2c0.4,0.6,1.4,0.8,3,0.8c2.6,0,5.2-0.4,7.6-1.2c2.6-0.8,5.2-1.8,7.7-3
			c2.4-1.2,4.8-2.5,7.1-4c2.2-1.4,4.2-2.8,5.9-4s3.5-2.7,5.5-4.3c0.6-0.6,1.3-0.6,2,0.1c0.2,0.2,0.3,0.5,0.3,0.8
			c0,0.4-0.2,0.7-0.5,1c-0.1,0.1-0.7,0.6-1.8,1.5s-2.5,2-4.2,3.3s-3.8,2.7-6.1,4.2s-4.7,2.9-7.2,4.2c-2.6,1.3-5.3,2.3-8.1,3.1
			C12,104,9.3,104.5,6.5,104.5z"/>
		<path class="st0" d="M57,93.2c-0.4,0-0.9,0-1.3-0.1l-1.3-0.2c-0.2-0.1-0.4-0.1-0.5-0.1c-1.2,1.4-2.4,2.8-3.8,4.1
			c-1.3,1.3-2.8,2.5-4.4,3.5c-1.5,1-3,1.8-4.6,2.4c-1.4,0.6-2.9,0.9-4.4,0.9c-1.3,0.1-2.6-0.3-3.6-1.1c-0.3-0.4-0.6-0.8-0.9-1.2
			c-0.3-0.6-0.4-1.4-0.4-2.1c0.1-2.2,0.8-4.4,2-6.3c1.5-2.5,3.3-4.8,5.3-6.9c2.2-2.2,4.6-4,7.3-5.6c2.4-1.5,5.2-2.3,8-2.3
			c1.2-0.1,2.4,0.3,3.4,1l0.7,1.2c0.3,0.6,0.5,1.3,0.4,2c0,1.2-0.3,2.5-0.9,3.6c-0.7,1.5-1.5,2.9-2.4,4.2c1.5,0.2,3,0.1,4.4-0.1
			c1.6-0.3,3.2-0.7,4.7-1.2s2.9-1.2,4.3-1.9c1.2-0.6,2.3-1.4,3.4-2.2c0.3-0.2,0.6-0.3,1-0.3c0.3,0.1,0.6,0.3,0.8,0.6
			c0.3,0.3,0.4,0.6,0.4,1s-0.2,0.7-0.5,0.9c-1,0.8-2.2,1.5-3.3,2.1c-1.4,0.8-2.8,1.4-4.3,2c-1.6,0.6-3.2,1.1-4.8,1.5
			C60.2,93,58.6,93.2,57,93.2z M34.3,99.4c-0.1,0.5,0.1,1,0.5,1.4c0.2,0.3,0.5,0.4,0.8,0.4s0.7,0,1,0c1.2,0,2.5-0.3,3.6-0.8
			c1.3-0.6,2.6-1.3,3.8-2.1c1.3-0.9,2.6-1.9,3.8-3s2.3-2.3,3.4-3.5c-0.7-0.5-1.3-1.2-1.7-2c-0.5-1.4-0.5-2.9-0.1-4.3
			c0.3-1.3,0.8-2.6,1.4-3.8c-2.2,0.7-4.3,1.8-6.1,3.2c-1.9,1.5-3.7,3.1-5.2,4.9c-1.4,1.6-2.7,3.4-3.7,5.3
			C35,96.4,34.5,97.8,34.3,99.4z M56.1,82.5c0-0.2,0-0.5,0-0.7S56,81.5,56,81.3c-0.5-0.2-1.1-0.3-1.6-0.2c-0.3,0.5-0.6,1-0.9,1.5
			c-0.3,0.6-0.6,1.3-0.9,2c-0.3,0.7-0.5,1.4-0.6,2.1c-0.1,0.6,0,1.3,0.1,1.9c0,0.1,0.1,0.3,0.1,0.4c0.1,0.2,0.4,0.4,0.6,0.5
			c0.9-1.2,1.7-2.5,2.3-3.9C55.7,84.7,56,83.6,56.1,82.5z"/>
		<path class="st0" d="M105.2,103.7c-0.7,0.1-1.3-0.1-1.8-0.5c-0.3-0.2-0.5-0.5-0.7-0.9c-0.6-1.1-0.3-2.6,0.7-4.4
			c1.5-2.5,3.1-4.9,4.8-7.2c0.6-0.7,1.2-1.6,1.9-2.6s1.4-2,2-2.9c0.5-0.8,1-1.7,1.5-2.5c0.3-0.5,0.4-1,0.4-1.6h-0.7
			c-1.1,0-2.7,0.7-4.7,2.2c-2.3,1.7-4.6,3.5-6.7,5.5c-2.4,2.2-4.9,4.5-7.3,7s-4.6,4.8-6.5,6.9c-0.3,0.5-1,0.7-1.5,0.4
			c-0.1-0.1-0.2-0.2-0.3-0.3c-0.3-0.2-0.5-0.5-0.5-0.9c0-0.3,0-0.7,0.2-1c2-2.3,3.9-4.6,5.6-6.8s3.1-4.2,4.3-6c1-1.5,1.9-3,2.7-4.7
			c0.5-0.8,0.7-1.7,0.7-2.6c-1.2,0.1-2.3,0.3-3.4,0.7c-1.2,0.5-2.4,1.2-3.5,2c-1.3,0.9-2.7,2.1-4.2,3.5s-3.4,3.1-5.5,5
			c-1.5,1.5-3.1,3.1-5,4.8l-6.3,5.8c-0.3,0.2-0.6,0.4-1,0.4s-0.7-0.2-0.9-0.5c-0.5-0.4-0.5-1.2-0.1-1.7c0.1-0.1,0.1-0.1,0.2-0.2
			c5.3-5.3,9-9.7,11.1-13s3-5.3,2.7-6c-1.3,0-2.6,0.4-3.7,1.1c-1.2,0.7-2.3,1.6-3.3,2.5L74,87c-0.2,0.3-0.6,0.4-1,0.4
			c-0.3,0-0.6-0.2-0.8-0.5c-0.5-0.6-0.4-1.5,0.2-2c0,0,0,0,0.1,0c0.7-0.5,1.3-1,1.9-1.6c1.3-1,2.6-2,3.9-2.8
			c1.4-0.8,3.1-1.3,4.7-1.2c0.5,0,1.1,0.1,1.5,0.4c0.5,0.2,0.8,0.6,1,1.1c0.3,0.9,0.3,1.9,0,2.8c-0.4,1.3-1,2.6-1.8,3.8
			c1.7-1.5,3.3-2.9,4.6-4c1.2-1,2.4-2,3.7-2.8c1.1-0.7,2.2-1.2,3.4-1.6c1.1-0.3,2.3-0.5,3.5-0.5c0.7-0.1,1.3,0.1,1.8,0.5
			c0.3,0.2,0.5,0.5,0.7,0.9c0.3,1,0.3,2.1-0.1,3.1c-0.5,1.5-1.1,2.9-1.9,4.3c1.3-1.2,2.6-2.3,3.9-3.4s2.6-2,3.8-2.8
			c1.1-0.7,2.2-1.4,3.4-2c0.8-0.4,1.7-0.7,2.7-0.7c0.8-0.1,1.5,0.1,2.2,0.5c0.4,0.3,0.7,0.6,1.1,1c0.6,1.2,0.2,2.7-0.9,4.7
			c-1.2,2-2.9,4.6-5.2,7.7c-0.5,0.7-1.1,1.4-1.7,2.3s-1.2,1.7-1.8,2.5c-0.5,0.7-1,1.5-1.4,2.3c-0.3,0.5-0.5,1-0.6,1.6h0.3
			c2-0.1,4-0.7,5.8-1.7c2.4-1.2,4.7-2.6,6.9-4.1c2.4-1.6,4.6-3.3,6.9-5.2l5.8-4.7L131,85c0.2-0.3,0.6-0.4,1-0.4s0.7,0.2,1,0.5
			c0.5,0.4,0.5,1.2,0.1,1.6c-0.1,0.1-0.2,0.1-0.2,0.2l-0.5,0.3c-1.8,1.5-3.8,3.3-6.2,5.2c-2.3,1.9-4.7,3.7-7.2,5.4
			c-2.3,1.6-4.7,3-7.2,4.2C109.6,103.1,107.4,103.6,105.2,103.7z"/>
		<path class="st0" d="M101.6,151c-0.6,0-1.1-0.1-1.7-0.3c-0.6-0.3-1.1-0.7-1.5-1.3c-0.5-1-0.6-2.1-0.4-3.1c0.4-1.9,1.1-3.8,1.9-5.6
			c1-2.3,2.3-4.9,3.9-7.8c1.6-2.9,3.4-5.9,5.5-9.2c2.1-3.2,4.3-6.5,6.7-9.8c2.4-3.3,4.9-6.5,7.5-9.6s5.2-5.9,7.8-8.5
			c1-2.3,2.1-4.5,3.1-6.6s2.1-4.3,3.1-6.3c-0.8,0.8-1.6,1.5-2.5,2.2l-2.9,2.3c-0.2,0.3-0.6,0.4-1,0.4c-0.3,0-0.6-0.2-0.8-0.5
			c-0.3-0.3-0.4-0.6-0.4-1s0.2-0.7,0.5-1c3.1-2.3,5.9-4.9,8.5-7.7c1.7-1.9,3.2-4,4.6-6.2l1.3-2.5c0.2-0.3,0.5-0.5,0.8-0.6
			s0.7-0.1,1,0.2c0.3,0.2,0.5,0.5,0.6,0.9c0.1,0.3,0.1,0.7,0,1c-0.2,0.4-0.4,0.8-0.7,1.2c-0.3,0.3-0.5,0.7-0.7,1.1
			c-1.6,2.9-3.2,5.9-4.8,8.9s-3.1,6.2-4.6,9.5c2.4-2.1,5.1-4,7.9-5.6c2.1-1.3,4.5-2,7-2.1c1.7-0.1,3.4,0.4,4.8,1.5
			c1.2,0.9,1.9,2.4,1.8,3.9c0,1.4-0.4,2.8-1,4c-0.7,1.4-1.6,2.8-2.6,4c0.9-0.6,1.8-1.2,2.7-1.9l2.9-2.2c1.6-1.2,3.3-2.5,5.2-3.8
			s4-2.6,6.3-4c0.3-0.3,0.6-0.3,1-0.2c0.3,0.1,0.6,0.4,0.8,0.7c0.3,0.6,0.1,1.5-0.5,1.8c-2.2,1.3-4.2,2.6-6,3.8
			c-1.8,1.2-3.4,2.5-5,3.7s-3.1,2.3-4.6,3.3c-1.4,1-2.9,1.9-4.4,2.7c-1.5,0.8-3.1,1.4-4.7,1.8c-1.8,0.4-3.6,0.7-5.4,0.6
			c-0.4,0-0.7-0.2-1-0.4c-0.3-0.3-0.5-0.7-0.5-1.1c0-0.3,0.2-0.7,0.5-0.9c0.3-0.3,0.6-0.4,1-0.4c1.6,0,3.2-0.4,4.6-1.2
			c1.5-0.8,2.8-1.8,4.1-3c1.1-1.1,2.1-2.4,2.9-3.8c0.6-1.1,1-2.3,1.1-3.6c0.1-0.7-0.2-1.3-0.6-1.8c-0.9-0.7-2-1-3.1-0.9
			c-2.3,0-4.9,1-8,3.1c-3.5,2.4-6.8,5.2-9.9,8.2c-0.9,2-1.8,4-2.7,6.1s-1.8,4.1-2.8,6c-2.6,5.8-5,11.2-7.3,16.2
			c-2.3,5.1-4.5,9.5-6.7,13.3c-1.8,3.2-3.9,6.2-6.4,8.9C105.8,149.9,103.7,151,101.6,151z M128.1,103.1c-2.3,2.7-4.6,5.5-6.9,8.4
			s-4.5,5.9-6.5,8.9c-2.1,3-4,6-5.8,8.9c-1.8,2.9-3.3,5.7-4.7,8.4c-0.9,1.7-1.8,3.5-2.5,5.4c-0.4,1-0.7,2.1-0.9,3.2
			c-0.2,0.6-0.2,1.2-0.1,1.8c1.7,0.6,3.5-0.2,5.4-2.4c2.4-2.8,4.5-5.8,6.2-9c2.2-3.8,4.4-8.3,6.7-13.3c2.3-5,4.5-10.1,6.8-15.4
			l1.1-2.5C127.4,104.8,127.8,103.9,128.1,103.1z"/>
		<path class="st0" d="M168.6,103.5h-0.8c-0.3,0-0.6-0.1-0.8-0.2c-1.7-0.6-2.9-2.1-3-3.9c-0.2-1.1-0.2-2.2,0-3.2
			c0.3-1.3,0.7-2.6,1.3-3.8c0.8-1.4,1.6-2.8,2.7-4.1c1.2-1.5,2.6-2.8,4.1-4c2.6-2,5.5-3.6,8.5-4.8c2.3-1,4.9-1.2,7.4-0.7
			c1.3,0.2,2.6,0.6,3.7,1.2c0.7,0.4,1.3,0.9,1.8,1.5c0.8-0.8,1.6-1.7,2.2-2.6c0.7-0.6,1.3-0.6,1.8-0.1c0.3,0.2,0.5,0.5,0.6,0.9
			s0,0.7-0.3,1c-1.1,1.5-2.2,3.1-3.4,5c-1.1,1.9-2.1,3.7-3,5.4c-0.8,1.5-1.5,3.2-2,4.8c-0.4,1.1-0.4,2.2,0,3.3l0.6,0.5
			c0.5,0.3,1.1,0.4,1.7,0.4c1.1,0,2.3-0.2,3.4-0.6c1.8-0.6,3.5-1.3,5.2-2.3c2.6-1.4,5-3,7.4-4.7c2.9-2,6.3-4.6,10.1-7.8
			c0.2-0.3,0.6-0.4,1-0.4c0.3,0,0.6,0.2,0.8,0.5c0.5,0.4,0.5,1.2,0.1,1.7c-0.1,0.1-0.1,0.1-0.2,0.2c-5.2,4.5-10.8,8.5-16.6,12.1
			c-4.5,2.7-8.2,4-11.2,4c-1.1,0.1-2.2-0.2-3.1-0.8c-0.6-0.5-1.1-1-1.5-1.7c-0.6-1.4-0.7-3.1-0.2-4.6c0.5-2,1.2-3.9,2.1-5.8
			c-1.6,1.6-3.3,3.2-5.1,4.7c-1.8,1.6-3.6,3-5.4,4.2c-1.6,1.2-3.4,2.2-5.2,3.1C171.7,103.1,170.2,103.5,168.6,103.5z M186.2,81.3
			c-2,0-3.9,0.5-5.8,1.2c-2.3,1-4.5,2.3-6.4,3.9c-2.5,1.8-4.5,4.1-6,6.7c-1.1,1.8-1.6,3.8-1.5,5.9c0,0.7,0.5,1.4,1.2,1.7
			c1.1,0.4,2.6,0.1,4.5-0.8c2.2-1.1,4.2-2.4,6.1-3.9c2.2-1.7,4.5-3.7,6.8-5.8c2.3-2.2,4.5-4.4,6.5-6.6c0-0.1-0.3-0.5-1-1.1
			c-0.9-0.7-2-1.1-3.1-1.2L186.2,81.3z"/>
		<path class="st0" d="M238.7,103.2H238c-1,0-1.9-0.4-2.6-1.1c-0.3-0.3-0.6-0.7-0.8-1.1c-0.5-1.5,0.1-3.3,1.7-5.5s3.8-4.8,6.4-7.9
			c1-1.1,2.1-2.3,3.1-3.6c0.8-0.9,1.5-1.9,2-3c-1.7,0.1-3.4,0.6-5,1.3c-2.2,1.1-4.3,2.4-6.3,3.8c-2.4,1.7-5.2,3.9-8.4,6.6
			s-7,6-11.3,9.8c-0.3,0.2-0.6,0.4-1,0.4c-0.3,0-0.7-0.2-0.8-0.5c-0.3-0.3-0.5-0.6-0.5-1c0-0.3,0.2-0.7,0.5-0.9
			c5.3-5.3,8.9-9.6,11-13s3-5.4,2.8-6c-1.3,0-2.6,0.4-3.8,1.1c-1.2,0.8-2.3,1.6-3.4,2.5c-0.3,0.3-0.6,0.5-0.9,0.8
			c-0.3,0.2-0.6,0.5-1,0.8c-0.2,0.3-0.6,0.4-1,0.4c-0.3-0.1-0.7-0.2-0.9-0.5c-0.3-0.3-0.4-0.7-0.3-1.1c0.1-0.4,0.3-0.7,0.6-0.9
			c0.3-0.3,0.6-0.6,1-0.8c0.4-0.2,0.7-0.5,1.1-0.8c1.2-1,2.5-1.9,3.8-2.8c1.5-0.9,3.1-1.3,4.8-1.2c1.1-0.1,2.1,0.5,2.5,1.5
			c0.4,1.2,0.2,2.5-0.3,3.5c-0.7,1.7-1.6,3.3-2.6,4.8c2.3-1.8,4.4-3.4,6.3-4.8c1.7-1.2,3.4-2.3,5.2-3.4c1.4-0.8,2.9-1.5,4.5-2
			c1.3-0.4,2.7-0.6,4.1-0.6c0.6,0,1.1,0.1,1.6,0.4c0.3,0.2,0.5,0.5,0.7,0.8c0.5,1,0.2,2.2-0.9,3.6c-1.1,1.4-2.7,3.5-5,6.1
			c-0.7,0.8-1.6,1.7-2.5,2.8c-0.9,1.1-1.8,2.1-2.6,3.1c-0.8,0.9-1.4,1.9-2,2.9c-0.5,0.9-0.6,1.6-0.5,2c0,0.1,0.2,0.2,0.6,0.2
			c1.6,0.3,3.2,0,4.6-0.7c2-0.9,3.9-1.9,5.8-3.1c2-1.3,4-2.7,6.1-4.3c2.1-1.6,4-3.1,5.7-4.5l1.8-1.5c0.6-0.5,1.1-0.9,1.7-1.3
			c0.5-0.4,1.3-0.4,1.7,0.1c0,0.1,0.1,0.1,0.1,0.2c0.3,0.2,0.4,0.6,0.4,1c-0.1,0.3-0.2,0.6-0.5,0.9c-1.3,0.8-2.5,1.8-3.6,2.8
			c-1.7,1.4-3.6,2.9-5.6,4.5s-4,3-6,4.3c-1.9,1.2-3.9,2.3-5.9,3.3C242.4,102.7,240.6,103.1,238.7,103.2z"/>
		<path class="st0" d="M244.1,151c-0.6,0-1.2-0.1-1.8-0.3c-1.4-0.5-2.4-1.6-2.8-3c-0.4-1.7-0.1-3.8,0.9-6.4c1.2-2.9,2.7-5.7,4.4-8.4
			c2.1-3.2,4.4-6.4,6.8-9.3c2.6-3.2,5.3-6.3,8.2-9.2c1.6-1.7,3.2-3.3,4.9-4.8c1.7-1.5,3.3-2.9,5.1-4.3c1.8-4.2,3.6-8.3,5.5-12.4
			s3.8-8.1,5.8-12c-3.5,4.1-7.3,8-11.3,11.7c-3.1,2.7-6,4.2-8.7,4.7c-0.2,0-0.4,0-0.6-0.1L260,97c-0.1-0.1-0.2-0.3-0.3-0.5
			c-0.1-0.2-0.2-0.4-0.3-0.6c0-0.1,0-0.5,0.1-1.3c0.1-1,0.3-2.1,0.6-3.1c0.5-1.5,1.1-2.9,1.8-4.3c1-1.8,2.1-3.4,3.5-4.9
			c0.3-0.2,0.6-0.4,1-0.5s0.8,0.1,1,0.4c0.3,0.3,0.4,0.6,0.5,1c0,0.3-0.2,0.7-0.5,0.8c-2.6,2.7-4.4,6.2-5,9.9
			c1.9-0.8,3.6-1.9,5.2-3.2c2.1-1.8,4-3.7,5.9-5.6c2.1-2.2,4.4-4.7,6.7-7.5c2.4-2.8,4.8-5.8,7.4-9c0.5-0.6,1.1-0.6,1.8-0.1
			c0.3,0.1,0.5,0.4,0.5,0.7c0.1,0.3,0.1,0.7-0.1,1c-2.8,4.6-5.4,9.6-8,14.9s-5.1,10.8-7.6,16.4c2.7-2,5.3-3.8,7.9-5.6
			c2.6-1.8,5.2-3.5,7.8-5.2c1.5-1,3-2,4.5-2.9s2.9-1.9,4.4-3c0.2-0.2,0.6-0.3,0.9-0.3s0.7,0.2,0.8,0.5c0.5,0.6,0.4,1.5-0.2,2l0,0
			l-8.9,5.8c-3.3,2.1-6.5,4.3-9.7,6.5s-6.4,4.7-9.7,7.3c-0.4,0.8-0.8,1.6-1.1,2.5c-2.6,5.8-5,11.2-7.4,16.2c-2.4,5-4.6,9.5-6.8,13.3
			c-1.8,3.2-3.9,6.2-6.4,8.9C248.2,149.9,246.2,151,244.1,151z M267.1,110.7c-1.8,1.7-3.6,3.5-5.4,5.4c-3.5,3.7-6.5,7.2-9.1,10.5
			c-2.3,2.9-4.4,5.9-6.4,9c-1.4,2.2-2.6,4.6-3.6,7c-0.6,1.4-0.9,2.9-0.7,4.4c0.2,0.5,0.6,0.9,1.1,1.1c1.6,0.6,3.3-0.2,5.2-2.2
			c2.3-2.5,4.3-5.3,5.9-8.3c2.1-3.6,4.2-7.7,6.3-12.4C262.7,120.6,264.9,115.7,267.1,110.7L267.1,110.7z"/>
	</g>
</g>
</svg>
