<?xml version="1.0" encoding="utf-8"?>
<!-- Generator: Adobe Illustrator 21.1.0, SVG Export Plug-In . SVG Version: 6.00 Build 0)  -->
<svg version="1.1" id="レイヤー_1" xmlns="http://www.w3.org/2000/svg" xmlns:xlink="http://www.w3.org/1999/xlink" x="0px"
	 y="0px" viewBox="0 0 113.4 34.4" style="enable-background:new 0 0 113.4 34.4;" xml:space="preserve">
<style type="text/css">
	.st0{enable-background:new    ;}
	.st1{fill:#231815;}
</style>
<title>design</title>
<g id="レイヤー_2">
	<g id="レイヤー_1-2">
		<g class="st0">
			<path class="st1" d="M-0.1,26.1L5.1,1.2h7.5c1.8,0,3.2,0.1,4.1,0.4c1.4,0.4,2.5,1,3.5,1.9c1,0.9,1.7,2,2.2,3.4s0.7,2.9,0.7,4.5
				c0,2-0.3,3.8-0.9,5.5c-0.6,1.6-1.4,3.1-2.4,4.3c-1,1.2-2,2.2-3.1,2.9c-1.1,0.7-2.3,1.2-3.8,1.6c-1.1,0.3-2.5,0.4-4.1,0.4H-0.1z
				 M3.8,23.2h3.9c1.8,0,3.4-0.2,4.7-0.5c0.9-0.2,1.6-0.5,2.2-0.9c0.8-0.5,1.5-1.2,2.2-2c0.9-1.1,1.5-2.4,2.1-3.8s0.8-3,0.8-4.8
				c0-2-0.4-3.6-1.1-4.6C17.9,5.5,17,4.7,16,4.4C15.1,4.1,13.9,4,12.2,4H7.8L3.8,23.2z"/>
			<path class="st1" d="M37.8,19.9l3,0.3c-0.4,1.5-1.4,2.9-3,4.2c-1.5,1.3-3.4,2-5.5,2c-1.3,0-2.6-0.3-3.7-0.9
				c-1.1-0.6-2-1.5-2.5-2.7c-0.6-1.2-0.9-2.5-0.9-4c0-2,0.5-3.9,1.4-5.7c0.9-1.8,2.1-3.2,3.5-4.1s3-1.3,4.7-1.3c2.1,0,3.9,0.7,5.2,2
				s1.9,3.2,1.9,5.5c0,0.9-0.1,1.8-0.2,2.7H28.4c0,0.4-0.1,0.7-0.1,1c0,1.7,0.4,3,1.2,3.9c0.8,0.9,1.7,1.3,2.8,1.3
				c1.1,0,2.1-0.3,3.1-1S37.2,21.2,37.8,19.9z M28.9,15.5H39c0-0.3,0-0.5,0-0.7c0-1.5-0.4-2.7-1.2-3.5c-0.8-0.8-1.8-1.2-3-1.2
				c-1.3,0-2.5,0.5-3.6,1.4S29.4,13.6,28.9,15.5z"/>
			<path class="st1" d="M44.2,19.9l3.1-0.2c0,0.9,0.1,1.6,0.4,2.3c0.3,0.6,0.8,1.1,1.5,1.5c0.7,0.4,1.6,0.6,2.6,0.6
				c1.4,0,2.4-0.3,3.1-0.8c0.7-0.5,1-1.2,1-1.9c0-0.5-0.2-1-0.6-1.5c-0.4-0.5-1.4-1.1-3.1-1.8c-1.6-0.7-2.7-1.2-3.1-1.5
				c-0.8-0.5-1.3-1-1.7-1.6c-0.4-0.6-0.6-1.3-0.6-2.2c0-1.4,0.6-2.6,1.7-3.7c1.1-1,2.7-1.5,4.8-1.5c2.3,0,4,0.5,5.2,1.6
				c1.2,1,1.8,2.4,1.8,4.1l-3,0.2c0-1.1-0.4-1.9-1.2-2.6s-1.7-1-3.1-1c-1.1,0-1.9,0.2-2.5,0.7c-0.6,0.5-0.9,1-0.9,1.6
				c0,0.6,0.3,1.1,0.8,1.5c0.3,0.3,1.2,0.7,2.6,1.4c2.4,1,3.8,1.8,4.4,2.4c1,0.9,1.5,2.1,1.5,3.4c0,0.9-0.3,1.8-0.8,2.6
				c-0.5,0.9-1.4,1.5-2.5,2.1s-2.5,0.8-4,0.8c-2.1,0-3.9-0.5-5.3-1.5C44.8,23.9,44.1,22.2,44.2,19.9z"/>
			<path class="st1" d="M61.2,26.1l3.8-18H68l-3.8,18H61.2z M65.6,4.7l0.7-3.5h3.1l-0.7,3.5H65.6z"/>
			<path class="st1" d="M68.8,27.7l3.1,0.3c0,0.7,0.1,1.2,0.3,1.6c0.2,0.4,0.5,0.6,0.9,0.8c0.6,0.2,1.3,0.4,2.2,0.4
				c1.9,0,3.2-0.5,4-1.4c0.5-0.6,1-2,1.5-4.2l0.3-1.5c-1.6,1.6-3.3,2.4-5.1,2.4c-1.8,0-3.3-0.7-4.6-2c-1.2-1.3-1.8-3.2-1.8-5.7
				c0-2,0.5-3.9,1.5-5.6s2.1-3,3.5-3.8s2.7-1.3,4.1-1.3c2.4,0,4.2,1.1,5.5,3.4l0.6-3h2.8l-3.6,17.4c-0.4,1.9-0.9,3.4-1.6,4.5
				s-1.5,1.9-2.7,2.5c-1.1,0.6-2.5,0.9-4,0.9c-1.4,0-2.7-0.2-3.7-0.6s-1.8-0.9-2.3-1.6c-0.5-0.7-0.8-1.5-0.8-2.5
				C68.8,28.3,68.8,28,68.8,27.7z M72.7,18.1c0,1.2,0.1,2.2,0.4,2.8c0.3,0.9,0.8,1.5,1.5,2s1.3,0.7,2.1,0.7c1,0,2-0.4,3-1.1
				c1-0.7,1.8-1.8,2.4-3.3c0.6-1.5,0.9-2.9,0.9-4.2c0-1.5-0.4-2.7-1.2-3.5c-0.8-0.9-1.8-1.3-3-1.3c-0.7,0-1.5,0.2-2.2,0.6
				s-1.4,1-2,1.8s-1.1,1.8-1.4,2.9C72.8,16.6,72.7,17.5,72.7,18.1z"/>
			<path class="st1" d="M88.3,26.1l3.8-18h2.8l-0.7,3.1c1.2-1.2,2.3-2.1,3.4-2.7c1.1-0.6,2.1-0.8,3.2-0.8c1.5,0,2.6,0.4,3.4,1.2
				s1.2,1.8,1.2,3.2c0,0.7-0.1,1.7-0.4,3.2l-2.3,10.9h-3.1l2.4-11.4c0.2-1.1,0.4-1.9,0.4-2.5c0-0.6-0.2-1.1-0.6-1.5
				c-0.4-0.4-1-0.6-1.8-0.6c-1.6,0-3,0.6-4.2,1.7c-1.2,1.1-2.1,3.1-2.7,5.8l-1.7,8.4H88.3z"/>
		</g>
	</g>
</g>
</svg>
