<svg xmlns="http://www.w3.org/2000/svg" viewBox="0 0 334.29 160.03"><defs><style>.cls-1{fill:#fff;}</style></defs><title>アセット 1</title><g id="レイヤー_2" data-name="レイヤー 2"><g id="レイヤー_1-2" data-name="レイヤー 1"><polygon class="cls-1" points="167.14 31.27 0 83.01 167.14 134.76 334.29 83.01 167.14 31.27"/><path d="M79.72,67a3.67,3.67,0,0,1,.9-2.45,3.72,3.72,0,0,1,2.28-1.31l5.32-.86a2.56,2.56,0,0,1,2.29.64,3.17,3.17,0,0,1,.9,2.4q0,17.08,0,34.16a3.17,3.17,0,0,1-.9,2.4,2.55,2.55,0,0,1-2.29.64l-5.32-.86a3.71,3.71,0,0,1-2.28-1.31,3.66,3.66,0,0,1-.9-2.45Zm7.7,32.07q.8.11.8-.76V66.72c0-.57-.27-.83-.8-.76l-3.72.5a.84.84,0,0,0-.8.94V97.66a.84.84,0,0,0,.8.94Z"/><path d="M101,61.51q0-.94.8-1,3.87-.5,7.74-.93a2.51,2.51,0,0,1,2.3.88,4.07,4.07,0,0,1,.91,2.77v24a4.31,4.31,0,0,1-.91,2.84,2.69,2.69,0,0,1-2.3,1l-5.34-.23v13.1q0,1-.8.86l-1.6-.2q-.8-.1-.8-1Zm3.2,2.49V87l4.54.11q.8,0,.8-1V64.46q0-1-.8-.91Z"/><path d="M121.84,59.35q0-1,.8-1.11,4.55-.39,9.1-.7.8-.05.8,1v2.15q0,1.07-.8,1.12-3.35.19-6.69.41,0,7.35,0,14.69l4.55-.08q.8,0,.8,1.05t0,2.13q0,1.07-.8,1.07l-4.55,0q0,10.84,0,21.69,3.35.22,6.69.41.8,0,.8,1.12v2.15q0,1.07-.8,1-4.55-.31-9.1-.7-.8-.07-.8-1.11Q121.84,82.53,121.84,59.35Z"/><path d="M143.28,67.15q0,20,0,39.9,0,1.1-.8,1.06l-1.61-.08q-.8,0-.8-1.13V58.15q0-1.09.8-1.13l1.61-.08a.76.76,0,0,1,.64.23,2.85,2.85,0,0,1,.43.82q2.55,8,5.1,16.05V57.8q0-1.11.8-1.13l1.61,0q.81,0,.8,1.09,0,24.82,0,49.63,0,1.11-.8,1.09l-1.61,0q-.8,0-.8-1.13V84Q146,75.51,143.28,67.15Z"/><path d="M177.62,107.36q0,1.11-.81,1.13l-1.61,0q-.81,0-.81-1.1V61l-4,0q-.8,0-.8-1.12V57.57c0-.74.27-1.12.8-1.11q5.64.06,11.27.25.8,0,.8,1.13t0,2.21q0,1.1-.8,1.08l-4-.1Z"/><path d="M189.42,61.4a5,5,0,0,1,.91-3.09,2.59,2.59,0,0,1,2.3-1.11l5.36.33a3,3,0,0,1,2.3,1.37,5.19,5.19,0,0,1,.91,3.11v41.06a5.18,5.18,0,0,1-.91,3.11,3,3,0,0,1-2.3,1.37l-5.36.33a2.58,2.58,0,0,1-2.3-1.11,4.94,4.94,0,0,1-.91-3.09Zm7.77,41.89q.8,0,.8-1.12V62.88q0-1.07-.8-1.12l-3.75-.19q-.8,0-.8,1v39.81q0,1.08.8,1Z"/><path d="M221,73.68q.69,0,.8,1,1.07,11.79,2.14,23.32,1.74-18.7,3.47-36.7.05-.94.8-.85l1.6.21q.8.11.8,1-2,20.56-4,42.12c-.07.64-.34,1-.8,1.05l-3.2.39q-.75.09-.8-.89-.93-9.85-1.87-19.88-.93,10.05-1.87,20.28c-.07.67-.34,1-.8,1.08l-3.21.33q-.75.07-.8-.94-2-22.54-4-45.82,0-1,.8-1l1.61.15q.69.07.8,1.1,1.74,19.73,3.48,38.91,1.07-12.15,2.14-24.07.05-1,.8-1Z"/><path d="M241.79,70.45v31.33a.88.88,0,0,1-.8,1l-1.6.24q-.8.12-.8-.76V62.8q0-.88.8-.76l1.6.24a1.06,1.06,0,0,1,.64.3,2.77,2.77,0,0,1,.43.73q2.53,6.69,5,12.89V64.09q0-.83.8-.69l1.59.27a.86.86,0,0,1,.8.94v35.82a.86.86,0,0,1-.8.94l-1.59.27q-.8.14-.8-.69V83.63Q244.44,77.32,241.79,70.45Z"/><path class="cls-1" d="M58.68,27.59V45.16c0,4.61-2.28,6.44-5.74,6.44H48.41c-.85,0-1.3-.61-1.3-1.74v-27c0-1.13.46-1.74,1.3-1.74h4.53C56.4,21.15,58.68,23,58.68,27.59Zm-5.87-2H50.88V47.16h1.92c1.24,0,2.09-.61,2.09-2.78v-16C54.9,26.2,54,25.59,52.81,25.59Z"/><path class="cls-1" d="M78.67,45H71.48c-.81,0-1.25-.58-1.25-1.67V17.44c0-1.08.44-1.67,1.25-1.67h7.1c.81,0,1.25.58,1.25,1.67v.92c0,1.08-.44,1.67-1.25,1.67H73.85v8h3.75c.81,0,1.25.58,1.25,1.67v.92c0,1.08-.44,1.67-1.25,1.67H73.85v8.42h4.82c.81,0,1.25.58,1.25,1.67v.92C79.92,44.38,79.48,45,78.67,45Z"/><path class="cls-1" d="M99,20.38H98c-.78,0-1.2-.56-1.2-1.6V16.47c0-1.76-.75-2.4-1.77-2.4s-1.77.64-1.77,2.4v1.92a3,3,0,0,0,1.35,2.83l2.46,1.84c2,1.52,3.2,2.75,3.2,5.75v4c0,4.31-2,5.83-5.18,5.83h-.06c-3.17,0-5.18-1.48-5.18-5.83V29.56c0-1,.42-1.6,1.2-1.6h1c.78,0,1.2.56,1.2,1.6V32.2c0,1.72.75,2.48,1.8,2.48s1.8-.76,1.8-2.48V30a3,3,0,0,0-1.38-2.91l-2.42-1.84c-2-1.56-3.2-2.83-3.2-5.75V15.83c0-4.15,2.28-5.75,5.15-5.75h.06c2.87,0,5.15,1.6,5.15,5.75v3C100.24,19.82,99.82,20.38,99,20.38Z"/><path class="cls-1" d="M112.82,33.72h-1c-.74,0-1.14-.53-1.14-1.53V8.55c0-1,.4-1.53,1.14-1.53h1c.74,0,1.14.53,1.14,1.53V32.19C114,33.18,113.56,33.72,112.82,33.72Z"/><path class="cls-1" d="M134,17.46V24c0,3.93-1.91,5.38-4.8,5.38H129c-2.89,0-4.8-1.42-4.8-5.38V8.74c0-3.78,1.91-5.38,4.8-5.38h.22c2.89,0,4.8,1.6,4.8,5.38v2.18c0,.95-.38,1.45-1.09,1.45h-1c-.71,0-1.09-.51-1.09-1.45V9.39c0-1.82-.71-2.33-1.75-2.33s-1.75.51-1.75,2.33v14c0,1.82.71,2.33,1.75,2.33s1.75-.51,1.75-2.33V19.57h-.76c-.71,0-1.09-.51-1.09-1.45v-.65c0-.94.38-1.45,1.09-1.45h2.84C133.63,16,134,16.52,134,17.46Z"/><path class="cls-1" d="M145.3,24.47h-.67c-.67,0-1-.48-1-1.38V1.66c0-.9.36-1.38,1-1.38h1.09q.9,0,1.17,1.14l3.53,13.82V1.66c0-.9.36-1.38,1-1.38h.67c.67,0,1,.48,1,1.38V23.09c0,.9-.36,1.38-1,1.38h-.93q-.89,0-1.17-1.14L146.34,8.74V23.09C146.34,24,146,24.47,145.3,24.47Z"/><path class="cls-1" d="M186.47,0h.21c2.75,0,4.56,1.45,4.56,5.12V19.63c0,3.66-1.81,5.11-4.56,5.11h-.21c-2.75,0-4.56-1.45-4.56-5.11V5.12C181.91,1.42,183.73,0,186.47,0Zm.1,21.22c1,0,1.66-.48,1.66-2.21V5.74c0-1.73-.67-2.21-1.66-2.21s-1.66.48-1.66,2.21V19C184.92,20.74,185.59,21.22,186.58,21.22Z"/><path class="cls-1" d="M200.47,25.09V3.66c0-.9.36-1.38,1-1.38h5.78c.67,0,1,.48,1,1.38v.76c0,.9-.36,1.38-1,1.38h-3.81v6.81h3c.67,0,1,.48,1,1.38v.76c0,.9-.36,1.38-1,1.38h-3v9c0,.9-.36,1.38-1,1.38h-.93C200.83,26.47,200.47,26,200.47,25.09Z"/><path class="cls-1" d="M216.69,29.64V7.1c0-.94.38-1.45,1.09-1.45h6.08c.71,0,1.09.51,1.09,1.45v.8c0,.94-.38,1.45-1.09,1.45h-4v7.16H223c.71,0,1.09.51,1.09,1.45v.8c0,.94-.38,1.45-1.09,1.45h-3.16v9.41c0,.95-.38,1.45-1.09,1.45h-1C217.07,31.09,216.69,30.58,216.69,29.64Z"/><path class="cls-1" d="M236.2,38.34h-1.08c-.78,0-1.2-.56-1.2-1.6V12c0-1,.42-1.6,1.2-1.6h1.08c.78,0,1.2.56,1.2,1.6V36.75C237.4,37.78,237,38.34,236.2,38.34Z"/><path class="cls-1" d="M258.77,34.56v4.19c0,4.31-2.1,5.91-5.27,5.91h-.06c-3.17,0-5.27-1.56-5.27-5.91V22c0-4.15,2.1-5.91,5.27-5.91h.06c3.17,0,5.27,1.76,5.27,5.91V25.5c0,1-.42,1.6-1.2,1.6H256.5c-.78,0-1.2-.56-1.2-1.6V22.71c0-2-.72-2.55-1.83-2.55s-1.83.6-1.83,2.55V38c0,2,.72,2.55,1.83,2.55S255.3,40,255.3,38V34.56c0-1,.42-1.6,1.2-1.6h1.08C258.35,33,258.77,33.53,258.77,34.56Z"/><path class="cls-1" d="M278.25,51.59h-7.5c-.85,0-1.3-.61-1.3-1.74v-27c0-1.13.46-1.74,1.3-1.74h7.4c.85,0,1.3.61,1.3,1.74v1c0,1.13-.46,1.74-1.3,1.74h-4.92v8.35h3.91c.85,0,1.3.61,1.3,1.74v1c0,1.13-.46,1.74-1.3,1.74h-3.91v8.78h5c.85,0,1.3.61,1.3,1.74v1C279.55,51,279.09,51.59,278.25,51.59Z"/><path class="cls-1" d="M108.7,147.25h.62a.61.61,0,0,1,.68.68v4.31h2.27v-4.31a.61.61,0,0,1,.68-.68h.62a.61.61,0,0,1,.68.68v10.6a.61.61,0,0,1-.68.68H113a.61.61,0,0,1-.68-.68V154H110v4.51a.61.61,0,0,1-.68.68h-.62a.61.61,0,0,1-.68-.68v-10.6A.61.61,0,0,1,108.7,147.25Z"/><path class="cls-1" d="M121.19,147.93v.38a.61.61,0,0,1-.68.68h-1.32v9.54a.61.61,0,0,1-.68.68h-.62a.61.61,0,0,1-.68-.68V149h-1.32a.61.61,0,0,1-.68-.68v-.38a.61.61,0,0,1,.68-.68h4.61A.61.61,0,0,1,121.19,147.93Z"/><path class="cls-1" d="M127.38,147.93v.38a.61.61,0,0,1-.68.68h-1.32v9.54a.61.61,0,0,1-.68.68h-.62a.61.61,0,0,1-.68-.68V149h-1.32a.61.61,0,0,1-.68-.68v-.38a.61.61,0,0,1,.68-.68h4.61A.61.61,0,0,1,127.38,147.93Z"/><path class="cls-1" d="M134.44,149.78v2.27c0,1.81-1.2,2.53-3,2.53h-1.11v3.95a.61.61,0,0,1-.68.68H129a.61.61,0,0,1-.68-.68v-10.6a.61.61,0,0,1,.68-.68h2.41C133.24,147.25,134.44,148,134.44,149.78Zm-2,.31c0-.85-.44-1.09-1.09-1.09h-1v3.85h1c.65,0,1.09-.24,1.09-1.09Z"/><path class="cls-1" d="M137.48,151.51v.85a.61.61,0,0,1-.68.68h-.58a.61.61,0,0,1-.68-.68v-.85a.61.61,0,0,1,.68-.68h.58A.61.61,0,0,1,137.48,151.51Zm0,6.17v.85a.61.61,0,0,1-.68.68h-.58a.61.61,0,0,1-.68-.68v-.85a.61.61,0,0,1,.68-.68h.58A.61.61,0,0,1,137.48,157.68Z"/><path class="cls-1" d="M143.41,147.2l-3.35,12.25a.71.71,0,0,1-.75.58h-.36a.55.55,0,0,1-.58-.77L141.72,147a.71.71,0,0,1,.75-.58h.36A.55.55,0,0,1,143.41,147.2Z"/><path class="cls-1" d="M148.86,147.2l-3.35,12.25a.71.71,0,0,1-.75.58h-.36a.55.55,0,0,1-.58-.77L147.17,147a.71.71,0,0,1,.75-.58h.36A.55.55,0,0,1,148.86,147.2Z"/><path class="cls-1" d="M152.86,147.11H153c1.81,0,3,.72,3,2.53v7.18c0,1.81-1.2,2.53-3,2.53h-.14c-1.81,0-3-.72-3-2.53v-7.18C149.85,147.81,151,147.11,152.86,147.11Zm.07,10.49c.65,0,1.09-.24,1.09-1.09V150c0-.85-.44-1.09-1.09-1.09s-1.09.24-1.09,1.09v6.56C151.83,157.37,152.28,157.61,152.93,157.61Z"/><path class="cls-1" d="M163.74,149.78v2.27c0,1.81-1.2,2.53-3,2.53h-1.11v3.95a.61.61,0,0,1-.68.68h-.62a.61.61,0,0,1-.68-.68v-10.6a.61.61,0,0,1,.68-.68h2.41C162.55,147.25,163.74,148,163.74,149.78Zm-2,.31c0-.85-.44-1.09-1.09-1.09h-1v3.85h1c.65,0,1.09-.24,1.09-1.09Z"/><path class="cls-1" d="M169.62,159.21h-3.93a.61.61,0,0,1-.68-.68v-10.6a.61.61,0,0,1,.68-.68h3.88a.61.61,0,0,1,.68.68v.38a.61.61,0,0,1-.68.68H167v3.28H169a.61.61,0,0,1,.68.68v.38a.61.61,0,0,1-.68.68H167v3.45h2.63a.61.61,0,0,1,.68.68v.38A.61.61,0,0,1,169.62,159.21Z"/><path class="cls-1" d="M172.7,159.21h-.44a.61.61,0,0,1-.68-.68v-10.6a.61.61,0,0,1,.68-.68H173a.74.74,0,0,1,.77.56l2.32,6.84v-6.72a.61.61,0,0,1,.68-.68h.44a.61.61,0,0,1,.68.68v10.6a.61.61,0,0,1-.68.68h-.62a.74.74,0,0,1-.77-.56l-2.43-7.21v7.09A.61.61,0,0,1,172.7,159.21Z"/><path class="cls-1" d="M184.81,147.93v.38a.61.61,0,0,1-.68.68h-1.32v9.54a.61.61,0,0,1-.68.68h-.62a.61.61,0,0,1-.68-.68V149h-1.32a.61.61,0,0,1-.68-.68v-.38a.61.61,0,0,1,.68-.68h4.61A.61.61,0,0,1,184.81,147.93Z"/><path class="cls-1" d="M188.71,147.11h.14c1.81,0,3,.72,3,2.53v7.18c0,1.81-1.2,2.53-3,2.53h-.14c-1.81,0-3-.72-3-2.53v-7.18C185.7,147.81,186.9,147.11,188.71,147.11Zm.07,10.49c.65,0,1.09-.24,1.09-1.09V150c0-.85-.44-1.09-1.09-1.09s-1.09.24-1.09,1.09v6.56C187.68,157.37,188.13,157.61,188.78,157.61Z"/><path class="cls-1" d="M203.32,148l-1.66,10.6a.68.68,0,0,1-.74.63h-.6a.69.69,0,0,1-.75-.62L198.16,151l-1.42,7.59a.69.69,0,0,1-.75.62h-.67a.67.67,0,0,1-.73-.63L192.93,148c-.07-.48.15-.73.62-.73h.56a.67.67,0,0,1,.72.65l.92,7.9,1.42-7.93a.69.69,0,0,1,.75-.62h.51a.69.69,0,0,1,.75.62l1.42,7.93.92-7.9a.67.67,0,0,1,.72-.65h.46C203.17,147.25,203.39,147.51,203.32,148Z"/><path class="cls-1" d="M205.59,159.21h-.44a.61.61,0,0,1-.68-.68v-10.6a.61.61,0,0,1,.68-.68h.72a.74.74,0,0,1,.77.56l2.32,6.84v-6.72a.61.61,0,0,1,.68-.68h.44a.61.61,0,0,1,.68.68v10.6a.61.61,0,0,1-.68.68h-.62a.74.74,0,0,1-.77-.56l-2.43-7.21v7.09A.61.61,0,0,1,205.59,159.21Z"/><path class="cls-1" d="M214.26,157.68v.85a.61.61,0,0,1-.68.68H213a.61.61,0,0,1-.68-.68v-.85A.61.61,0,0,1,213,157h.58A.61.61,0,0,1,214.26,157.68Z"/><path class="cls-1" d="M217,156.34v-8.41a.61.61,0,0,1,.68-.68h.62a.61.61,0,0,1,.68.68v8.75c0,1.85-1.23,2.53-3,2.53h-.07a.61.61,0,0,1-.68-.68v-.41a.61.61,0,0,1,.68-.68h0C216.51,157.44,217,157.2,217,156.34Z"/><path class="cls-1" d="M226.71,149.78v2.27c0,1.81-1.2,2.53-3,2.53H222.6v3.95a.61.61,0,0,1-.68.68h-.62a.61.61,0,0,1-.68-.68v-10.6a.61.61,0,0,1,.68-.68h2.41C225.52,147.25,226.71,148,226.71,149.78Zm-2,.31c0-.85-.44-1.09-1.09-1.09h-1v3.85h1c.65,0,1.09-.24,1.09-1.09Z"/></g></g></svg>