<svg xmlns="http://www.w3.org/2000/svg" viewBox="0 0 224.75 40.17"><title>サービス</title><g id="レイヤー_2" data-name="レイヤー 2"><g id="レイヤー_1-2" data-name="レイヤー 1"><path d="M8.7,38.9a6.78,6.78,0,0,1-1.32-.13c-.43-.09-.86-.18-1.32-.3A7.72,7.72,0,0,1,2.4,35.84,15.41,15.41,0,0,1,0,30.91,1.24,1.24,0,0,1,1,29.37a1.08,1.08,0,0,1,.94.08,1.35,1.35,0,0,1,.6.76,15.86,15.86,0,0,0,1.79,3.61Q5.21,35.16,6,35a3.44,3.44,0,0,0,2.38-1.45,23,23,0,0,0,2.59-3.74,49.38,49.38,0,0,0,2.55-5.19q1.23-2.89,2.25-5.78-1.28,1-3.15,2.46t-3.91,3a.85.85,0,0,1-.85.34A1.51,1.51,0,0,1,7,24.19a1.22,1.22,0,0,1,.26-1.87l4.17-3.23q1.87-1.44,3.23-2.46,1.53-1.19,2.89-2.21a1.45,1.45,0,0,1,1.36,0,1.36,1.36,0,0,1,.51,1.45q-.34,1.11-1.28,3.87t-2.34,6a55.07,55.07,0,0,1-3.19,6.17A17.22,17.22,0,0,1,9,36.35a12,12,0,0,0,5-1.23,38.6,38.6,0,0,0,5.4-3.06q2.72-1.83,5.36-3.91t4.68-3.87q.77-.59,1.45-1.19t1.28-1a1.07,1.07,0,0,1,1.7.17,1.29,1.29,0,0,1,.3.94,1.18,1.18,0,0,1-.47.85l-2.72,2.21q-2.3,2-5.1,4.17A70.25,70.25,0,0,1,20,34.48a43.52,43.52,0,0,1-5.82,3.15A13.7,13.7,0,0,1,8.7,38.9Z"/><path d="M32.16,40.17a6.34,6.34,0,0,1-4.68-1.62,5.07,5.07,0,0,1-1.7-4.08,13.58,13.58,0,0,1,1.87-6.29,29.75,29.75,0,0,1,4.76-6.5,28.83,28.83,0,0,1,6.42-5.06,13.78,13.78,0,0,1,6.93-2,12.49,12.49,0,0,1,2.42.21,3.6,3.6,0,0,1,1.66.72,3.65,3.65,0,0,1,1.62,3.06,7.54,7.54,0,0,1-1.4,4,19.32,19.32,0,0,1-3.61,4.08,21.66,21.66,0,0,1-4.89,3.19,12.28,12.28,0,0,1-5.31,1.28,6.77,6.77,0,0,1-4-.94,5.19,5.19,0,0,1-1.66-1.87.25.25,0,0,0-.08-.17,27.46,27.46,0,0,0-1.57,3.36,8.32,8.32,0,0,0-.64,2.93,3.57,3.57,0,0,0,.68,2.3,5.42,5.42,0,0,0,3.23.76,23.55,23.55,0,0,0,7.06-1.15,52.9,52.9,0,0,0,7.1-2.81,61,61,0,0,0,6.55-3.66q3.1-2,5.44-3.7T62,23.38a12.5,12.5,0,0,1,1.45-1.15.76.76,0,0,1,.77-.38,1.5,1.5,0,0,1,.94.47,1,1,0,0,1,.25.77,1.47,1.47,0,0,1-.34.93q-.25.17-1.74,1.4t-3.91,3Q57,30.23,53.8,32.31A60.12,60.12,0,0,1,47,36.13,51.27,51.27,0,0,1,39.6,39,25.54,25.54,0,0,1,32.16,40.17ZM34.46,23c0,.06-.06.14-.17.25A7.21,7.21,0,0,0,33,25.34a3,3,0,0,0-.17,2.17,1.75,1.75,0,0,0,1.49.94,13.35,13.35,0,0,0,1.91.17,10.32,10.32,0,0,0,4.51-1.11,19.72,19.72,0,0,0,4.12-2.63,16.27,16.27,0,0,0,3-3.27,5.64,5.64,0,0,0,1.19-3,1.24,1.24,0,0,0-.6-1,3.31,3.31,0,0,0-.89-.34A7.57,7.57,0,0,0,45.77,17a11.69,11.69,0,0,0-5.91,1.7A24.79,24.79,0,0,0,34.46,23Z"/><path d="M64.9,38.9a.57.57,0,0,1-.34-.13,2.21,2.21,0,0,0-.34-.21.79.79,0,0,1-.51-.64,1.25,1.25,0,0,1,.17-.89q3-5.1,4.38-8.12a28.73,28.73,0,0,0,1.83-4.72,3.78,3.78,0,0,0,.08-2.63q-.51-.42-2.13.38a10.7,10.7,0,0,0-2.81,2,1.41,1.41,0,0,1-1.79.08,1.3,1.3,0,0,1-.43-.93,1,1,0,0,1,.43-.85,9.82,9.82,0,0,1,1.66-1.45,10.66,10.66,0,0,1,2.21-1.23A7.49,7.49,0,0,1,69.57,19a2.69,2.69,0,0,1,2,.59,2.88,2.88,0,0,1,1.11,1.66A7.6,7.6,0,0,1,72.3,25q2.38-3.14,4.29-5.53t3.36-4.08q1.61-2,2.89-3.32a1.09,1.09,0,0,1,.68-.42,1.16,1.16,0,0,1,.77.08q1,.77.6,1.62a25,25,0,0,0-2.25,7.61,10.13,10.13,0,0,0,.08,3.23,4.14,4.14,0,0,0,1.23,2.34A5.76,5.76,0,0,0,87.18,28a13.49,13.49,0,0,0,4.72-.17,25.19,25.19,0,0,0,5.74-1.91,33.44,33.44,0,0,0,6.29-3.87,1.15,1.15,0,0,1,.94-.26,1.73,1.73,0,0,1,.94.51,1.45,1.45,0,0,1,.21.89,1.15,1.15,0,0,1-.47.81,35.36,35.36,0,0,1-7,4.34,26.15,26.15,0,0,1-6.72,2.13A14.55,14.55,0,0,1,86,30.35a7.45,7.45,0,0,1-4.12-2.51,8.82,8.82,0,0,1-1.74-4.34A10.43,10.43,0,0,1,81,18q-2.55,3-6.38,8.12T65.92,38.3Q65.75,38.9,64.9,38.9Z"/><path d="M107.84,38.9a3.91,3.91,0,0,1-2.3-.55,2.9,2.9,0,0,1-1-1.15q-1.11-2,.68-5.57A79.86,79.86,0,0,1,110.47,23q.93-1.36,1.91-3t1.49-2.59q-1.11.68-2.89,2T107.92,22l-2.47,2a1,1,0,0,1-.94.34,2,2,0,0,1-.94-.42,1.22,1.22,0,0,1,.25-1.87q.59-.42,1.28-1T106.48,20q2.81-2.46,4.89-4a6.52,6.52,0,0,1,3.53-1.49,1.83,1.83,0,0,1,1.62.94q.68,1.1-.34,3t-3.66,5.87q-.94,1.36-2,3.1t-2.08,3.49a23,23,0,0,0-1.49,3.1,2.46,2.46,0,0,0-.17,2c.06.17.23.27.51.3l.6,0q1.1,0,3.32-1.66a48.59,48.59,0,0,0,4.8-4.21q2.59-2.55,5.27-5.57t4.8-5.66a1.33,1.33,0,0,1,2.13.51.77.77,0,0,1-.17.85,9.39,9.39,0,0,0-1.23,3.49,2.8,2.8,0,0,0,.3,2,1.53,1.53,0,0,0,1,.3,5.51,5.51,0,0,0,1.91-.34,17,17,0,0,0,2.89-1.32,31.49,31.49,0,0,0,3.91-2.64,1.2,1.2,0,0,1,1.79.25,1.09,1.09,0,0,1,.26.89,1.5,1.5,0,0,1-.43.81,32.67,32.67,0,0,1-5,3.27,16.41,16.41,0,0,1-3.66,1.4,5.65,5.65,0,0,1-2.55.08,3.9,3.9,0,0,1-1.62-.76,4.15,4.15,0,0,1-.89-1.28,7.68,7.68,0,0,1-.47-1.45q-1.7,2-3.91,4.42t-4.46,4.42a35.16,35.16,0,0,1-4.34,3.4A6.93,6.93,0,0,1,107.84,38.9Z"/><path d="M134.71,39a5.78,5.78,0,0,1-1.74-.25,5,5,0,0,1-1.4-.68,3.84,3.84,0,0,1-1.87-3.15q-.51-5.61,12.33-18.54a1.36,1.36,0,0,1,1.7,0,1.33,1.33,0,0,1,0,1.87,84.4,84.4,0,0,0-6.21,6.63A44.21,44.21,0,0,0,134,29.63a13.58,13.58,0,0,0-1.53,3.19,7.72,7.72,0,0,0-.34,1.83,2.13,2.13,0,0,0,.85,1.53q.85.68,3.19.3a24.67,24.67,0,0,0,6-2,70.14,70.14,0,0,0,8.33-4.68,119,119,0,0,0,10.5-7.7,1.08,1.08,0,0,1,.89-.26,1,1,0,0,1,.72.51,1.11,1.11,0,0,1,.38.89,1.15,1.15,0,0,1-.47.81q-4.34,3.57-8.38,6.34A83.1,83.1,0,0,1,146.52,35,43.93,43.93,0,0,1,139.93,38,16.74,16.74,0,0,1,134.71,39Zm12.5-34.44Q146,4.55,146,3.27a1.05,1.05,0,0,1,1.19-1.19,6.78,6.78,0,0,0,3.49-.6c.57-.4.85-.65.85-.77q.34-1,1.53-.6a1.18,1.18,0,0,1,.64.64.91.91,0,0,1,0,.89,1.54,1.54,0,0,1-.3.72,3.46,3.46,0,0,1-1,.94,7.2,7.2,0,0,1-1.91.85A11.36,11.36,0,0,1,147.21,4.55Z"/><path d="M160,40.17a6.49,6.49,0,0,1-4.51-1.53A3.58,3.58,0,0,1,154.39,37,6,6,0,0,1,154,34.9a13.16,13.16,0,0,1,2-6.33,31,31,0,0,1,5.1-6.63,32.47,32.47,0,0,1,6.8-5.23,14.28,14.28,0,0,1,7.1-2.12,5.36,5.36,0,0,1,3,.64,2.91,2.91,0,0,1,1.15,1.4q.68,1.78-1.23,4.55a46.51,46.51,0,0,1-6.68,7.1,1.38,1.38,0,0,1-.85.26,1.15,1.15,0,0,1-.85-.34,1.54,1.54,0,0,1,.08-1.87A55.39,55.39,0,0,0,174,22.11a21.16,21.16,0,0,0,2.13-2.68,4.14,4.14,0,0,0,.68-1.49c0-.31,0-.5,0-.55a4.88,4.88,0,0,0-.55-.21A4.66,4.66,0,0,0,175,17a12.35,12.35,0,0,0-6.33,2,30.14,30.14,0,0,0-6,4.76,28.52,28.52,0,0,0-4.51,5.87,11.13,11.13,0,0,0-1.74,5.27,2.12,2.12,0,0,0,.85,1.87q.6.77,2.81.76a23.54,23.54,0,0,0,7.06-1.15,52.79,52.79,0,0,0,7.1-2.81,60.77,60.77,0,0,0,6.55-3.66q3.1-2,5.44-3.7t5.06-4q.85-.85,1.87.08a1,1,0,0,1,.25.77A1.3,1.3,0,0,1,193,24q-.17.17-1.66,1.4t-3.91,3q-2.42,1.79-5.61,3.87a60.21,60.21,0,0,1-6.8,3.83A50.47,50.47,0,0,1,167.53,39,26,26,0,0,1,160,40.17Z"/><path d="M191.5,40.17a6.33,6.33,0,0,1-4.68-1.62,5.06,5.06,0,0,1-1.7-4.08A13.58,13.58,0,0,1,187,28.18a29.7,29.7,0,0,1,4.76-6.5,28.82,28.82,0,0,1,6.42-5.06,13.78,13.78,0,0,1,6.93-2,12.49,12.49,0,0,1,2.42.21,3.6,3.6,0,0,1,1.66.72,3.65,3.65,0,0,1,1.62,3.06,7.54,7.54,0,0,1-1.4,4,19.32,19.32,0,0,1-3.61,4.08,21.67,21.67,0,0,1-4.89,3.19,12.28,12.28,0,0,1-5.31,1.28,6.77,6.77,0,0,1-4-.94,5.19,5.19,0,0,1-1.66-1.87.24.24,0,0,0-.08-.17,27.46,27.46,0,0,0-1.57,3.36,8.31,8.31,0,0,0-.64,2.93,3.57,3.57,0,0,0,.68,2.3,5.42,5.42,0,0,0,3.23.76,23.55,23.55,0,0,0,7.06-1.15,53,53,0,0,0,7.1-2.81,61,61,0,0,0,6.55-3.66q3.1-2,5.44-3.7t3.7-2.85a12.6,12.6,0,0,1,1.45-1.15.76.76,0,0,1,.77-.38,1.5,1.5,0,0,1,.94.47,1,1,0,0,1,.25.77,1.46,1.46,0,0,1-.34.93q-.25.17-1.74,1.4t-3.91,3q-2.42,1.79-5.61,3.87a60.21,60.21,0,0,1-6.8,3.83,51.27,51.27,0,0,1-7.4,2.89A25.53,25.53,0,0,1,191.5,40.17ZM193.8,23c0,.06-.06.14-.17.25a7.2,7.2,0,0,0-1.28,2.08,3,3,0,0,0-.17,2.17,1.75,1.75,0,0,0,1.49.94,13.36,13.36,0,0,0,1.91.17,10.32,10.32,0,0,0,4.51-1.11,19.72,19.72,0,0,0,4.12-2.63,16.28,16.28,0,0,0,3-3.27,5.65,5.65,0,0,0,1.19-3,1.24,1.24,0,0,0-.59-1,3.32,3.32,0,0,0-.89-.34,7.57,7.57,0,0,0-1.83-.17,11.68,11.68,0,0,0-5.91,1.7A24.8,24.8,0,0,0,193.8,23Z"/></g></g></svg>