<svg xmlns="http://www.w3.org/2000/svg" viewBox="0 0 368.6 60.54"><defs><style>.cls-1{fill:#231815;}</style></defs><title>used</title><g id="レイヤー_2" data-name="レイヤー 2"><g id="レイヤー_1-2" data-name="レイヤー 1"><path class="cls-1" d="M33.23,5.72,29.37,28.41c-1.09,6.43-3.73,10.8-6.3,13.3a15.94,15.94,0,0,1-10.8,3.92c-4,0-7.39-1.22-9.45-3.66C-.32,38.37-.26,34,.71,28L4.43,5.72,0,5.53C.19,4.76.32,4,.45,3.21H14.14c-.13.71-.26,1.54-.45,2.31L8,5.72c-.19,0-.26.19-.32.32L4,27.57c-1.16,6.68-.58,9.51.84,11.76,1,1.61,3.21,3.79,7.78,3.79s6.88-1.61,8.55-3.15c1.86-1.61,4.31-5.66,5.27-11.57C27.51,21.92,29,12.92,30.08,6c0-.13-.06-.26-.19-.26l-5.66-.19c.19-.77.32-1.54.45-2.31h7.13c2.19,0,4.37-.06,6.17-.06-.06.77-.19,1.54-.32,2.31Z"/><path class="cls-1" d="M52.9,21.59a.74.74,0,0,0-.39-.71A6,6,0,0,0,49,20a9.11,9.11,0,0,0-3.86.83,5,5,0,0,0-2.7,4.37c0,2.7,1.41,3.47,4.37,4.82,4.24,1.93,6.68,3.73,6.68,7.33a7.75,7.75,0,0,1-4.24,6.88c-1.86,1.09-4,1.41-7.46,1.41a13.8,13.8,0,0,1-5.66-1.09c.13-2.44.26-4.95.39-7.46A13.55,13.55,0,0,1,38.76,37l.39,4.88a.79.79,0,0,0,.45.71,7.82,7.82,0,0,0,4,.84,9.55,9.55,0,0,0,4.56-1,4.88,4.88,0,0,0,2.25-4.43c0-3-2-4-4.82-5.33-3.6-1.61-6.17-3-6.17-6.94,0-3,2.31-5.53,4.5-6.62a13.82,13.82,0,0,1,6.49-1.29A11.92,11.92,0,0,1,56,19.09c-.19,2.31-.45,4.69-.71,6.88-.64.06-1.48.06-2.19.06Z"/><path class="cls-1" d="M65.17,22.82c3-3.54,5.72-5.08,9-5.08a6.39,6.39,0,0,1,6.36,6.49c-.32,1.86-1.54,4.5-3.41,5.53-3.66,1.86-8.1,2.38-13.5,2.38a22.91,22.91,0,0,0-1,5.78c0,3.28,1.61,5.08,4.56,5.08,2.64,0,6.68-1.74,10.09-3.73a16.6,16.6,0,0,1,.9,1.86c-3.41,2.25-8,4.5-11.89,4.5a6.86,6.86,0,0,1-6.94-7A27.72,27.72,0,0,1,65.17,22.82Zm2.51.64A21.19,21.19,0,0,0,64.27,30c3.79.06,7.58-.51,10-1.74,1.61-.77,2.89-1.86,2.89-3.73,0-2.19-1.16-4.18-3.86-4.18A7.23,7.23,0,0,0,67.68,23.46Z"/><path class="cls-1" d="M101.55,36.63c-4.82,5.91-10,9.06-12.79,9.13a6.49,6.49,0,0,1-4.5-3.08,5.62,5.62,0,0,1-.51-2.38,30.83,30.83,0,0,1,2.12-10C88,24.74,92.36,17.74,98.66,17.74a10.7,10.7,0,0,1,6.56,2.44h.32c1.22-5,2.7-11.38,3.92-16.77l-5.79.32a11,11,0,0,1-.19-2c4.43-.64,8-1.74,8.36-1.74s.9.51,1.29,1c-1.22,5.14-8.93,37.15-10,41.78a.29.29,0,0,0,.26.32A15.7,15.7,0,0,0,107.66,42a10.51,10.51,0,0,1,.45,1.93,18.35,18.35,0,0,1-6.56,1.54,3.12,3.12,0,0,1-1.61-1.41c.26-1.09,1-3.66,2-7.26Zm1.35-5.53c.39-1.67,1.41-6,1.8-7.84a8.4,8.4,0,0,0-6.43-2.83c-4.11,0-7.33,4.43-9.06,8.93A33.1,33.1,0,0,0,87,39.66c0,2.57,1.41,3.28,2.7,3.28C93.65,42.93,101.94,34.58,102.9,31.11Z"/><path class="cls-1" d="M151.42,42.87A12.24,12.24,0,0,1,151,45c-2.44.13-5.21.19-7.13.26-.83-1.29-2.31-3.92-3.66-5.85-3.47,2.89-7.2,6.23-14.91,6.23-3.92,0-6.68-1.16-8.42-2.63a10,10,0,0,1-3.34-7.78c0-5.33,4.11-10.8,11.31-13.5l.06-.26c-3-2.31-4.88-4.82-4.88-8.48a10,10,0,0,1,3.73-7.52,11,11,0,0,1,7.71-2.57,8.65,8.65,0,0,1,6.3,2.31,7.94,7.94,0,0,1,2.31,5.85c0,4.69-3.53,8.68-9.77,11.31v.26a65.9,65.9,0,0,1,10.73,12.6,23.4,23.4,0,0,0,4.37-10.35c.06-.45-.06-.71-.45-.71L141.14,24c.06-.71.26-1.54.39-2.18h11.31c-.13.64-.26,1.41-.39,2.18l-3.73.13a27.33,27.33,0,0,1-6.43,13c1,1.48,2.12,3.41,2.76,4.37a1.94,1.94,0,0,0,1.74,1.16Zm-31.94-1.74a9.49,9.49,0,0,0,6.43,2.19c4.95,0,9.51-2.38,13.11-6-3.6-5.4-7.9-10.86-12.28-14C121.86,25.26,117,28.73,117,35A7.54,7.54,0,0,0,119.48,41.13ZM128.22,21c4.63-1.74,8.68-4.69,8.68-9.7a6,6,0,0,0-1.61-4.43,5.66,5.66,0,0,0-4.24-1.67A7.24,7.24,0,0,0,125.65,7a7.79,7.79,0,0,0-2.38,5.72C123.27,16.58,125.2,18.38,128.22,21Z"/><path class="cls-1" d="M173.21,36.63c-4.82,5.91-10,9.06-12.79,9.13a6.49,6.49,0,0,1-4.5-3.08,5.61,5.61,0,0,1-.51-2.38,30.82,30.82,0,0,1,2.12-10c2.12-5.53,6.49-12.53,12.79-12.53a10.7,10.7,0,0,1,6.55,2.44h.32c1.22-5,2.7-11.38,3.92-16.77l-5.78.32a11,11,0,0,1-.19-2c4.43-.64,8-1.74,8.35-1.74s.9.51,1.29,1c-1.22,5.14-8.93,37.15-10,41.78a.29.29,0,0,0,.26.32A15.7,15.7,0,0,0,179.32,42a10.43,10.43,0,0,1,.45,1.93,18.34,18.34,0,0,1-6.56,1.54,3.12,3.12,0,0,1-1.61-1.41c.26-1.09,1-3.66,2-7.26Zm1.35-5.53c.39-1.67,1.41-6,1.8-7.84a8.4,8.4,0,0,0-6.43-2.83c-4.11,0-7.33,4.43-9.06,8.93a33.1,33.1,0,0,0-2.25,10.28c0,2.57,1.41,3.28,2.7,3.28C165.31,42.93,173.6,34.58,174.56,31.11Z"/><path class="cls-1" d="M191.15,22.82c3-3.54,5.72-5.08,9-5.08a6.39,6.39,0,0,1,6.36,6.49c-.32,1.86-1.54,4.5-3.41,5.53-3.66,1.86-8.1,2.38-13.5,2.38a22.93,22.93,0,0,0-1,5.78c0,3.28,1.61,5.08,4.56,5.08,2.63,0,6.68-1.74,10.09-3.73a16.77,16.77,0,0,1,.9,1.86c-3.41,2.25-8,4.5-11.89,4.5a6.86,6.86,0,0,1-6.94-7A27.73,27.73,0,0,1,191.15,22.82Zm2.51.64A21.18,21.18,0,0,0,190.25,30c3.79.06,7.58-.51,10-1.74,1.61-.77,2.89-1.86,2.89-3.73,0-2.19-1.16-4.18-3.86-4.18A7.23,7.23,0,0,0,193.65,23.46Z"/><path class="cls-1" d="M225.85,21.59a.74.74,0,0,0-.39-.71,6,6,0,0,0-3.54-.9,9.1,9.1,0,0,0-3.86.83,5,5,0,0,0-2.7,4.37c0,2.7,1.41,3.47,4.37,4.82,4.24,1.93,6.68,3.73,6.68,7.33a7.75,7.75,0,0,1-4.24,6.88c-1.86,1.09-4,1.41-7.46,1.41a13.8,13.8,0,0,1-5.66-1.09c.13-2.44.26-4.95.39-7.46a13.55,13.55,0,0,1,2.25-.13l.39,4.88a.79.79,0,0,0,.45.71,7.82,7.82,0,0,0,4,.84,9.55,9.55,0,0,0,4.56-1,4.88,4.88,0,0,0,2.25-4.43c0-3-2-4-4.82-5.33-3.6-1.61-6.17-3-6.17-6.94,0-3,2.31-5.53,4.5-6.62a13.83,13.83,0,0,1,6.49-1.29,11.92,11.92,0,0,1,5.59,1.35c-.19,2.31-.45,4.69-.71,6.88-.64.06-1.48.06-2.19.06Z"/><path class="cls-1" d="M233.25,21.34c-.06-.71-.13-1.35-.13-2,5-.77,7.52-1.61,7.91-1.61s1.09.9,1.35,1.35c-1.61,6.49-4.95,20.31-5.78,23.71-.06.19,0,.39.19.39a24.13,24.13,0,0,0,5.08-1.09,7,7,0,0,1,.51,2,24.94,24.94,0,0,1-6.94,1.48,4.17,4.17,0,0,1-2.06-1.8c1.54-6.36,3.66-15,5.46-22.88ZM244.49,8.55a3.07,3.07,0,0,1-2.7,2.7A2.81,2.81,0,0,1,239,8.61a3,3,0,0,1,3-2.76A2.65,2.65,0,0,1,244.49,8.55Z"/><path class="cls-1" d="M260.37,17.74a10.24,10.24,0,0,1,3.66.51,1.61,1.61,0,0,0,.84.19c1.16,0,7-.06,8.61-.13a13.41,13.41,0,0,1-.06,2.25l-6.62.19-.06.26a8.36,8.36,0,0,1,1.48,5.08,15.75,15.75,0,0,1-2.25,8,10.92,10.92,0,0,1-10.6,5.27c-2.44,1.54-4.11,2.51-4.11,3.6,0,1.41,3.21,1.67,7.52,2.06,3.47.32,5.85.71,7.33,1.61a5.5,5.5,0,0,1,2.57,4.24c0,4.63-4.5,9.64-15.49,9.64-6.17,0-10.93-2.44-10.93-6.3a4.2,4.2,0,0,1,1.54-3.47c2.06-1.41,3.28-2.18,7.07-4.37v-.32c-1.86-.51-3-1.54-3-3.54,0-.51.13-1,4.82-3.79v-.32c-2.44-1.22-4-3.79-4-7.58C248.73,24.68,253.49,17.74,260.37,17.74ZM259,47.69c-2.19-.26-3.6-.51-5.14-.71-5.4,3.28-8.42,4.56-8.42,7.2,0,3.08,4.69,4.24,8.36,4.24,6.62,0,11.7-2.38,11.7-6.88C265.44,48.78,264,48.33,259,47.69Zm-1.8-10.35c4.11,0,7.78-4,7.78-10.48a9.15,9.15,0,0,0-1-4.95,4.37,4.37,0,0,0-3.92-2c-4.82,0-8,5-8,10.8C252,35.22,254,37.34,257.15,37.34Z"/><path class="cls-1" d="M274.57,21.47c-.06-.71-.13-1.35-.13-2,4-.77,7-1.73,7.39-1.73a2.5,2.5,0,0,1,1.29,1c-.51,1.86-1.22,4.63-2,7.46l.39.13c5.27-6,10.6-8.55,13.56-8.61A5.77,5.77,0,0,1,299,20.89a5,5,0,0,1,.32,1.86c0,3-2.38,11.57-5.46,19.92-.06.26,0,.45.26.45A21.25,21.25,0,0,0,299,42c.19.71.32,1.41.45,2.12a26.84,26.84,0,0,1-7.39,1.48,2.53,2.53,0,0,1-1.41-1.8c1.09-3.15,3.28-10.22,4.24-13.82A30.56,30.56,0,0,0,296,23.39c0-1.41-.58-2.63-2.19-2.63-4.31,0-12.47,7.13-13.43,10.8-.64,2.25-2.7,10.86-3.41,13.43h-3c1.41-5.85,4-16.26,5.78-24Z"/><path class="cls-1" d="M322.2,3.92c-.06-.64-.13-1.29-.19-1.86,4.24-.9,8-2.06,8.48-2.06a2.6,2.6,0,0,1,1.35,1c-1.09,4.24-4.82,18.7-6.43,25l.32.13c6-6.81,10.86-8.36,13-8.42A5.42,5.42,0,0,1,342.89,21a4.27,4.27,0,0,1,.32,1.8c0,3.08-2.38,11.5-5.4,19.92-.19.26,0,.45.26.45a27.39,27.39,0,0,0,4.82-1,11.63,11.63,0,0,1,.39,2.06,28.24,28.24,0,0,1-7.46,1.35,2.46,2.46,0,0,1-1.35-1.74c1.16-3.28,3.34-10.15,4.37-14.08A29.33,29.33,0,0,0,340,23.39c0-1.35-.64-2.63-2.25-2.63-4.18,0-12.21,6.88-13.24,10.54C323.8,33.87,321.68,42.61,321,45h-3c1.48-5.85,8-33,10.09-41.45Z"/><path class="cls-1" d="M354.2,22.75c3-3.47,5.85-5,10.28-5a8.3,8.3,0,0,1,4.11,1.09A7.24,7.24,0,0,1,366.35,22,11.83,11.83,0,0,0,362,20.7a7.17,7.17,0,0,0-5.46,3A25,25,0,0,0,352,37.08c0,4.37,2.12,5.85,5.08,5.85,2.06,0,5.46-1.22,8-2.44a17.14,17.14,0,0,1,.71,1.93c-2.83,1.48-6.75,3.21-9.77,3.21-3.34,0-7.39-2.51-7.39-8A24.86,24.86,0,0,1,354.2,22.75Z"/></g></g></svg>