<?xml version="1.0" encoding="utf-8"?>
<!-- Generator: Adobe Illustrator 22.0.1, SVG Export Plug-In . SVG Version: 6.00 Build 0)  -->
<svg version="1.1" id="レイヤー_1" xmlns="http://www.w3.org/2000/svg" xmlns:xlink="http://www.w3.org/1999/xlink" x="0px"
	 y="0px" viewBox="0 0 155.6 50.9" style="enable-background:new 0 0 155.6 50.9;" xml:space="preserve">
<style type="text/css">
	.st0{fill:#FFFFFF;}
</style>
<title>work</title>
<g id="レイヤー_2_1_">
	<g id="レイヤー_1-2">
		<path class="st0" d="M4,50.9c-0.2,0-0.3,0-0.5,0c-0.2,0-0.3,0-0.5,0c-0.8-0.1-1.5-0.5-2.1-1.1c-0.4-0.4-0.7-0.9-0.8-1.4
			c-0.3-1.1-0.2-2.2,0.2-3.2c0.5-1.4,1.1-2.7,1.8-4C3,39.8,3.9,38.4,4.9,37c1-1.4,2.1-2.8,3.1-4s2-2.3,2.8-3.3c0.9-1,1.5-1.6,1.9-2
			c0.3-0.2,0.6-0.4,0.9-0.4c0.3-0.1,0.7,0.1,0.9,0.3c0.7,0.7,0.7,1.3,0,1.8c-1.3,1.5-2.8,3.1-4.3,5S7.3,38,6.1,39.8
			C5,41.3,4,42.9,3.2,44.5c-0.6,1-0.9,2.2-0.7,3.3c0,0.1,0.1,0.1,0.2,0.2c0.3,0.1,0.6,0.2,0.8,0.3c1.5,0.1,3-0.4,4.2-1.3
			c1.8-1.3,3.5-2.7,5.1-4.3c1.8-1.9,3.6-3.9,5.2-6c1.7-2.2,3.3-4.4,4.7-6.5l1.1-1.6c0.3-0.4,0.6-0.8,0.7-1.1
			c0.3-0.5,0.9-0.8,1.5-0.5c0.1,0,0.2,0.1,0.2,0.1c0.2,0.2,0.4,0.5,0.5,0.8c0.1,0.3,0,0.7-0.2,0.9c-0.1,0.2-0.3,0.5-0.5,0.9
			c-0.3,0.5-0.7,1-1.1,1.4c-0.9,1.5-1.8,3-2.7,4.6c-0.8,1.5-1.6,3-2.2,4.5c-0.5,1.2-1,2.5-1.3,3.9C18.6,45,18.6,46,19,46.8
			c0,0.1,0.1,0.1,0.2,0.3c0.3,0.2,0.7,0.2,1,0.2c1.8-0.1,3.5-0.9,4.8-2.1c1.8-1.5,3.4-3.2,4.9-5.1c1.6-2,3-4.1,4.3-6.2
			c1.3-2.2,2.4-4,3.1-5.5l0.2-0.3c0.1-0.1,0.1-0.3,0.2-0.4c0.2-0.3,0.4-0.5,0.7-0.5c0.3-0.1,0.6,0,0.9,0.2c0.3,0.1,0.5,0.3,0.6,0.6
			c0.1,0.3,0.1,0.6,0,0.9l-0.4,0.6c-0.5,1.2-0.7,2.4-0.5,3.7c0.1,1,0.6,2,1.5,2.6c1.1,0.8,2.5,1,3.7,0.5c1.9-0.7,3.6-1.7,5-3
			c0.2-0.3,0.6-0.4,0.9-0.4c0.3,0,0.6,0.2,0.8,0.4c0.3,0.2,0.4,0.5,0.3,0.8c-0.1,0.4-0.2,0.7-0.5,0.9c-1.3,1.2-2.7,2.3-4.3,3
			c-1.1,0.5-2.3,0.8-3.4,0.8c-0.9,0.1-1.7-0.1-2.5-0.4c-0.6-0.2-1.1-0.5-1.6-0.8c-0.5-0.4-0.9-0.9-1.2-1.5c-0.3-0.5-0.6-1.1-0.8-1.7
			c-0.9,1.5-2,3.2-3.2,5c-1.2,1.8-2.6,3.4-4,5c-1.3,1.5-2.9,2.8-4.5,3.9c-1.4,1-3,1.5-4.7,1.5c-0.8,0.1-1.7-0.2-2.3-0.6
			c-0.5-0.3-0.9-0.8-1.1-1.3c-0.7-1.4-0.6-3.4,0.3-6c-1.1,1.2-2.2,2.3-3.3,3.4c-1.1,1-2.2,2-3.4,2.8c-1,0.8-2.1,1.5-3.3,2.1
			C6.1,50.6,5,50.8,4,50.9z"/>
		<path class="st0" d="M64.5,40.7c-0.4,0-0.8,0-1.2-0.1L62,40.4c-0.2-0.1-0.3-0.1-0.5-0.1c-1.1,1.3-2.3,2.6-3.5,3.8
			c-1.2,1.2-2.6,2.3-4,3.2c-1.3,0.9-2.8,1.6-4.2,2.2c-1.3,0.5-2.7,0.8-4.1,0.8c-1.2,0.1-2.4-0.3-3.3-1c-0.3-0.3-0.6-0.7-0.8-1.2
			c-0.3-0.6-0.4-1.3-0.4-1.9c0.1-2.1,0.7-4.1,1.8-5.8c1.4-2.3,3-4.4,4.9-6.3c2-2,4.3-3.7,6.7-5.1c2.2-1.3,4.8-2.1,7.3-2.1
			c1.1-0.1,2.2,0.3,3.2,0.9l0.6,1.1c0.3,0.6,0.4,1.2,0.4,1.8c0,1.1-0.3,2.3-0.8,3.3c-0.6,1.4-1.4,2.6-2.2,3.8
			c1.4,0.2,2.7,0.1,4.1-0.1c1.5-0.3,2.9-0.6,4.3-1.2c1.4-0.5,2.7-1.1,4-1.8c1.1-0.6,2.2-1.2,3.2-2c0.2-0.2,0.6-0.3,0.9-0.3
			c0.3,0,0.6,0.2,0.7,0.5c0.3,0.2,0.4,0.6,0.4,0.9c0,0.3-0.2,0.6-0.5,0.8c-0.9,0.7-1.9,1.4-3,2c-1.3,0.7-2.6,1.3-4,1.9
			c-1.4,0.6-2.9,1-4.4,1.4C67.4,40.5,65.9,40.7,64.5,40.7z M43.5,46.4c0,0.5,0.1,0.9,0.5,1.3c0.2,0.2,0.4,0.4,0.7,0.4
			c0.3,0,0.6,0,0.9,0c1.1,0,2.3-0.3,3.3-0.8c1.3-0.5,2.4-1.2,3.6-2c1.2-0.8,2.4-1.8,3.5-2.8c1.1-1,2.2-2.1,3.2-3.3
			c-0.7-0.5-1.2-1.1-1.5-1.9c-0.5-1.3-0.5-2.7-0.1-4c0.3-1.2,0.8-2.4,1.3-3.5c-2,0.6-3.9,1.6-5.6,2.9c-1.8,1.3-3.4,2.9-4.8,4.5
			c-1.3,1.5-2.5,3.2-3.4,4.9C44.1,43.5,43.7,44.9,43.5,46.4z M63.6,30.8c0-0.2,0-0.5,0-0.7c0-0.1-0.1-0.3-0.1-0.4
			c-0.5-0.2-1-0.3-1.5-0.3c-0.3,0.5-0.6,0.9-0.8,1.4c-0.3,0.6-0.6,1.2-0.8,1.9c-0.3,0.6-0.4,1.3-0.5,2c-0.1,0.6,0,1.2,0.2,1.7
			c0,0.1,0.1,0.2,0.1,0.3c0.1,0.2,0.3,0.4,0.5,0.5c0.8-1.1,1.6-2.3,2.2-3.6C63.3,32.8,63.6,31.8,63.6,30.8z"/>
		<path class="st0" d="M79.9,49.8c-0.1,0-0.2-0.1-0.3-0.1c-0.1-0.1-0.2-0.2-0.3-0.2c-0.3-0.1-0.5-0.3-0.5-0.6
			c-0.1-0.3,0-0.6,0.2-0.9c2-3.4,3.5-6.1,4.4-8.1c0.8-1.5,1.4-3.1,1.8-4.8c0.3-0.8,0.4-1.8,0.1-2.6c-0.3-0.3-1.1-0.2-2.1,0.4
			c-1,0.5-2,1.2-2.8,2c-0.5,0.5-1.3,0.5-1.8,0.1c-0.3-0.2-0.4-0.6-0.4-0.9c0-0.3,0.2-0.7,0.4-0.8c0.5-0.5,1.1-1,1.7-1.5
			c0.7-0.5,1.4-0.9,2.2-1.2c0.7-0.3,1.5-0.5,2.2-0.5c0.7-0.1,1.4,0.1,2,0.6c0.6,0.4,0.9,1,1.1,1.7c0.2,1.2,0.1,2.5-0.3,3.7
			c1.6-2.1,3-3.9,4.3-5.5c1.3-1.6,2.4-2.9,3.3-4c1.1-1.3,2-2.4,2.9-3.3c0.2-0.2,0.4-0.4,0.7-0.4c0.3-0.1,0.5,0,0.8,0.1
			c0.7,0.5,0.9,1.1,0.6,1.6c-1.2,2.4-1.9,5-2.2,7.6c-0.2,1.1-0.1,2.2,0.1,3.2c0.1,0.9,0.6,1.7,1.2,2.3c0.9,0.8,2,1.4,3.2,1.5
			c1.6,0.2,3.2,0.2,4.7-0.2c2-0.4,3.9-1,5.7-1.9c2.2-1.1,4.4-2.4,6.3-3.9c0.3-0.2,0.6-0.3,0.9-0.3c0.4,0.1,0.7,0.2,0.9,0.5
			c0.2,0.3,0.2,0.6,0.2,0.9c0,0.3-0.2,0.6-0.5,0.8c-2.2,1.7-4.5,3.2-7,4.3c-2.1,1-4.4,1.7-6.7,2.1c-1.9,0.3-3.9,0.3-5.8-0.1
			c-1.6-0.4-3.1-1.2-4.1-2.5c-1-1.3-1.6-2.8-1.7-4.3c-0.3-1.9,0-3.8,0.7-5.5c-1.7,2-3.8,4.7-6.4,8.1s-5.4,7.5-8.6,12.2
			C80.9,49.6,80.5,49.8,79.9,49.8z"/>
		<path class="st0" d="M130.8,49.8h-0.7c-0.2,0-0.5,0-0.7-0.1c-1-0.2-1.9-0.7-2.6-1.4c-0.7-0.8-1.3-1.6-1.7-2.6
			c-0.5-1.1-0.8-2.2-1.1-3.4c-0.3-1.2-0.5-2.4-0.6-3.6c-0.1-0.4,0-0.8,0.4-1c0.2-0.2,0.4-0.3,0.6-0.3c0.2-0.1,0.4-0.1,0.6,0
			c1.9,0.9,4,1.3,6.1,1.2c1.8-0.1,3.5-0.8,4.8-2c0.7-0.8,1.3-1.7,1.6-2.7c0.3-0.9,0.4-1.8,0.1-2.8c-0.5-1.1-1.6-1.8-2.8-1.8
			c-1.5,0-3,0.2-4.4,0.8c-1.8,0.8-3.5,1.8-5,3.1c-2.3,1.9-4.4,4-6.4,6.2c-2.4,2.6-5.3,5.9-8.6,9.9c-0.1,0.3-0.4,0.4-0.7,0.4
			c-0.3,0-0.6-0.1-0.9-0.3c-0.3-0.2-0.4-0.5-0.5-0.9c0-0.3,0.1-0.7,0.3-0.9c2.5-3.1,4.8-6.3,6.9-9.6c2.4-3.8,4.9-7.6,7.2-11.5
			c2.6-4.2,5-8,7.1-11.3c1.9-2.9,3.9-5.7,6-8.4c1.4-1.9,3.1-3.6,4.9-5.1c1.1-1,2.6-1.6,4.1-1.6c0.6,0,1.2,0.3,1.7,0.6
			c0.3,0.2,0.5,0.5,0.6,0.9c0.6,1.6-0.6,4.4-3.7,8.1c-3.1,3.8-8.1,9-14.9,15.8c-1.3,1.3-2.6,2.6-3.7,3.7c-0.8,0.8-1.6,1.7-2.4,2.7
			l-1.4,1.9c2.2-2.2,4.6-4.1,7.4-5.6c2-1,4.2-1.4,6.3-1.1c2.2,0,4.1,1.4,4.9,3.4c0.4,1.4,0.4,2.8,0,4.2c-0.4,1.5-1.2,2.8-2.3,3.9
			c-0.5,0.4-1,0.8-1.5,1.2c-0.7,0.5-1.5,0.8-2.4,1.1c-1.1,0.3-2.2,0.5-3.4,0.5c-1.5,0-2.9-0.2-4.3-0.6c0.2,1.7,0.8,3.3,1.5,4.8
			c0.5,1,1.3,1.6,2.4,1.9c1.5,0.2,3,0,4.3-0.6c1.9-0.8,3.7-1.7,5.4-2.8c1.9-1.2,3.8-2.5,5.6-4c1.9-1.5,3.6-2.9,5.1-4.2l1.7-1.4
			c0.5-0.4,1-0.8,1.5-1.2c0.2-0.2,0.6-0.3,0.9-0.3c0.3,0,0.6,0.2,0.7,0.5c0.3,0.2,0.4,0.6,0.4,0.9c0,0.3-0.2,0.6-0.5,0.8
			c-0.5,0.4-1,0.8-1.5,1.2c-0.5,0.5-1.1,0.9-1.7,1.5c-1.6,1.3-3.3,2.7-5.1,4.1c-1.8,1.4-3.7,2.7-5.6,4c-1.7,1.1-3.6,2.1-5.5,3
			C134.2,49.4,132.5,49.8,130.8,49.8z M144.6,2.5c-1.2,0.2-2.3,0.8-3.1,1.7c-1.5,1.4-2.8,2.9-4,4.5c-1.4,1.9-3,4-4.6,6.4
			s-3.1,4.8-4.7,7.2c1.5-1.5,3.3-3.3,5.2-5.3c2-2,3.8-4,5.5-5.9c1.6-1.7,3-3.4,4.4-5.3c1.2-1.6,1.7-2.7,1.6-3.3L144.6,2.5z"/>
	</g>
</g>
</svg>
