<?xml version="1.0" encoding="utf-8"?>
<!-- Generator: Adobe Illustrator 19.2.0, SVG Export Plug-In . SVG Version: 6.00 Build 0)  -->
<svg version="1.1" id="レイヤー_1" xmlns="http://www.w3.org/2000/svg" xmlns:xlink="http://www.w3.org/1999/xlink" x="0px"
	 y="0px" viewBox="0 0 850.4 850.4" style="enable-background:new 0 0 850.4 850.4;" xml:space="preserve">
<style type="text/css">
	.st0{fill:#F45D88;}
</style>
<g>
	<g>
		<g>
			<path class="st0" d="M649.6,559.8l-2.2-6.4l-5.8-3.6l-4.3-5.3l-69.8-41.8L499.7,458l-69.8-41.8l1.3-6.8l-1.7-6.1l1.7-6.1
				l-1.6-0.9l1.8,0.2l-0.5-1.8l2.7,1.4l2.1-2l2.7,1.2l7.1-3.5l7.8-1.2l5.9-5.2l11.8-6.9l8-11.1l8.9-10.3l4.2-13.5l5.1-13.1
				l-0.5-14.1l-1.1-21.7l-9.9-19.4l-11.9-18.2l-18.2-11.9l-19.4-9.9l-21.7-1.1l-16.5-0.1l-15.2,6.4l-15.3,6.3l-11.2,11.5l-11.5,11.3
				l-6.1,14.9l-2.8,7.9l4.6,7l5.5,6.4l8.4-0.5l8.3-1.6l3.8-7.5l6.2-7.9l5-8.7l8.7-5l8.1-6.3l10.2-1.3l9.9-2.7l13.1,3.4l13,3.6
				l9.6,9.5l9.5,9.6l3.6,13l3.4,13.1l-2.4,8.5l-0.5,8.8l-5.1,7.2l-3.2,7.9l-7,5l-5.6,6.5l-4,0.2l-2.8,2.8l-3.9-0.8l-1,1.9l-1.6-1.5
				l-1.2,1.8l-0.5-1.7l-0.2,1.7l-0.4-1.7l0,1.7l0-1.7l0,1.7l-0.7-1.7l-0.7,1.7l-0.9-1.7l-0.3,1.9l-1.2-1.4l-0.2,1.8l-13.4,5.5
				l-7.3,12.5l-4.7,13.7l1.7,6.3l-1.7,6.3l1.4,6.9l-63.2,42l-61.2,44.8l-63.2,42l-0.3,0.5l1.6,0.5l-0.3,0.5l-10.1,7.5l-4.3,11.8
				l-3.6,12l1.9,3.9l-1.1,4.2l2.6,3.4l6.6,15l14.2,8.3l15.6,5l127.3-1.7l127.3,1.7l127.3-1.7l16.6-1.9l12.3-11.3l9.4-13.9l-1.7-0.2
				l1.7,0l-1.7-0.2l2.5-3.1l-1.2-3.8l1.9-3.6l-2.2-6.3l0-6.7L649.6,559.8z M623.9,580.3l0-0.2l-1.7,0l0-0.2l0,3.5l-3.4,0.5l-2.6,2.3
				l-127.3-1.7l-127.3,1.7l-127.3-1.7l-3.3,1l-1.4-3.1l-2.9-1.8l1.5-1.1l-1.8-0.5l1.7-0.8l-1.3-2.5l2.5-1.3l0.5-2.8l0.5,1.6l0-1.7
				l0.5,1.5l60.6-44.4l62.6-41.6l61.1-44.5l67.9,44.5l69.3,41.5l67.5,44.3l2-0.6l-0.4,2l2.1,0.1l-1.1,1.8l1.9,0.7l-1.6,1.3l1.7,0.8
				l-1.8,0.4L623.9,580.3z"/>
		</g>
	</g>
</g>
</svg>
