<?xml version="1.0" encoding="utf-8"?>
<!-- Generator: Adobe Illustrator 19.2.0, SVG Export Plug-In . SVG Version: 6.00 Build 0)  -->
<svg version="1.1" id="レイヤー_1" xmlns="http://www.w3.org/2000/svg" xmlns:xlink="http://www.w3.org/1999/xlink" x="0px"
	 y="0px" viewBox="0 0 850.4 850.4" style="enable-background:new 0 0 850.4 850.4;" xml:space="preserve">
<style type="text/css">
	.st0{fill:#009944;}
</style>
<g>
	<g>
		<g>
			<path class="st0" d="M566.9,287l-42.4-28.1l-49.3-13.1l-50.6-6.1l-49.5,6.1L327,258.6l-41.6,27.2l-17.1,13.9l-12.3,18.3
				l-12.4,18.2l-6.5,21.6l-6.4,21.6l0.1,22.5l0.1,26.8l7.5,25.7l8.7,25.3l14.9,20.1l15.7,19.6l21,14.4l-5.7,17.7l-2.4,17.8
				l-5.7,17.1l1.4,1.7l-1.9,1.2l1.7,1.5l-0.8,5.9l4,4.4l2.8,5.3l1-1.4l-1,1.4l1.1-1.3l-1.4,0.6l1.7,0l-1.4,0.7l4.4,0.7l3.3,2.9
				l4.2-1.2l3.2,1.4l2.6-2.4l3.5,0.3l-0.7-1.5l0.9,1.5l-0.7-1.5l0.9,1.4l-0.8-1.5l1,1.4l2.4-3.4l4.1-0.5l2.4-3.4l12.4-5.3l10.6-8.3
				l12.4-5.3l4.6-4.7l6.3-1.7l4.6-4.6l3.9-0.3l2.2-3.3l3.9-0.3l-0.8-1.5l0.9,1.4l-0.9-1.5l0.9,1.4l-0.8-1.5l0.9,1.5l12.2-7.7
				l14.3-2.2l14.1-2.9l45.4-1.5l43.8-11.9l41.8-17.5l17.3-14.8l17.1-14.9l11.5-19.6l12-22.5l4.3-25.1l3.5-25.3l-7.7-42.7l-16.6-40
				L566.9,287z M577.5,460.1l-8.8,10.1l-7.5,11.1l-11.1,7.6l-16.9,13.2l-20.1,7.5l-19.8,8.2l-22.9,3.2l-22.7,4.4l-23.1-0.8
				l-19.1,3.4l-19.1,3.5l-16.8,9.8l0.4-0.7l-1.7,0l0.4-0.7l-4.1,4.3l-5.8,1.4l-4.1,4.3l-12.3,5.3l-10.6,8.2l-11.5,5.3l1.5-11
				l4.4-11.2l1.1-11.9l1.7,0.2l-1.7,0l1.7,0.2l-1.3-2.1l1.9-1.6l-1.6-1.9l1.4-3.3l-2.4-2.7l0.2-3.6l-2.6-0.9l-0.1-2.8l-2.7-0.3
				l-0.4-2.5l-2.4,0.4l-0.7-2.4l-1.1,1.4l0.5-1.7l-1.1,1.4l0.8-1.5l-0.9,1.5l0.8-1.5l-17.9-11.4l-13.3-16.5l-12.9-16.8l-6.8-21
				L260,424l0.2-22.1l-0.5-18.2l5.5-17.4l4.9-17.5l15.8-22.1l18-20.4l23.6-13.5l30.4-14.3l33.2-5.4l33.4-3.9l43.8,5.4l42.8,10.7
				l36.7,24.3l24.5,24.9l13.1,32.3l6.5,34.3l-3.1,20.2l-3,20.2L577.5,460.1z"/>
		</g>
		<g>
			<polygon class="st0" points="333,381.2 321.3,382.6 314.2,392 309.7,402.8 314.2,413.6 321.3,423 333,424.4 344.6,423 
				351.7,413.6 356.3,402.8 351.7,392 344.6,382.6 			"/>
		</g>
		<g>
			<polygon class="st0" points="420.6,381.2 409,382.6 401.9,392 397.3,402.8 401.9,413.6 409,423 420.6,424.4 432.3,423 
				439.4,413.6 444,402.8 439.4,392 432.3,382.6 			"/>
		</g>
		<g>
			<polygon class="st0" points="508.3,381.2 496.6,382.6 489.6,392 485,402.8 489.6,413.6 496.6,423 508.3,424.4 520,423 527,413.6 
				531.6,402.8 527,392 520,382.6 			"/>
		</g>
	</g>
</g>
</svg>
