<?xml version="1.0" encoding="utf-8"?>
<!-- Generator: Adobe Illustrator 19.2.0, SVG Export Plug-In . SVG Version: 6.00 Build 0)  -->
<svg version="1.1" id="レイヤー_1" xmlns="http://www.w3.org/2000/svg" xmlns:xlink="http://www.w3.org/1999/xlink" x="0px"
	 y="0px" viewBox="0 0 850.4 56.7" style="enable-background:new 0 0 850.4 56.7;" xml:space="preserve">
<style type="text/css">
	.st0{fill-rule:evenodd;clip-rule:evenodd;}
</style>
<g>
	<path id="_x30_3_1_" class="st0" d="M567.3,29.5c5.9,0,11.8-0.2,17.7-0.3c3.4,0,6.8,0.2,10.2,0.1c3.6,0,7.3-0.2,10.9-0.3
		c3.8-0.1,7.5-0.3,11.3-0.2c7.2,0.2,14.3,0.3,21.5-0.1c4.6-0.2,9.3,0.1,13.9,0c12.8-0.5,25.6,0,38.4,0c6.4,0,12.8,0.1,19.2,0.2
		c6.3,0.1,12.6,0.3,18.8,0.4c5.4,0.1,10.8,0,16.2,0.1c6.3,0.1,12.6,0.4,18.8,0.5c11.3,0.1,22.6,0.1,33.9,0.2c9.8,0,19.6,0,29.4,0
		c2.9,0,5.8-0.2,8.7-0.2c1.4,0,2.7,0.1,4.2,0.2c0.5,0.7,1,1.3,1.6,2c-1.7,0.5-3.4,0.6-5,0.6c-4.8,0-9.5-0.1-14.3,0
		c-4,0.1-8-0.1-12,0.1c-6.5,0.4-13,0.5-19.6,0.5c-5.8,0-11.5-0.1-17.3-0.3c-3.1-0.1-6.3-0.3-9.4-0.5c-2.1-0.1-4.3,0-6.4-0.1
		c-3.5,0-7-0.1-10.5-0.2c-1.8,0-3.5-0.3-5.3-0.3c-7.5-0.2-15-0.5-22.6-0.5c-3.9,0-7.8-0.3-11.7-0.2c-3.5,0.1-7,0.3-10.5,0.3
		c-3.6,0-7.3-0.1-10.9-0.1c-3.5,0-7,0-10.5,0c-4.9,0-9.8,0.1-14.7,0.2c-0.6,0-1.3-0.1-1.9,0.1c-3.2,0.6-6.5,0.1-9.8,0.3
		c-0.6,0-1.3,0.1-1.9-0.1c-2.9-0.8-6-0.6-9-0.6c-7.5,0-15.1,0-22.6,0.2c-4.5,0.1-9,0.5-13.5,0.4c-3.5-0.1-7-0.1-10.5-0.2
		c-10.6-0.2-21.1-0.3-31.7-0.5c0,0,0.2-1.6,1.2-1.7C562.8,29.6,567.3,29.5,567.3,29.5z"/>
	<path id="_x30_3_2_" class="st0" d="M294.6,31.3c-3.5,0.5-7,0.3-10.5,0.3c-3.6,0-7.3-0.1-10.9-0.1c-3.5,0-7,0-10.5,0
		c-4.9,0-9.8,0.1-14.7,0.2c-0.6,0-1.3-0.1-1.9,0.1c-3.2,0.6-6.5,0.1-9.8,0.3c-0.6,0-1.3,0.1-1.9-0.1c-2.9-0.8-6-0.6-9-0.6
		c-7.5,0-15.1,0-22.6,0.2c-4.5,0.1-9,0.5-13.5,0.4c-3.5-0.1-7-0.1-10.5-0.2c-10.6-0.2-21.1-0.3-31.7-0.5c-1.1,0-2.3,0.1-3.4,0.2
		c-7,0.4-14,0.6-21.1,0.6c-3.3,0-6.5,0.1-9.8,0.1c-0.6,0-1.3,0.1-1.9,0c-4-0.6-8-0.2-12-0.3c-2.4,0-4.8,0-7.2,0
		c-7.3,0-14.5,0.7-21.8,1.1c-2.5,0.1-5,0-7.5,0.1c-4.6,0.1-9.3,0.3-13.9,0.4c-2.1,0-4.3,0-6.4-0.1c-5.5-0.2-11,0-16.6,0.4
		C22.9,34.2,20,34,17.1,34c-1.8,0-3.5,0-5.3-0.1c-0.9,0-1.7-0.2-2.7-0.3c-0.3-0.8-0.6-1.6-1-2.5c0.9-0.1,1.5-0.2,2.1-0.2
		c6.7,0,13.3,0.1,20,0.1c3.3,0,6.5-0.2,9.8-0.3c4.1-0.2,8.3-0.4,12.4-0.6c1.1,0,2.3-0.1,3.4,0c10.7,0.3,21.4,0.1,32-0.5
		c0.6,0,1.3-0.1,1.9-0.1c8.4-0.2,16.8-0.5,25.2-0.6c4.9-0.1,9.8,0.3,14.7,0.4c8,0.1,16.1,0.3,24.1,0.3c5.9,0,11.8-0.2,17.7-0.3
		c3.4,0,6.8,0.2,10.2,0.1c3.6,0,7.3-0.2,10.9-0.3c3.8-0.1,7.5-0.3,11.3-0.2c7.2,0.2,14.3,0.3,21.5-0.1c4.6-0.2,9.3,0.1,13.9,0
		c12.8-0.5,25.6,0,38.4,0c6.4,0,12.8,0.1,19.2,0.2C297,29,297.7,30.8,294.6,31.3z"/>
	<g>
		<path d="M318.8,14.8c0,0.6,0.1,1.2,0.1,1.8c0,0.6,0,1.3,0,1.9c0,1.4-0.1,3.2-0.2,5.3c-0.1,2.1-0.4,4.7-0.7,7.5
			c-0.3,2.9-0.5,5.4-0.7,7.6c-0.1,2.2-0.2,4-0.2,5.4c0,0.5,0,1.1,0,1.6c0,0.5,0,1.1,0.1,1.6c-0.4,1.1-1.2,1.7-2.5,1.7
			c-1.8-0.1-2.8-0.9-3-2.3c-0.1-0.7-0.1-1.5-0.2-2.2c0-0.8-0.1-1.6-0.1-2.4c0-1.4,0.1-3.2,0.3-5.3c0.2-2.1,0.4-4.6,0.8-7.5
			c0.3-2.9,0.6-5.4,0.8-7.4c0.2-2.1,0.3-3.8,0.3-5.2c0-0.5,0-1.1,0-1.6c0-0.5-0.1-1.1-0.1-1.6c0.4-0.8,1.1-1.2,2.1-1.2
			c0.8,0,1.5,0.2,2.4,0.7c0.2-0.1,0.3-0.2,0.4-0.2c0.1,0,0.2,0.2,0.2,0.6c0,0.2-0.1,0.4-0.1,0.6c0,0.2,0,0.3,0.1,0.3L318.8,14.8z"/>
		<path d="M324.6,49.4c-0.1-2.3-0.2-4.8-0.2-7.4c0-4.4,0.3-10,0.8-16.7l1.3-16.8c0-0.9,0.9-1.4,2.5-1.4c0.3,0,0.8,0.1,1.4,0.4
			c0.6,0.3,1.2,0.7,1.9,1.2c0.7,1.3,1.4,3,2.3,5c0.8,2.1,1.7,4.5,2.7,7.4c1,2.8,1.9,5.4,2.8,7.9c0.9,2.5,1.7,4.7,2.5,6.6L345,8.4
			c0.1-0.8,0.7-1.3,1.8-1.3c0.4,0,0.8,0.1,1.3,0.2l1.2,0.3c0.4,0.2,0.7,0.5,0.8,0.9l-1.7,16.9c-0.3,3.4-0.6,6.5-0.8,9.2
			s-0.3,5.3-0.3,7.5c0,0.7,0,1.4,0,2.2s0,1.5,0.1,2.3c0,0.6-0.3,1.2-0.8,1.7c-0.5,0.5-1.1,0.7-1.7,0.7c-1.3,0-2.4-0.9-3.3-2.6
			c-0.7-1.3-1.4-2.9-2.2-4.8c-0.8-1.9-1.6-4-2.5-6.3c-0.9-2.3-1.8-4.8-2.8-7.4c-1-2.6-1.9-5.4-3-8.2c-0.1-0.3-0.2-0.4-0.3-0.4
			c-0.3,0-0.5,0.3-0.6,0.9c-0.2,1.5-0.3,3.1-0.4,4.9c-0.1,1.7-0.1,3.5-0.2,5.4c0,1.8,0,3.7,0,5.5s0,3.6,0,5.2c0,1.6,0,3.2,0.1,4.8
			c0,1.6,0.1,3.3,0.2,4.9v0.3c0,1.1-0.4,1.9-1.1,2.3c-0.3,0.3-0.6,0.4-0.9,0.4c-0.3,0-0.7-0.1-1.1-0.4l-1.2-0.6
			c-0.5-0.2-0.9-0.7-1-1.5L324.6,49.4z"/>
		<path d="M359.3,53.2c-1.3-0.5-1.9-1.2-1.9-2.1c0-0.5,0.3-1.1,0.9-1.8c0.2-0.2,0.6-0.3,1.2-0.4c0.6,0,1-0.3,1.3-0.8
			c0.9-1.8,1.3-3.7,1.3-5.7c0-2.6-1.4-6.6-4.1-11.8c-2.7-5.2-4-9.3-4-12.4c0-2.6,0.5-4.8,1.5-6.9c1.1-2.3,2.7-4,4.8-5
			c1-0.5,2-0.7,2.8-0.7c1.8,0,3.1,0.5,4,1.4c0.4,0.4,0.6,0.9,0.6,1.4c0,0.8-0.6,1.6-1.8,2.2c-0.2,0.1-0.4,0.1-0.6,0.1
			c-0.3,0-0.4,0-0.5-0.1c-0.5-0.2-0.8-0.3-0.9-0.3c-0.3,0-0.5,0.1-0.8,0.4c-2.3,2.3-3.4,5-3.4,8.3c0,1.2,0.2,2.3,0.6,3.4
			c0.1,0.2,0.5,1.1,1.3,2.8c0.8,1.6,1.9,4,3.5,7c2,4,3,7.4,3,10.2c0,2.3-0.6,4.5-1.7,6.7c-0.4,0.7-1.3,1.6-2.8,2.8
			c-1.2,0.9-2.3,1.3-3.3,1.3C360,53.4,359.6,53.3,359.3,53.2z"/>
		<path d="M387.7,47.2c0,0.3,0,0.5,0,0.7c0,0.2-0.1,0.4-0.1,0.5c-0.2,0.6-0.6,0.9-1.3,0.9c-1.2,0-2.2-0.6-3-1.5
			c-0.8-1-1.2-2.1-1.3-3.3c-0.1-1.5-0.2-3.2-0.2-4.9c0-2.8,0.2-7.1,0.6-13.1c0.2-2.5,0.3-4.8,0.4-6.8c0.1-2,0.1-3.7,0.1-5.2v-1.2
			h-0.8c-0.5,0-1.1,0-1.7,0.1c-0.7,0-1.4,0.1-2.2,0.3c-0.5,0.1-0.8,0.2-1.1,0.2S376.5,14,376,14c-2,0-3.7-0.5-5-1.6
			c-0.5-1-0.8-1.6-0.8-1.7c0-0.3,0.1-0.6,0.4-0.9c0.7-0.2,1.4-0.4,2.3-0.6c0.9-0.2,2-0.3,3.3-0.5c3.5-0.4,6.2-1,8.2-2
			c1.6,0.5,3.3,0.7,5,0.7c1.8,0,3.6-0.2,5.4-0.7c0.3,0,0.6-0.1,1.2-0.3c0.5-0.1,1.1-0.3,1.7-0.5c1-0.3,2-0.4,3-0.4
			c0.1,0,0.3,0,0.4,0c0.1,0,0.3,0,0.4,0c0.6,0,0.9,0.2,0.9,0.7v0.3c1.1,0,1.7,0.4,1.7,1.1c-0.4,1.5-1.1,2.4-2.1,2.6
			c-1.3,0.3-3,0.7-5.1,1.1c-2.1,0.4-4.8,0.9-8.1,1.4c-0.4,5.3-0.7,10.1-0.9,14.3c-0.2,4.3-0.3,8.2-0.3,11.8c0,1.3,0,2.7,0,3.9
			c0,1.3,0.1,2.6,0.1,3.9V47.2z"/>
		<path d="M404.8,49.4c0-1.6,0.5-3.6,1.4-5.8c1.3-3.1,1.9-5.3,2.1-6.7c0-0.3-0.3-0.7-0.8-1.1c-0.6-0.5-0.9-0.8-0.9-1.1
			c0-0.3,0.1-0.5,0.3-0.6c0.2-0.3,0.6-0.4,1.3-0.6c0.7-0.2,1.1-0.4,1.2-0.7c0.8-2.1,1.9-5.9,3.6-11.7c0.7-2.5,1.4-4.7,2-6.6
			c0.6-1.9,1.2-3.5,1.7-4.8c0.3-0.6,0.8-0.9,1.6-0.9c0.6,0,1.1,0.2,1.6,0.6c1.2,1,1.9,2.5,2.3,4.5c0.1,0.8,0.3,1.7,0.4,2.6
			c0.1,0.9,0.2,1.7,0.3,2.6c1,4.9,2.1,9.4,3.2,13.5c1.1,4,2.2,7.7,3.3,11c0.3,0.7,0.4,1.3,0.4,1.8c0,0.8-0.4,1.6-1.1,2.2
			c-0.7,0.6-1.2,0.9-1.4,0.9c-2.1-0.4-3.4-2-3.9-5c-0.5-3.2-1.2-5.8-2.1-8l-4.3,0.4c-1.6,0.2-2.9,0.7-3.8,1.5
			c-0.2,0.7-0.5,1.6-0.8,2.7c-0.3,1.1-0.7,2.5-1,4.2c-0.7,3.1-1.4,5.4-2.1,7c-0.2,0.5-0.6,0.8-1.3,0.8c-0.1,0-0.3,0-0.4,0
			c-0.1,0-0.3,0-0.5-0.1c-1.4-0.4-2.1-1-2.2-1.9V49.4z M420.1,31.6c-0.1-0.8-0.2-1.7-0.3-2.5c-0.1-0.9-0.3-1.7-0.5-2.7
			c-0.2-0.8-0.4-1.7-0.6-2.5c-0.2-0.8-0.4-1.7-0.6-2.5c-1.3,3.5-2.3,7-3.3,10.4C415.5,31.6,417.3,31.6,420.1,31.6z"/>
		<path d="M454.2,51.9c0,1-0.7,1.6-2.1,1.6c-0.4,0-0.8-0.1-1.1-0.2c-1.8-0.8-2.7-2.2-2.7-4.2c0-0.3,0-0.7,0.1-1.1
			c0-0.4,0.1-1,0.2-1.5c0.1-0.6,0.1-1.1,0.2-1.5c0-0.4,0.1-0.8,0.1-1.1c0.1-0.6,0.2-1.3,0.3-2.3c0.1-0.9,0.2-2,0.3-3.2
			c-2.9,2.7-6.2,4.8-9.8,6.1c-0.4,0.2-0.9,0.3-1.5,0.3c-1.9,0-3.7-1.1-5.3-3.3c-0.9-1.2-1.4-2.7-1.4-4.5c0-1.5,0.4-3.3,1.1-5.6
			c2.2-6.8,5.8-13.5,10.6-19.9c2.5-3.2,4.6-4.8,6.5-4.8c1.7,0,2.6,0.6,2.8,1.9c0,0.1,0.1,0.3,0.1,0.5c0,0.8-0.4,1.4-1.1,1.8
			l-2.3,1.3c-1.8,1.9-3.4,4.1-5.1,6.6c-1.6,2.5-3.2,5.3-4.6,8.5c-1.8,3.7-2.7,7.1-2.7,10.2c0,0.3,0,0.6,0,0.8c0,0.3,0,0.5,0.1,0.8
			c0.1,0,0.2,0.2,0.3,0.5c0.1,0.3,0.3,0.5,0.5,0.5c0,0,0.1,0,0.1,0c0,0,0.1,0,0.1,0c2.8-1.1,6.9-4,12.5-8.6c0.4-0.3,0.9-1.3,1.4-2.9
			c0.2-0.6,0.5-1.1,1-1.4c0.4-0.3,0.8-0.4,1.2-0.4c0,0,0.1-0.1,0.3-0.1c0.1,0,0.2,0,0.3,0c0.1,0,0.3,0,0.5-0.1h0.3
			c0.3,0,0.6,0.1,0.7,0.3c0.8,1.2,1.2,2.1,1.2,2.9c0,0.5-0.1,0.9-0.3,1.2c-0.6,1.4-1.1,3-1.5,4.7c-0.4,1.7-0.6,3.6-0.7,5.7
			L454.2,51.9z"/>
		<path d="M462.4,42.3c0.1-1.2,0.2-2.5,0.3-4c0.1-1.4,0.2-3,0.2-4.7v-6.9c0-2.9,0-5.5,0.1-7.9c0.1-2.3,0.3-4.5,0.6-6.5
			c0.4-2.4,2.6-3.6,6.5-3.6h0.9c2.3,0.1,4.2,1.2,5.9,3.4c1.5,1.9,2.3,4.1,2.3,6.5c0,2-0.7,3.9-2.2,5.9c-1.3,1.8-2.8,3.2-4.6,4.3
			c-0.4,0.2-0.7,0.4-0.9,0.6s-0.3,0.4-0.3,0.7c0,0.3,0.1,0.5,0.3,0.7s0.5,0.5,1,0.8l2,1.7l7,6.5c1.4,1.3,2.7,2.6,3.7,3.7
			c1,1.2,1.9,2.3,2.5,3.3c0.1,0.2,0.2,0.4,0.2,0.6c0,1-1,1.7-3,2.2c-2.2-1.7-5-4.3-8.3-7.9c-1.9-2-3.5-3.7-4.8-5.1
			c-1.3-1.4-2.5-2.4-3.4-3.2c-0.1,0.5-0.2,1.5-0.3,3c-0.1,1.4-0.2,3.3-0.4,5.6c-0.2,3.5-0.6,6.2-1.1,8.3c-0.1,0-0.3,0.1-0.6,0.3
			c-0.3,0.2-0.7,0.3-1,0.3c0,0-0.1,0-0.1,0c0,0-0.1,0-0.1,0c-1.8-0.5-2.8-1.7-2.8-3.8c0-0.3,0-0.7,0.1-1.2c0-0.4,0.1-0.9,0.2-1.4
			L462.4,42.3z M474.5,16.8c-0.1-0.9-0.5-1.7-1.1-2.4c-0.6-0.7-1.6-1.1-2.9-1.1c-1,0-1.6,0.3-1.9,0.9c-0.1,0.6-0.2,1.2-0.2,1.8
			c-0.1,0.6-0.1,1.2-0.1,1.8c0,0.5,0.1,1.9,0.2,4.2c0,0.5,0,0.9,0,1.3c0,0.4,0,0.7,0,1.1c0,0.3,0,0.7,0,1c0,0.3,0,0.6,0,0.9
			c3.5-2.6,5.4-5,5.9-7.5c0-0.3,0.1-0.6,0.1-0.8s0-0.5,0-0.7V16.8z"/>
		<path d="M488.2,49.4c0-1.6,0.5-3.6,1.4-5.8c1.3-3.1,1.9-5.3,2.1-6.7c0-0.3-0.3-0.7-0.8-1.1c-0.6-0.5-0.9-0.8-0.9-1.1
			c0-0.3,0.1-0.5,0.3-0.6c0.2-0.3,0.6-0.4,1.3-0.6c0.7-0.2,1.1-0.4,1.2-0.7c0.8-2.1,1.9-5.9,3.6-11.7c0.7-2.5,1.4-4.7,2-6.6
			c0.6-1.9,1.2-3.5,1.7-4.8c0.3-0.6,0.8-0.9,1.6-0.9c0.6,0,1.1,0.2,1.6,0.6c1.2,1,1.9,2.5,2.3,4.5c0.1,0.8,0.3,1.7,0.4,2.6
			s0.2,1.7,0.3,2.6c1,4.9,2.1,9.4,3.2,13.5c1.1,4,2.2,7.7,3.3,11c0.3,0.7,0.4,1.3,0.4,1.8c0,0.8-0.4,1.6-1.1,2.2
			c-0.7,0.6-1.2,0.9-1.4,0.9c-2.1-0.4-3.4-2-3.9-5c-0.5-3.2-1.2-5.8-2.1-8l-4.3,0.4c-1.6,0.2-2.9,0.7-3.8,1.5
			c-0.2,0.7-0.5,1.6-0.8,2.7c-0.3,1.1-0.7,2.5-1,4.2c-0.7,3.1-1.4,5.4-2.1,7c-0.2,0.5-0.6,0.8-1.3,0.8c-0.1,0-0.3,0-0.4,0
			c-0.1,0-0.3,0-0.5-0.1c-1.4-0.4-2.1-1-2.2-1.9V49.4z M503.5,31.6c-0.1-0.8-0.2-1.7-0.3-2.5c-0.1-0.9-0.3-1.7-0.5-2.7
			c-0.2-0.8-0.4-1.7-0.6-2.5c-0.2-0.8-0.4-1.7-0.6-2.5c-1.3,3.5-2.3,7-3.3,10.4C498.8,31.6,500.6,31.6,503.5,31.6z"/>
		<path d="M531.6,45.7c-1-0.2-1.8-0.6-2.3-1.2c-0.5-0.6-1.1-1.3-1.6-2.2c-0.3-0.6-0.7-1.3-1-2.3c-0.3-0.9-0.7-2-1-3.3
			c-0.3-1.5-0.7-2.9-1-4.4c-0.3-1.5-0.6-2.6-0.8-3.3c-0.5,2.2-0.9,4.4-1.4,6.5c-0.5,2.1-1,4.1-1.5,6s-1,3.6-1.5,5.2s-1,2.9-1.5,4
			c-0.1,0.3-0.4,0.4-0.8,0.4c-0.5,0-1.1-0.2-1.8-0.6c-0.6-0.3-1-0.7-1.2-1.1c-0.2-0.4-0.3-0.9-0.3-1.4c0-0.3,0.4-1.7,1.3-4
			c0.2-0.5,0.7-1.9,1.4-4.3c0.7-2.4,1.7-5.8,3-10.2c0.5-1.5,0.9-3.6,1.4-6.2c0.5-2.6,0.9-5.9,1.4-9.7c0.1-0.1,0.3-0.5,0.6-1.3
			c0.2-0.6,0.6-0.9,1.1-0.9c1.5,0,2.6,0.3,3.1,0.8c0,0.6,0,1.4,0,2.4c0,1,0.1,2.2,0.3,3.5c0.2,1.3,0.3,2.5,0.4,3.5s0.1,1.9,0.1,2.6
			c0.1,1.5,0.3,2.8,0.6,3.8c0.3,1,0.5,2.1,0.8,3.3c0.5,2.8,1.3,5.1,2.5,6.7c2-5.6,3.7-10.6,4.9-15.1c1.3-4.4,2.2-8.3,2.7-11.6
			c0.2-0.7,0.8-1,1.9-1c1.5,0,2.4,0.5,2.6,1.5c0.3,1.3,0.4,3.1,0.4,5.2c0,0.3,0,0.8,0,1.5c0,0.7-0.1,1.6-0.1,2.6
			c0,0.5-0.1,0.9-0.1,1.3c0,0.4,0,0.7,0,1.1c0,0.3,0,0.7,0,1c0,0.3,0,0.6,0.1,0.9c0.4,8.9,1.2,16.3,2.5,22.3c0,0.1,0,0.1,0,0.2
			c0,0,0,0.1,0,0.1c0,0.7-0.7,1.1-2.1,1.1c-0.8,0-1.7-0.4-2.6-1.2c-0.8-0.7-1.5-1.9-1.9-3.5c-0.5-1.4-0.7-3.5-0.8-6.2
			c0-0.8,0-1.6,0-2.6s0-1.9,0-2.8c0-0.9,0-1.7-0.1-2.5c0-0.7-0.1-1.3-0.1-1.6c-0.1,0.5-0.3,1.2-0.6,2.1s-0.6,1.9-1,3
			c-0.4,1.1-0.7,2.2-1.1,3.4c-0.4,1.2-0.7,2.2-1,3.1c-0.8,2.1-1.2,3.2-1.4,3.5c-0.6,1.2-1.4,1.8-2.3,1.8H531.6z"/>
	</g>
</g>
</svg>
