<?xml version="1.0" encoding="utf-8"?>
<!-- Generator: Adobe Illustrator 19.2.0, SVG Export Plug-In . SVG Version: 6.00 Build 0)  -->
<svg version="1.1" id="レイヤー_1" xmlns="http://www.w3.org/2000/svg" xmlns:xlink="http://www.w3.org/1999/xlink" x="0px"
	 y="0px" viewBox="0 0 850.4 850.4" style="enable-background:new 0 0 850.4 850.4;" xml:space="preserve">
<style type="text/css">
	.st0{fill:#B90428;}
</style>
<path class="st0" d="M561.5,632.1c0-41.2-2.6-177.2-20.3-246.1c-6.6-25.8-14.8-48-24.5-66.3c-15.1-68.1-45.9-101.5-91.6-101.5
	c-43.2,0-74.5,32.1-90.4,99.4c-10.2,18.7-18.7,41.6-25.6,68.4c-17.7,68.9-20.3,204.9-20.3,246.1h19.6c0-35.6,2-156.9,14.3-217.6
	c0,0.4,0,0.8,0,1.2c0,91.2,45.9,104.3,102.4,104.3c56.6,0,102.4-13.1,102.4-104.3c0-0.4,0-0.8,0-1.2c12.3,60.7,14.3,182,14.3,217.6
	H561.5z"/>
</svg>
