<?xml version="1.0" encoding="utf-8"?>
<!-- Generator: Adobe Illustrator 19.2.0, SVG Export Plug-In . SVG Version: 6.00 Build 0)  -->
<svg version="1.1" id="レイヤー_1" xmlns="http://www.w3.org/2000/svg" xmlns:xlink="http://www.w3.org/1999/xlink" x="0px"
	 y="0px" viewBox="0 0 850.4 850.4" style="enable-background:new 0 0 850.4 850.4;" xml:space="preserve">
<style type="text/css">
	.st0{fill:none;stroke:#44BFE9;stroke-width:15;stroke-linecap:round;stroke-linejoin:round;stroke-miterlimit:10;}
	.st1{fill:#F39800;}
	.st2{fill:#44BFE9;}
</style>
<g>
	<polyline class="st0" points="59.6,789.4 62.5,698.3 59.6,607.3 62.5,516.2 59.6,425.2 62.5,334.2 59.6,243.1 62.5,152.1 60,60 
		152.1,62.5 243.1,59.6 334.1,62.5 425.2,59.6 516.2,62.5 607.3,59.6 698.3,62.5 790.4,60 787.9,152.1 790.8,243.1 787.9,334.1 
		790.8,425.2 787.9,516.2 790.8,607.3 787.9,698.3 790.5,790.2 717.4,787.9 645.5,790.8 573.6,787.9 501.7,790.8 429.8,787.9 
		357.9,790.8 285.9,787.9 213.5,790.7 215.4,760.9 212.6,732.4 215.4,703.9 212.6,675.5 215.4,647 212.6,618.5 215.4,590 
		213.2,560.4 258.2,563 302.5,560.2 346.7,563 391,560.2 435.2,563 479.4,560.2 523.7,563 567.9,560.2 	"/>
</g>
<g>
	<g>
		<g>
			<path class="st1" d="M244.7,557.5l2.8-104.9l-2.8-104.7l2.7-104.2l38.2-1.9l39.5,2.8l39.5-2.8l15.9,3.1l16.1-2l15.5,4.8l14.2,0.3
				l12.1,7.4l13.5,4.4l8.3,10.7l10.6,8.5l4.2,12.9l8,12.7l0.4,15l3.8,14.5l-5.4,24.2l-5.9,24.1l-16.6,18.5l-25.8,20.2l-32.6,5.1
				l-32.7,4.8l-26.8-2.8l-26.8,2.8l-28-2.2l2.6,43.3l-2.8,42.6l2.8,43l-15.2-1.9l-13.8,2.8L244.7,557.5z M288.8,391.7l25.9,2.2
				l27.1-2.8l27.1,2.8l19.9-3.9l20.3-1.5l16.1-12.1l12-10.3l2.9-15.6l4.4-15.2l-3.8-11.6l-0.5-12.2l-8.2-9.1l-5.1-10.1l-10.5-4
				l-9.1-6.7l-13.3,0.9l-12.8-3.5l-13,2.7l-26.8-2.8l-26.8,2.8l-27.9-2.2l2.6,38.2l-2.8,37.4L288.8,391.7z"/>
		</g>
		<g>
			<path class="st1" d="M455.5,498.8l13.3,0.6l11.8-4.7l12.2,0.9l4.6,10.7l3.1,12.8l10.7,7.7l10.6,9.5l14.2,0.9l13.7,3.8l13.1-3.6
				l13.6-0.3l10.2-8.9l8.5-4.9l1.9-9.6l4.2-8.8l-4-7.3l-1.4-8.2l-7.8-3.1l-11-7.8l-13.6-1.2l-12.2-6.1l-19.8-2.3l-18.1-8.4L494,456
				l-7.8-7.8l-10-4.8l-4.3-10.2l-7.1-8v-10.6l-3.7-10l3.5-9.1l-0.5-9.8l6.3-7.5l2.6-9.3l8.2-5.1l5.3-8.1l8.9-2.1l6.8-6.1l9.1-0.1
				l9.8-5.3l11.1,1.4l10.7-3.3l15.2,3.5l15.6-0.4l13.9,7.1l11.9,2.4l8.2,8.9l10.2,6.6l3.6,11.9l6.8,10.5l0.6,11l-11.2,4.3l-12.5-1.2
				l-12.1,4.5l-1-11.8l-7.3-7.7l-5-9.3l-11.6-3.3l-10.7-5.6l-12,2l-12.8-2.2l-11.9,5.1l-12.6,3l-3.7,7.4l-6.3,5.3l1.4,8.1l-2.3,4.9
				l4.2,3.5l0.1,5.4l6.1,2.2l3.3,5.6l6.5-0.1l9.9,6l11.7,0.4l10.2,5.7l19.2,2.4l17.5,8.3l19,3.9l8,7.4l10,4.3l4.7,9.8l7.7,8.5
				l0.1,11.5l3.7,10.9l-4,12l-1,12.6l-8.4,9.5l-6.5,12.2l-12.4,6.2l-10.6,8.9l-15.8,2.5l-15,5.7l-15.9-1.9l-23,1.4l-21.5-8.1
				l-21.3-8.5L472,536.7L460.4,520L455.5,498.8z"/>
		</g>
	</g>
	<g>
		<g>
			<path class="st2" d="M244.7,557.5l2.8-104.9l-2.8-104.7l2.7-104.2l38.2-1.9l39.5,2.8l39.5-2.8l15.9,3.1l16.1-2l15.5,4.8l14.2,0.3
				l12.1,7.4l13.5,4.4l8.3,10.7l10.6,8.5l4.2,12.9l8,12.7l0.4,15l3.8,14.5l-5.4,24.2l-5.9,24.1l-16.6,18.5l-25.8,20.2l-32.6,5.1
				l-32.7,4.8l-26.8-2.8l-26.8,2.8l-28-2.2l2.6,43.3l-2.8,42.6l2.8,43l-15.2-1.9l-13.8,2.8L244.7,557.5z M288.8,391.7l25.9,2.2
				l27.1-2.8l27.1,2.8l19.9-3.9l20.3-1.5l16.1-12.1l12-10.3l2.9-15.6l4.4-15.2l-3.8-11.6l-0.5-12.2l-8.2-9.1l-5.1-10.1l-10.5-4
				l-9.1-6.7l-13.3,0.9l-12.8-3.5l-13,2.7l-26.8-2.8l-26.8,2.8l-27.9-2.2l2.6,38.2l-2.8,37.4L288.8,391.7z"/>
			<path class="st2" d="M244.7,557.5l2.8-104.9l-2.8-104.7l2.7-104.2l38.2-1.9l39.5,2.8l39.5-2.8l15.9,3.1l16.1-2l15.5,4.8l14.2,0.3
				l12.1,7.4l13.5,4.4l8.3,10.7l10.6,8.5l4.2,12.9l8,12.7l0.4,15l3.8,14.5l-5.4,24.2l-5.9,24.1l-16.6,18.5l-25.8,20.2l-32.6,5.1
				l-32.7,4.8l-26.8-2.8l-26.8,2.8l-28-2.2l2.6,43.3l-2.8,42.6l2.8,43l-15.2-1.9l-13.8,2.8L244.7,557.5z M288.8,391.7l25.9,2.2
				l27.1-2.8l27.1,2.8l19.9-3.9l20.3-1.5l16.1-12.1l12-10.3l2.9-15.6l4.4-15.2l-3.8-11.6l-0.5-12.2l-8.2-9.1l-5.1-10.1l-10.5-4
				l-9.1-6.7l-13.3,0.9l-12.8-3.5l-13,2.7l-26.8-2.8l-26.8,2.8l-27.9-2.2l2.6,38.2l-2.8,37.4L288.8,391.7z"/>
		</g>
		<g>
			<path class="st2" d="M455.5,498.8l13.3,0.6l11.8-4.7l12.2,0.9l4.6,10.7l3.1,12.8l10.7,7.7l10.6,9.5l14.2,0.9l13.7,3.8l13.1-3.6
				l13.6-0.3l10.2-8.9l8.5-4.9l1.9-9.6l4.2-8.8l-4-7.3l-1.4-8.2l-7.8-3.1l-11-7.8l-13.6-1.2l-12.2-6.1l-19.8-2.3l-18.1-8.4L494,456
				l-7.8-7.8l-10-4.8l-4.3-10.2l-7.1-8v-10.6l-3.7-10l3.5-9.1l-0.5-9.8l6.3-7.5l2.6-9.3l8.2-5.1l5.3-8.1l8.9-2.1l6.8-6.1l9.1-0.1
				l9.8-5.3l11.1,1.4l10.7-3.3l15.2,3.5l15.6-0.4l13.9,7.1l11.9,2.4l8.2,8.9l10.2,6.6l3.6,11.9l6.8,10.5l0.6,11l-11.2,4.3l-12.5-1.2
				l-12.1,4.5l-1-11.8l-7.3-7.7l-5-9.3l-11.6-3.3l-10.7-5.6l-12,2l-12.8-2.2l-11.9,5.1l-12.6,3l-3.7,7.4l-6.3,5.3l1.4,8.1l-2.3,4.9
				l4.2,3.5l0.1,5.4l6.1,2.2l3.3,5.6l6.5-0.1l9.9,6l11.7,0.4l10.2,5.7l19.2,2.4l17.5,8.3l19,3.9l8,7.4l10,4.3l4.7,9.8l7.7,8.5
				l0.1,11.5l3.7,10.9l-4,12l-1,12.6l-8.4,9.5l-6.5,12.2l-12.4,6.2l-10.6,8.9l-15.8,2.5l-15,5.7l-15.9-1.9l-23,1.4l-21.5-8.1
				l-21.3-8.5L472,536.7L460.4,520L455.5,498.8z"/>
			<path class="st2" d="M455.5,498.8l13.3,0.6l11.8-4.7l12.2,0.9l4.6,10.7l3.1,12.8l10.7,7.7l10.6,9.5l14.2,0.9l13.7,3.8l13.1-3.6
				l13.6-0.3l10.2-8.9l8.5-4.9l1.9-9.6l4.2-8.8l-4-7.3l-1.4-8.2l-7.8-3.1l-11-7.8l-13.6-1.2l-12.2-6.1l-19.8-2.3l-18.1-8.4L494,456
				l-7.8-7.8l-10-4.8l-4.3-10.2l-7.1-8v-10.6l-3.7-10l3.5-9.1l-0.5-9.8l6.3-7.5l2.6-9.3l8.2-5.1l5.3-8.1l8.9-2.1l6.8-6.1l9.1-0.1
				l9.8-5.3l11.1,1.4l10.7-3.3l15.2,3.5l15.6-0.4l13.9,7.1l11.9,2.4l8.2,8.9l10.2,6.6l3.6,11.9l6.8,10.5l0.6,11l-11.2,4.3l-12.5-1.2
				l-12.1,4.5l-1-11.8l-7.3-7.7l-5-9.3l-11.6-3.3l-10.7-5.6l-12,2l-12.8-2.2l-11.9,5.1l-12.6,3l-3.7,7.4l-6.3,5.3l1.4,8.1l-2.3,4.9
				l4.2,3.5l0.1,5.4l6.1,2.2l3.3,5.6l6.5-0.1l9.9,6l11.7,0.4l10.2,5.7l19.2,2.4l17.5,8.3l19,3.9l8,7.4l10,4.3l4.7,9.8l7.7,8.5
				l0.1,11.5l3.7,10.9l-4,12l-1,12.6l-8.4,9.5l-6.5,12.2l-12.4,6.2l-10.6,8.9l-15.8,2.5l-15,5.7l-15.9-1.9l-23,1.4l-21.5-8.1
				l-21.3-8.5L472,536.7L460.4,520L455.5,498.8z"/>
		</g>
	</g>
</g>
</svg>
