<?xml version="1.0" encoding="utf-8"?>
<!-- Generator: Adobe Illustrator 19.2.0, SVG Export Plug-In . SVG Version: 6.00 Build 0)  -->
<svg version="1.1" id="レイヤー_1" xmlns="http://www.w3.org/2000/svg" xmlns:xlink="http://www.w3.org/1999/xlink" x="0px"
	 y="0px" viewBox="0 0 850.4 850.4" style="enable-background:new 0 0 850.4 850.4;" xml:space="preserve">
<style type="text/css">
	.st0{fill:#00AFC0;}
</style>
<g>
	<g>
		<g>
			<path class="st0" d="M425.2,190.7l-61.1,6.3l-56.1,25.1l-49.8,36.1l-36.1,49.8L197,364.1l-6.3,61.1l6.3,61.1l25.1,56.1l36.1,49.7
				l49.8,36.1l56.1,25.1l61.1,6.3l61.1-6.3l56.1-25.1l49.8-36.1l36.1-49.7l25.1-56.1l6.3-61.1l-6.3-61.1l-25.1-56.1l-36.1-49.8
				l-49.8-36.1L486.3,197L425.2,190.7z M425.2,514l-22.6-4.6l-21.9-7.2l-17.2-15.3l-15.3-17.2l-7.2-21.9l-4.6-22.5l4.6-22.6
				l7.2-21.9l15.3-17.2l17.2-15.3l21.9-7.2l22.6-4.6l22.6,4.6l21.9,7.2l17.2,15.3l15.3,17.2l7.2,21.9l4.6,22.6l-4.6,22.6l-7.2,21.9
				l-15.3,17.2l-17.2,15.3l-21.9,7.2L425.2,514z"/>
		</g>
		<g>
			<polygon class="st0" points="425.2,396.7 417.4,396.1 411,400.5 403.9,403.9 400.5,411 396.1,417.4 396.7,425.2 396.1,433 
				400.5,439.4 403.9,446.5 411,449.9 417.4,454.3 425.2,453.7 433,454.3 439.4,449.9 446.5,446.5 449.9,439.4 454.3,433 
				453.7,425.2 454.3,417.4 449.9,411 446.5,403.9 439.4,400.5 433,396.1 			"/>
		</g>
	</g>
</g>
</svg>
